<svg width="81" height="48" viewBox="0 0 81 48" fill="none" xmlns="http://www.w3.org/2000/svg">
<path id="Uni&#195;&#163;o 1" d="M13.2719 47.5577C-0.166591 45.4455 -1.87197 36.2175 1.47898 30.4092C3.03407 27.9692 4.89167 25.7339 7.00794 23.756C10.6958 20.4949 14.7725 17.6974 19.1462 15.4265C26.756 11.3266 35.0893 8.72725 43.6889 7.77107C46.2102 7.44688 48.7651 7.48244 51.2763 7.87668C52.7601 8.07592 54.1891 8.56744 55.4799 9.32252C56.4649 9.84884 57.2252 10.7121 57.6206 11.7529C58.016 12.7937 58.0197 13.9417 57.6309 14.9849C56.9932 17.3644 55.4476 19.4022 53.3231 20.6646C51.5704 21.7941 49.6508 22.6435 47.6341 23.1819C47.3673 23.2566 47.0929 23.301 46.8161 23.3144C46.2277 23.3451 46.0792 23.1473 46.2933 22.5924C46.418 22.3004 46.5631 22.0175 46.7274 21.7456C47.2049 20.9835 47.548 20.1458 47.7421 19.2687C47.8925 18.7628 47.9272 18.2298 47.8434 17.7089C47.7597 17.1879 47.5598 16.6923 47.2584 16.2584C46.9569 15.8244 46.5616 15.4632 46.1015 15.2013C45.6414 14.9394 45.1281 14.7835 44.5995 14.7449C42.762 14.4417 40.8868 14.4417 39.0493 14.7449C34.2277 15.4546 29.5463 16.9062 25.1729 19.0479C22.2661 20.3611 19.5373 22.0339 17.0511 24.0267L16.8428 24.1899C16.8929 23.8731 16.9335 23.6273 16.972 23.3796C17.018 23.18 17.0108 22.9719 16.9512 22.7759C16.8916 22.5799 16.7817 22.4028 16.6323 22.262C16.4828 22.1212 16.2991 22.0217 16.0992 21.9732C15.8993 21.9247 15.6901 21.929 15.4924 21.9856C15.0711 22.0793 14.6725 22.2548 14.3194 22.5022C11.4846 24.252 8.91922 26.4011 6.70314 28.8827C5.29932 30.4625 4.33967 32.3834 3.92129 34.451C3.65234 35.9131 3.7558 37.4191 4.2222 38.8312C4.68861 40.2433 5.50309 41.5165 6.59125 42.5347C8.45086 44.3991 10.8068 45.6961 13.3819 46.2731C15.0944 46.6888 16.8353 46.9783 18.5906 47.1391C20.7138 47.3341 22.8477 47.3874 24.978 47.2984C26.1568 47.2485 28.9309 47.1679 28.9309 47.1679C28.9309 47.1679 27.6885 47.3887 27.0905 47.4809C24.5388 47.8138 21.9686 47.9869 19.3951 47.9993C17.3456 48.0116 15.2982 47.864 13.2719 47.5577V47.5577ZM22.4354 46.6744C20.3496 46.6511 18.2677 46.4869 16.2042 46.1829C14.9867 45.9955 13.7833 45.7261 12.6025 45.3764C11.0506 44.9837 9.59877 44.2714 8.3407 43.2855C7.08263 42.2995 6.04632 41.0619 5.29871 39.6526C4.68007 38.4314 4.37758 37.0758 4.41868 35.7087C4.45978 34.3417 4.84317 33.0065 5.53407 31.8243C6.6095 29.8383 8.06739 28.0825 9.82451 26.6573C11.3218 25.3836 12.8985 24.2055 14.5452 23.13C14.8501 22.9122 15.1909 22.7491 15.5522 22.6481C16.1116 22.5118 16.4377 22.8036 16.3084 23.3547C16.1792 23.9058 15.992 24.4683 15.8319 25.0252C15.7633 25.1926 15.6531 25.3399 15.5117 25.4534C14.2751 26.6485 13.3027 28.0872 12.6565 29.6776C12.3189 30.4632 12.1404 31.3075 12.1313 32.1619C12.1222 33.0164 12.2826 33.8642 12.6034 34.6568C12.9243 35.4493 13.3991 36.1711 14.0008 36.7806C14.6025 37.3901 15.3192 37.8754 16.1097 38.2086C18.3514 39.2666 20.6452 40.2036 22.9409 41.1407C24.7774 41.8914 26.6217 42.6307 28.466 43.368C30.3642 44.1264 32.2664 44.8753 34.2534 45.6567C32.3706 45.9966 30.5591 46.2328 28.7418 46.4094C26.9574 46.5842 25.1652 46.6898 23.3749 46.6898C23.0585 46.6859 22.7454 46.6808 22.4354 46.6744V46.6744ZM36.0437 45.29C35.9523 45.2745 35.863 45.2487 35.7775 45.2132C32.6407 43.9741 29.5 42.7407 26.3555 41.5132C25.2925 41.0946 24.2334 40.6606 23.1762 40.2344C23.1762 40.2248 23.7781 40.2766 24.5054 40.3284C25.1883 40.3765 25.987 40.4245 26.5214 40.4245C28.4442 40.4365 30.3656 40.3178 32.2722 40.0692C34.8506 39.6887 37.4075 39.1759 39.9329 38.5331C43.7237 37.6019 47.4566 36.4806 51.1799 35.3054C53.3829 34.6084 55.6169 33.994 57.7853 33.2048C57.9487 33.1289 58.1268 33.0895 58.3071 33.0895C58.4875 33.0895 58.6656 33.1289 58.829 33.2048C58.8988 33.2274 58.9627 33.2649 59.0164 33.3147C59.07 33.3645 59.112 33.4255 59.1395 33.4932C59.1669 33.561 59.179 33.6339 59.175 33.7068C59.171 33.7797 59.151 33.8509 59.1164 33.9153C58.9467 34.3103 58.6956 34.6655 58.3795 34.9579C57.1914 36.0615 55.8777 37.023 54.4652 37.8227C49.9682 40.5406 45.1598 42.7118 40.1431 44.2896C38.8866 44.7315 37.5963 45.0718 36.2848 45.3073C36.2434 45.3138 36.2014 45.317 36.1594 45.3169C36.1202 45.3109 36.0815 45.3019 36.0437 45.29V45.29ZM48.0932 41.8223C50.024 40.9579 51.9041 39.9854 53.7244 38.9095C55.176 38.0873 56.5631 37.1572 57.874 36.1272C58.4822 35.6714 58.997 35.1037 59.3903 34.4548C59.5504 34.2439 59.637 33.9867 59.637 33.7223C59.637 33.4579 59.5504 33.2008 59.3903 32.9898C59.2097 32.751 58.9603 32.5726 58.6753 32.4783C58.3903 32.384 58.0833 32.3782 57.7949 32.4618C56.6837 32.7843 55.5957 33.1914 54.4884 33.5293C49.6365 35.004 44.8271 36.6303 39.8904 37.8208C36.0016 38.8117 32.0246 39.4214 28.0165 39.641C25.9453 39.7512 23.8682 39.6553 21.8162 39.355C21.2078 39.2589 20.6014 39.1373 19.997 38.9901C18.4718 38.65 17.0179 38.0477 15.7007 37.2102C15.0374 36.8441 14.4537 36.3506 13.9835 35.7583C13.5133 35.166 13.166 34.4867 12.9616 33.7597C12.7572 33.0328 12.6998 32.2726 12.7928 31.5235C12.8858 30.7743 13.1274 30.0509 13.5034 29.3953C13.9596 28.4095 14.5704 27.5021 15.313 26.7072C15.1939 27.5036 15.1224 28.3063 15.0988 29.1112C15.0007 30.4411 15.3632 31.7643 16.1259 32.8606C16.8886 33.9569 18.0056 34.7601 19.2909 35.1365C21.5551 35.929 23.938 36.3335 26.3381 36.3327C29.137 36.3747 31.9316 36.1003 34.6682 35.5147C38.9904 34.614 43.201 33.2465 47.2251 31.4364C51.1783 29.7498 54.8755 27.5221 58.2097 24.8178C60.5814 22.915 62.621 20.6352 64.246 18.0705C65.1935 16.6347 65.7199 14.9644 65.7662 13.2472C65.7732 12.4413 65.6043 11.6434 65.2712 10.9088C64.9382 10.1742 64.4488 9.52028 63.837 8.99226C62.63 7.94212 61.2023 7.1739 59.6585 6.74381C55.8623 5.62109 51.8906 5.20515 47.9427 5.51686C43.0003 5.8524 38.0995 6.64041 33.3024 7.87092C30.8266 8.48791 28.383 9.21883 25.9716 10.0637C21.872 11.5334 17.9092 13.3568 14.1285 15.513C13.7581 15.7222 13.3742 15.9123 12.996 16.1101C13.8302 15.3235 14.7143 14.5911 15.6429 13.9173C18.6493 11.9646 21.804 10.248 25.0784 8.78297C31.7051 5.80916 38.5938 3.45148 45.6567 1.74001C49.0549 0.906441 52.5178 0.360464 56.0085 0.107912C57.7381 -0.0201332 59.4743 -0.0342447 61.2057 0.0656698C64.1548 0.206689 67.0827 0.63761 69.9467 1.35214C71.6 1.77673 73.2052 2.36932 74.7368 3.12056C76.3746 3.88822 77.8273 4.99753 78.9964 6.37323C80.3788 8.06108 81.0888 10.1962 80.9911 12.3717C80.8176 15.208 79.9927 17.9669 78.5797 20.4361C72.4449 30.9218 50.8943 41.8281 48.1762 41.8281L48.0932 41.8223Z" fill="white"/>
</svg>
