<?xml version="1.0" standalone="no"?>
<!DOCTYPE svg PUBLIC "-//W3C//DTD SVG 20010904//EN"
 "http://www.w3.org/TR/2001/REC-SVG-20010904/DTD/svg10.dtd">
<svg version="1.0" xmlns="http://www.w3.org/2000/svg"
 width="1296.000000pt" height="1296.000000pt" viewBox="0 0 1296.000000 1296.000000"
 preserveAspectRatio="xMidYMid meet">
<metadata>
Created by potrace 1.14, written by Peter Selinger 2001-2017
</metadata>
<g transform="translate(0.000000,1296.000000) scale(0.100000,-0.100000)"
fill="#000000" stroke="none">
<path d="M9138 10315 c-1 -1 -57 -5 -123 -9 -116 -6 -151 -9 -260 -21 -27 -3
-75 -8 -105 -10 -30 -3 -71 -7 -90 -10 -19 -3 -57 -8 -85 -11 -27 -2 -66 -6
-85 -9 -19 -3 -48 -7 -65 -9 -16 -2 -52 -7 -80 -12 -27 -4 -57 -9 -65 -9 -8
-1 -35 -5 -60 -10 -25 -4 -56 -9 -70 -11 -14 -1 -25 -3 -25 -4 0 -1 -11 -3
-25 -5 -14 -1 -38 -5 -55 -8 -16 -4 -46 -9 -65 -12 -19 -3 -78 -15 -130 -26
-52 -11 -106 -22 -120 -24 -27 -5 -27 -5 -140 -30 -104 -23 -105 -23 -105 -25
0 -1 -11 -3 -25 -5 -31 -6 -50 -10 -70 -18 -16 -6 -219 -56 -260 -64 -14 -2
-32 -7 -40 -10 -8 -3 -19 -7 -25 -8 -5 -2 -37 -10 -70 -19 -33 -9 -71 -19 -85
-22 -14 -2 -36 -9 -50 -14 -14 -5 -36 -12 -50 -14 -14 -3 -88 -23 -165 -46
-77 -23 -147 -43 -155 -45 -19 -4 -69 -19 -295 -91 -99 -32 -187 -59 -196 -60
-9 -2 -29 -9 -45 -15 -16 -7 -31 -13 -34 -14 -3 -1 -32 -10 -65 -20 -33 -11
-62 -19 -65 -20 -3 0 -11 -4 -17 -8 -7 -5 -21 -10 -30 -12 -10 -2 -31 -9 -48
-14 -187 -67 -435 -156 -455 -164 -14 -5 -29 -11 -35 -13 -18 -4 -149 -55
-180 -69 -16 -7 -49 -19 -72 -27 -24 -7 -43 -16 -43 -20 0 -5 -10 -8 -23 -8
-13 0 -27 -4 -32 -9 -6 -4 -23 -13 -40 -19 -32 -11 -294 -119 -360 -148 -22
-10 -42 -18 -45 -19 -12 -4 -64 -26 -124 -55 -36 -16 -67 -30 -70 -30 -3 0
-42 -17 -88 -38 -46 -22 -112 -52 -148 -67 -116 -52 -525 -258 -532 -269 -4
-6 -8 -7 -8 -2 0 5 -6 4 -12 -1 -7 -6 -40 -25 -73 -43 -150 -82 -468 -267
-512 -297 -17 -13 -35 -23 -38 -23 -4 0 -26 -13 -50 -30 -24 -16 -48 -30 -54
-30 -6 0 -11 -4 -11 -8 0 -5 -19 -19 -41 -31 -53 -30 -244 -174 -279 -210 -8
-9 -35 -32 -60 -52 -52 -42 -110 -97 -110 -104 0 -3 15 4 33 14 18 10 68 37
112 61 44 23 85 46 90 50 6 4 39 23 75 42 274 149 509 268 526 268 8 0 14 4
14 9 0 5 10 13 22 17 12 4 79 33 147 66 69 33 173 80 231 104 58 25 113 49
123 55 10 5 91 39 180 75 89 35 170 69 179 74 10 6 23 10 30 10 7 1 31 9 53
20 22 11 43 19 47 20 4 0 19 5 35 12 15 6 30 12 33 13 18 4 87 29 95 34 6 3
15 6 20 8 6 1 91 29 190 63 99 33 186 62 195 63 8 2 20 5 25 9 8 5 74 25 110
34 6 1 46 13 90 27 116 36 429 123 515 142 8 2 71 18 140 35 131 33 152 38
185 45 11 3 29 7 40 10 45 11 302 67 325 71 14 2 36 7 50 10 14 3 36 8 50 10
14 3 61 11 105 20 125 23 149 27 168 28 9 0 17 4 17 9 0 4 4 6 9 3 5 -3 44 1
88 8 43 8 98 17 123 20 25 3 55 8 68 11 42 8 276 40 367 49 28 3 70 8 95 11
25 3 63 8 85 10 72 7 159 16 200 20 22 2 76 7 120 10 44 3 109 8 145 11 36 3
103 7 150 10 139 9 635 4 635 -6 0 -1 27 -3 60 -5 33 -1 83 -5 110 -8 28 -4
75 -9 105 -12 30 -3 69 -8 85 -11 17 -3 43 -7 59 -10 17 -2 71 -11 120 -20 50
-9 102 -18 116 -20 14 -1 52 -9 85 -18 33 -8 74 -18 90 -20 17 -3 80 -19 140
-37 61 -17 117 -32 125 -34 40 -9 156 -48 198 -67 26 -12 56 -23 67 -25 10 -2
22 -7 25 -11 3 -4 21 -15 40 -24 70 -35 169 -93 205 -121 21 -16 84 -63 108
-80 36 -26 141 -135 179 -187 80 -107 148 -279 163 -410 2 -14 4 -25 5 -25 8
0 -3 -230 -15 -285 -3 -14 -9 -49 -15 -78 -17 -92 -79 -263 -133 -367 -46 -87
-151 -257 -182 -292 -28 -33 -35 -43 -35 -47 0 -6 -119 -167 -130 -176 -3 -3
-25 -30 -49 -60 -137 -175 -403 -440 -611 -610 -30 -25 -57 -47 -60 -51 -3 -3
-32 -25 -65 -50 -64 -48 -91 -68 -109 -84 -6 -6 -69 -52 -141 -103 -71 -51
-134 -96 -140 -100 -33 -26 -247 -162 -254 -162 -5 0 -11 -4 -13 -8 -3 -8 -33
-27 -218 -135 -215 -125 -697 -367 -732 -367 -8 0 -18 -4 -24 -9 -29 -28 -750
-318 -863 -347 -9 -2 -83 -27 -166 -54 -125 -43 -204 -67 -270 -84 -5 -1 -41
-12 -80 -24 -91 -27 -411 -109 -452 -115 -17 -3 -36 -8 -41 -11 -5 -3 -23 -8
-40 -11 -18 -3 -65 -12 -105 -21 -108 -23 -108 -23 -151 -30 -22 -3 -43 -7
-46 -9 -4 -2 -29 -7 -56 -11 -27 -3 -58 -8 -69 -10 -28 -6 -156 -24 -270 -39
-364 -46 -919 -51 -1205 -10 -19 3 -51 8 -70 10 -19 3 -46 7 -60 9 -14 3 -41
7 -60 10 -45 7 -78 14 -98 20 -9 3 -28 7 -42 10 -78 15 -403 111 -425 126 -5
3 -29 12 -53 20 -23 7 -47 19 -53 27 -6 7 -16 13 -22 13 -10 0 -120 72 -147
96 -105 95 -167 172 -229 285 -33 62 -77 179 -85 230 -3 18 -9 55 -14 81 -15
76 -1 384 23 538 l5 35 -45 -50 c-50 -56 -165 -218 -165 -233 0 -6 -3 -12 -7
-14 -5 -1 -24 -34 -43 -73 -19 -38 -38 -71 -42 -73 -5 -2 -8 -8 -8 -14 0 -6
-11 -34 -24 -62 -46 -96 -69 -210 -70 -341 -1 -137 11 -243 33 -284 5 -9 9
-20 10 -26 1 -13 64 -159 71 -165 3 -3 17 -23 30 -45 40 -65 135 -168 205
-222 134 -102 437 -256 595 -302 25 -7 54 -17 65 -21 18 -8 131 -36 178 -46
10 -2 26 -5 35 -8 9 -3 35 -8 57 -12 42 -7 46 -7 85 -17 14 -3 48 -9 75 -12
28 -3 59 -8 70 -10 11 -3 45 -7 75 -10 30 -4 69 -8 85 -10 227 -27 787 -27
1035 0 19 2 62 6 95 9 129 11 181 17 205 21 14 2 48 7 75 10 28 3 84 10 125
15 41 6 93 12 115 15 22 3 51 7 65 10 32 6 77 13 121 19 19 3 59 10 89 16 30
6 73 13 95 16 22 3 47 8 55 11 8 3 27 7 43 9 32 4 50 8 142 28 39 8 82 17 95
20 14 2 32 7 40 10 8 3 26 7 40 10 14 2 75 16 135 31 61 15 119 29 130 30 11
2 62 15 112 29 51 14 103 28 115 30 13 3 38 9 56 15 18 5 36 11 40 12 4 1 12
3 17 4 26 8 421 117 430 119 6 1 33 9 60 18 28 9 79 24 115 34 36 9 70 20 75
23 6 3 15 6 20 7 6 1 30 8 55 15 25 7 48 13 53 15 4 1 9 3 12 4 3 1 8 3 13 4
4 1 47 15 96 30 49 16 94 29 100 31 6 1 18 5 26 8 38 15 311 97 323 97 4 0 21
7 37 15 16 8 32 15 35 14 3 0 52 14 108 32 56 18 107 34 113 35 11 2 205 61
284 87 19 6 40 12 45 13 6 1 69 22 142 47 72 25 134 42 137 39 3 -3 6 1 6 8 0
7 3 10 7 7 3 -4 12 -2 20 4 7 6 13 9 13 6 0 -3 33 6 73 19 130 46 201 49 273
11 90 -47 139 -168 102 -253 -23 -52 -100 -156 -162 -219 -51 -51 -248 -207
-336 -265 -13 -8 -35 -25 -50 -37 -15 -12 -30 -20 -34 -16 -3 3 -6 1 -6 -6 0
-7 -16 -19 -35 -27 -19 -8 -35 -18 -35 -23 0 -5 -11 -12 -25 -15 -14 -4 -25
-10 -25 -15 0 -5 -13 -14 -30 -21 -16 -7 -30 -16 -30 -21 0 -5 -4 -9 -10 -9
-5 0 -54 -26 -107 -58 -147 -88 -389 -222 -401 -222 -6 0 -12 -3 -14 -7 -1 -5
-34 -24 -73 -43 -38 -19 -82 -43 -97 -53 -16 -10 -28 -16 -28 -13 0 2 -42 -16
-92 -42 -51 -25 -95 -47 -98 -47 -3 -1 -34 -15 -70 -32 -42 -20 -57 -32 -43
-32 21 -1 132 24 163 36 8 3 20 7 25 9 21 5 162 57 205 76 25 10 54 23 65 27
11 5 48 21 81 35 34 14 67 26 73 26 6 0 11 5 11 10 0 6 4 10 10 10 5 0 44 16
86 35 41 19 77 35 80 35 2 0 22 11 44 25 22 14 40 23 40 19 0 -7 78 35 103 55
9 8 17 11 17 8 0 -7 187 89 445 229 112 60 468 265 497 285 14 11 29 19 33 19
4 0 30 15 58 33 46 30 72 46 152 94 11 7 27 15 35 19 8 4 17 11 20 15 5 6 99
66 158 99 15 8 29 17 32 20 10 10 131 90 136 90 6 0 62 40 88 63 11 9 25 17
32 17 7 0 14 3 16 8 5 10 66 52 77 52 5 0 11 4 13 8 2 5 26 23 53 42 28 18 52
36 55 39 3 3 32 24 65 46 33 21 68 46 77 55 36 32 48 41 48 33 0 -4 4 -3 8 2
4 6 43 37 87 70 98 73 305 234 323 252 7 7 16 13 20 13 4 0 26 18 49 39 23 21
51 45 62 53 11 8 46 37 77 64 31 27 67 58 80 69 326 283 602 570 824 855 75
98 230 332 230 350 0 4 3 10 8 12 7 3 97 175 97 187 1 3 6 15 12 26 14 26 93
220 98 243 3 9 16 51 30 92 14 41 27 82 29 90 7 35 18 77 26 100 5 14 11 39
13 55 3 17 12 64 20 105 9 41 18 98 21 125 3 28 9 73 13 100 18 115 5 408 -22
515 -72 283 -196 500 -403 705 -38 39 -79 78 -91 87 -156 130 -282 213 -451
297 -195 98 -470 206 -665 261 -77 22 -144 39 -167 44 -12 3 -41 10 -63 15
-22 5 -51 12 -65 15 -14 3 -36 8 -50 11 -14 3 -36 8 -50 11 -14 2 -36 7 -50
10 -14 3 -36 8 -50 10 -14 2 -36 7 -50 10 -14 3 -36 7 -50 9 -14 2 -41 6 -60
10 -19 3 -48 8 -65 11 -16 2 -39 6 -51 8 -12 2 -45 7 -75 11 -30 3 -67 8 -82
11 -15 3 -47 8 -70 10 -23 2 -60 6 -82 9 -22 2 -69 7 -105 10 -35 3 -89 8
-120 11 -30 3 -86 7 -125 10 -80 6 -741 14 -747 9z"/>
<path d="M7527 9114 c-1 -1 -74 -4 -162 -8 -163 -6 -238 -11 -310 -21 -22 -3
-62 -8 -90 -11 -27 -3 -66 -7 -85 -10 -38 -6 -56 -9 -140 -18 -72 -9 -272 -39
-330 -50 -14 -3 -43 -8 -65 -11 -22 -3 -47 -7 -55 -10 -8 -2 -33 -7 -55 -10
-107 -18 -178 -32 -305 -60 -25 -6 -59 -13 -95 -20 -11 -2 -103 -24 -205 -50
-102 -25 -192 -47 -200 -49 -13 -4 -108 -29 -150 -41 -8 -2 -55 -16 -105 -30
-49 -15 -103 -30 -120 -35 -16 -4 -122 -38 -235 -76 -113 -37 -209 -69 -215
-70 -5 -2 -53 -19 -105 -38 -52 -20 -101 -36 -107 -36 -7 0 -13 -4 -13 -8 0
-5 -6 -9 -12 -9 -15 -1 -119 -40 -191 -72 -26 -11 -49 -20 -52 -21 -3 0 -20
-6 -38 -14 -17 -7 -61 -25 -97 -40 -36 -15 -85 -37 -110 -48 -25 -12 -49 -23
-55 -24 -11 -2 -114 -49 -265 -122 -52 -25 -101 -46 -109 -48 -8 -1 -17 -6
-20 -11 -5 -7 -77 -45 -91 -48 -7 -1 -126 -63 -185 -95 -27 -15 -97 -52 -155
-82 -145 -77 -204 -110 -466 -263 -156 -91 -567 -361 -572 -376 -2 -5 -8 -9
-13 -9 -6 0 -38 -21 -73 -47 -35 -27 -76 -57 -92 -68 -26 -19 -161 -122 -249
-189 -22 -17 -42 -33 -45 -36 -3 -3 -27 -24 -55 -45 -57 -46 -61 -49 -215
-181 -227 -194 -523 -511 -710 -759 -25 -33 -53 -69 -62 -79 -10 -11 -18 -23
-18 -27 0 -4 -6 -14 -13 -21 -35 -35 -199 -293 -236 -373 -59 -124 -57 -120
-90 -215 -25 -73 -37 -123 -77 -315 -3 -16 -7 -109 -9 -205 -2 -156 4 -231 29
-350 1 -8 6 -33 10 -55 4 -22 11 -49 16 -60 4 -11 16 -45 25 -75 22 -71 84
-210 118 -265 47 -75 122 -191 126 -195 3 -3 33 -36 66 -75 220 -256 500 -444
920 -615 31 -13 139 -52 150 -54 6 -2 42 -12 80 -24 85 -26 262 -73 290 -77
11 -2 31 -6 45 -9 35 -8 131 -27 155 -30 11 -2 34 -6 50 -9 17 -4 50 -9 75
-12 25 -3 59 -7 75 -10 17 -3 51 -7 78 -10 26 -3 66 -7 90 -10 197 -23 338
-29 697 -29 364 0 563 7 790 30 36 3 81 7 100 9 19 1 63 6 98 10 35 4 82 8
105 10 23 2 42 5 42 6 0 1 18 3 40 4 22 2 40 4 40 5 0 1 9 3 20 4 20 3 107 17
135 22 8 2 35 6 60 9 24 3 47 9 50 11 5 6 -250 -1 -525 -12 -130 -6 -673 -6
-752 -1 -23 1 -45 5 -48 9 -3 3 -21 2 -40 -2 -19 -4 -37 -5 -40 -1 -4 3 -21 6
-38 7 -56 2 -211 15 -240 20 -15 2 -51 7 -80 9 -82 8 -214 28 -279 41 -15 3
-39 7 -55 9 -15 2 -62 11 -103 20 -41 9 -84 18 -95 20 -36 6 -80 16 -97 21 -9
3 -27 7 -40 10 -32 7 -52 12 -58 14 -3 1 -8 2 -12 1 -4 0 -25 6 -47 14 -23 8
-43 14 -46 15 -3 0 -6 0 -7 0 -2 0 -34 12 -73 25 -38 14 -78 27 -87 30 -80 19
-439 221 -538 301 -128 104 -277 244 -340 320 -56 68 -90 113 -90 123 0 5 -4
11 -9 13 -25 10 -162 296 -177 371 -2 10 -6 27 -9 37 -6 19 -13 48 -21 90 -2
14 -7 31 -9 37 -24 69 -23 362 1 493 12 64 65 254 74 265 4 5 8 12 8 15 1 3 5
18 11 33 6 15 14 39 17 52 3 14 11 25 17 25 6 0 7 3 4 6 -6 6 5 32 34 84 5 8
15 29 23 47 8 17 30 56 50 87 20 31 36 58 36 61 0 3 6 13 14 22 8 10 44 57 79
104 72 94 68 91 248 275 121 124 259 255 344 326 22 18 42 36 45 39 6 8 245
196 284 224 16 11 34 26 41 33 8 6 16 12 19 12 5 0 179 120 203 140 7 5 15 10
17 10 3 0 32 17 63 37 77 50 119 72 168 90 49 18 130 27 153 17 9 -4 19 -8 22
-9 30 -9 60 -33 84 -67 34 -48 41 -114 21 -210 -6 -32 -8 -58 -5 -58 4 0 25
14 46 30 22 17 48 37 59 46 11 8 34 26 50 40 17 13 51 38 78 55 26 17 47 35
47 40 0 5 7 9 15 9 8 0 15 5 15 10 0 6 5 10 10 10 6 0 35 18 65 40 30 22 59
40 65 40 5 0 10 5 10 10 0 6 6 10 14 10 8 0 16 3 18 8 10 25 410 257 630 365
162 80 387 187 393 187 2 0 41 17 87 38 46 22 148 65 228 96 80 31 154 61 165
66 42 19 422 147 457 154 13 2 43 12 67 20 24 9 53 18 65 21 12 2 73 18 136
35 63 17 124 32 135 35 11 2 20 4 20 5 0 1 11 4 24 6 14 2 54 12 90 20 37 9
79 18 96 20 16 2 37 7 47 10 16 5 34 9 88 19 14 3 36 7 50 10 44 9 264 44 310
50 25 3 52 8 60 10 82 23 541 24 700 0 19 -3 55 -7 80 -10 248 -31 434 -169
508 -380 51 -146 43 -274 -30 -490 -22 -64 -97 -221 -127 -264 -30 -45 -70
-135 -76 -173 -5 -32 -3 -39 20 -54 21 -14 40 -16 106 -11 44 4 85 10 92 14 7
4 18 9 25 10 6 2 18 4 25 6 6 2 32 9 57 16 25 6 53 16 62 21 10 6 23 10 30 10
16 0 186 64 195 73 3 4 12 7 19 7 12 0 267 122 329 158 93 53 131 76 135 81 3
4 16 12 30 19 14 7 37 20 51 30 56 37 84 57 89 62 3 3 23 18 45 34 94 68 325
328 325 365 0 6 4 11 9 11 5 0 13 10 17 23 4 12 10 24 13 27 14 10 99 198 120
265 13 39 25 77 28 85 4 8 7 18 8 23 2 4 4 9 5 12 1 3 3 8 4 13 5 18 17 69 22
92 11 48 11 192 -1 253 -32 171 -93 285 -220 410 -39 38 -125 102 -135 100 -3
0 -16 7 -30 17 -35 25 -182 97 -255 124 -63 24 -224 73 -266 81 -13 3 -35 7
-49 9 -14 3 -43 8 -65 11 -22 3 -53 8 -70 11 -50 8 -152 20 -250 29 -86 7
-384 22 -388 19z"/>
<path d="M2475 6693 c-33 -8 -89 -36 -97 -47 -4 -6 -8 -8 -8 -4 0 4 -29 -13
-65 -37 -36 -25 -70 -45 -75 -45 -6 0 -10 -5 -10 -10 0 -6 -8 -14 -17 -17 -10
-4 -37 -20 -59 -37 -23 -17 -52 -38 -64 -46 -35 -23 -103 -72 -115 -82 -5 -5
-45 -35 -87 -67 -42 -32 -90 -69 -106 -82 -15 -13 -44 -35 -62 -49 -18 -14
-43 -34 -54 -45 -12 -11 -34 -31 -51 -43 -78 -60 -139 -116 -245 -223 -149
-151 -186 -192 -265 -303 -11 -16 -24 -33 -30 -40 -18 -20 -85 -126 -84 -132
0 -4 -3 -10 -8 -13 -8 -6 -17 -20 -76 -121 -52 -89 -127 -261 -132 -300 0 -3
-3 -9 -6 -15 -4 -5 -10 -23 -13 -40 -3 -16 -9 -41 -12 -55 -3 -14 -7 -38 -9
-55 -2 -16 -7 -54 -11 -84 -25 -197 19 -489 97 -643 11 -21 17 -38 13 -38 -4
0 -2 -6 4 -12 5 -7 25 -40 42 -73 18 -33 39 -67 46 -76 8 -8 14 -21 14 -27 0
-7 5 -12 10 -12 6 0 10 -7 10 -15 0 -8 5 -15 10 -15 6 0 10 -6 10 -14 0 -8 3
-16 8 -18 4 -1 23 -23 42 -48 85 -110 219 -244 315 -315 22 -17 42 -32 45 -35
38 -38 249 -159 360 -205 36 -15 74 -31 85 -36 72 -30 495 -143 573 -153 21
-3 37 -5 37 -6 0 -4 128 -25 205 -35 25 -3 52 -7 60 -10 8 -2 44 -7 80 -10 36
-3 79 -8 95 -10 47 -7 188 -19 365 -31 227 -16 924 -9 1135 11 28 3 79 7 115
10 36 2 85 7 110 9 53 6 122 13 203 22 32 3 68 7 80 10 12 2 47 6 77 9 30 3
66 7 80 10 14 3 45 8 70 11 25 3 56 7 70 10 14 2 43 7 65 9 22 3 65 10 95 15
83 16 93 17 115 19 15 2 9 7 -20 21 -38 18 -539 218 -560 224 -5 2 -21 8 -35
13 -117 49 -308 125 -321 128 -9 2 -36 12 -60 23 -24 11 -80 34 -124 52 -44
17 -109 44 -145 58 -36 15 -67 27 -70 28 -3 0 -16 5 -30 11 -14 6 -50 21 -80
33 -30 12 -66 27 -80 33 -14 5 -30 11 -36 12 -5 2 -30 12 -54 24 -24 11 -47
21 -51 21 -3 0 -28 10 -55 22 -27 12 -51 23 -54 23 -3 1 -18 7 -35 14 -16 7
-46 19 -65 26 -19 7 -96 39 -170 70 -74 31 -145 59 -157 62 -13 3 -23 9 -23
14 0 5 -11 9 -25 9 -14 0 -25 5 -25 10 0 6 -6 10 -14 10 -8 0 -65 23 -127 50
-62 28 -119 50 -126 50 -7 0 -13 5 -13 10 0 6 -6 10 -12 10 -7 0 -35 11 -63
24 -27 14 -53 22 -57 20 -5 -3 -8 0 -8 5 0 6 -4 11 -9 11 -11 0 -185 79 -256
117 -169 89 -321 237 -419 406 -27 48 -84 177 -91 207 -4 19 -25 108 -31 135
-11 43 -12 249 -3 303 6 31 12 71 15 87 6 36 41 147 62 195 9 19 16 37 17 40
4 25 111 217 170 305 79 118 116 164 236 290 62 65 79 91 92 135 9 30 17 60
18 65 0 6 5 17 10 26 4 9 10 27 12 40 3 13 10 44 17 69 17 62 15 106 -5 126
-17 17 -84 27 -120 17z"/>
<path d="M9296 5023 c-2 -2 -14 -6 -26 -8 -13 -2 -55 -17 -94 -32 -39 -15 -75
-28 -81 -29 -5 -1 -36 -12 -67 -23 -32 -11 -58 -17 -58 -14 0 3 -6 1 -12 -4
-11 -8 -44 -20 -78 -27 -3 -1 -41 -13 -85 -28 -44 -14 -107 -34 -140 -44 -33
-10 -62 -18 -65 -19 -3 -1 -18 -5 -35 -10 -16 -4 -34 -10 -40 -14 -5 -3 -14
-6 -20 -8 -30 -6 -61 -15 -170 -49 -66 -20 -127 -39 -135 -42 -8 -3 -19 -6
-25 -7 -5 -2 -40 -13 -78 -25 -37 -12 -73 -23 -80 -24 -6 -2 -19 -6 -27 -10
-19 -8 -468 -145 -496 -151 -12 -3 -40 -11 -63 -19 -22 -9 -41 -13 -41 -9 0 3
-6 1 -12 -5 -7 -5 -29 -13 -48 -17 -32 -6 -81 -20 -120 -33 -8 -3 -19 -6 -25
-8 -5 -1 -62 -16 -125 -34 -63 -18 -119 -33 -125 -35 -5 -1 -17 -5 -25 -8 -12
-5 -574 -150 -632 -163 -10 -2 -28 -6 -40 -9 -13 -3 -34 -8 -48 -10 -14 -2
-43 -9 -65 -15 -22 -6 -51 -13 -64 -16 -12 -2 -51 -11 -85 -19 -33 -8 -74 -16
-91 -19 -16 -3 -43 -9 -60 -12 -16 -4 -39 -8 -50 -10 -11 -1 -20 -3 -20 -4 0
-2 -18 -6 -65 -14 -19 -3 -45 -8 -56 -10 -12 -2 -39 -7 -60 -10 -22 -4 -61
-11 -89 -16 -27 -5 -66 -12 -85 -14 -40 -6 -84 -14 -120 -22 -14 -3 -43 -8
-65 -10 -22 -2 -56 -6 -75 -9 -19 -3 -55 -7 -80 -9 -25 -3 -74 -8 -110 -12
-346 -35 -776 -38 -1134 -8 -34 3 -67 7 -74 9 -7 3 -10 1 -7 -4 3 -5 22 -15
42 -22 20 -6 57 -21 82 -32 25 -12 49 -20 54 -19 4 1 7 -3 7 -8 0 -6 6 -10 13
-10 11 0 132 -45 202 -75 17 -7 71 -29 120 -48 178 -70 470 -184 490 -192 11
-4 25 -9 30 -10 6 -2 32 -12 57 -24 26 -11 50 -21 53 -21 4 0 21 -6 38 -14 42
-18 373 -149 562 -221 83 -32 154 -62 160 -66 5 -5 16 -9 25 -9 9 0 34 -9 56
-19 36 -18 55 -19 144 -10 8 0 33 6 55 11 22 6 51 12 65 14 14 3 33 7 42 10
10 3 29 7 43 10 14 2 46 11 70 19 24 9 47 15 52 14 4 -1 17 1 28 5 76 29 100
38 100 35 0 -1 59 17 130 41 72 25 132 45 135 45 34 9 67 19 75 24 6 3 12 6
15 7 3 0 12 3 20 6 99 37 130 46 130 40 0 -4 4 -2 8 3 4 6 32 19 62 29 30 10
107 39 170 63 111 42 126 48 180 71 14 6 70 30 125 53 55 23 125 53 155 67 30
14 60 27 65 28 11 2 202 91 225 105 8 5 26 14 40 20 31 13 275 136 352 177 82
44 230 125 253 139 11 7 27 16 35 20 8 4 48 26 88 50 40 24 77 43 81 43 5 0
11 3 13 8 2 4 37 27 78 51 41 25 101 62 132 83 31 21 61 38 67 38 5 0 11 4 13
8 2 5 26 23 53 42 28 18 52 36 55 39 3 3 25 22 50 40 50 38 48 37 172 146 128
113 195 224 167 277 -12 24 -46 52 -64 54 -5 0 -12 2 -15 4 -8 4 -80 6 -84 3z"/>
</g>
</svg>
