<svg xmlns="http://www.w3.org/2000/svg" xmlns:xlink="http://www.w3.org/1999/xlink" width="1080" zoomAndPan="magnify" viewBox="0 0 810 809.999993" height="1080" preserveAspectRatio="xMidYMid meet" version="1.0"><defs><filter x="0%" y="0%" width="100%" height="100%" id="bdd59dafbf"><feColorMatrix values="0 0 0 0 1 0 0 0 0 1 0 0 0 0 1 0 0 0 1 0" color-interpolation-filters="sRGB"/></filter><g/><clipPath id="3ff5d51c95"><path d="M 345.515625 454.40625 L 431.765625 454.40625 L 431.765625 505.40625 L 345.515625 505.40625 Z M 345.515625 454.40625 " clip-rule="nonzero"/></clipPath><mask id="8250eaf4e0"><g filter="url(#bdd59dafbf)"><rect x="-81" width="972" fill="#000000" y="-80.999999" height="971.999992" fill-opacity="0.13"/></g></mask><clipPath id="f402661a22"><rect x="0" width="628" y="0" height="94"/></clipPath></defs><rect x="-81" width="972" fill="#ffffff" y="-80.999999" height="971.999992" fill-opacity="1"/><rect x="-81" width="972" fill="#6657ec" y="-80.999999" height="971.999992" fill-opacity="1"/><g clip-path="url(#3ff5d51c95)"><path fill="#ffffff" d="M 359.648438 504.933594 C 345.339844 502.691406 343.523438 492.886719 347.089844 486.714844 C 348.746094 484.125 350.722656 481.75 352.976562 479.648438 C 356.90625 476.183594 361.246094 473.210938 365.902344 470.796875 C 374.003906 466.441406 382.878906 463.679688 392.035156 462.664062 C 394.71875 462.320312 397.441406 462.359375 400.113281 462.777344 C 401.695312 462.988281 403.214844 463.511719 404.589844 464.3125 C 405.640625 464.871094 406.449219 465.789062 406.871094 466.894531 C 407.289062 468 407.292969 469.21875 406.878906 470.328125 C 406.203125 472.855469 404.554688 475.023438 402.292969 476.363281 C 400.425781 477.5625 398.382812 478.464844 396.234375 479.039062 C 395.953125 479.117188 395.660156 479.164062 395.363281 479.179688 C 394.738281 479.210938 394.582031 479 394.808594 478.410156 C 394.941406 478.101562 395.09375 477.800781 395.269531 477.511719 C 395.777344 476.703125 396.144531 475.8125 396.351562 474.878906 C 396.511719 474.34375 396.546875 473.777344 396.457031 473.222656 C 396.371094 472.667969 396.15625 472.144531 395.835938 471.683594 C 395.515625 471.222656 395.09375 470.835938 394.605469 470.558594 C 394.113281 470.28125 393.566406 470.113281 393.003906 470.074219 C 391.046875 469.75 389.050781 469.75 387.09375 470.074219 C 381.960938 470.828125 376.976562 472.371094 372.320312 474.644531 C 369.222656 476.039062 366.320312 477.816406 363.671875 479.933594 L 363.449219 480.109375 C 363.503906 479.773438 363.546875 479.511719 363.585938 479.246094 C 363.636719 479.035156 363.628906 478.8125 363.566406 478.605469 C 363.5 478.398438 363.382812 478.210938 363.226562 478.058594 C 363.066406 477.910156 362.871094 477.804688 362.65625 477.753906 C 362.445312 477.703125 362.222656 477.707031 362.011719 477.765625 C 361.5625 477.867188 361.140625 478.050781 360.761719 478.316406 C 357.746094 480.175781 355.011719 482.457031 352.652344 485.09375 C 351.160156 486.773438 350.136719 488.8125 349.691406 491.007812 C 349.40625 492.5625 349.515625 494.164062 350.011719 495.664062 C 350.507812 497.164062 351.375 498.515625 352.535156 499.597656 C 354.515625 501.578125 357.023438 502.957031 359.765625 503.570312 C 361.589844 504.011719 363.441406 504.316406 365.3125 504.488281 C 367.570312 504.695312 369.84375 504.753906 372.113281 504.660156 C 373.367188 504.605469 376.320312 504.519531 376.320312 504.519531 C 376.320312 504.519531 375 504.753906 374.359375 504.851562 C 371.644531 505.207031 368.90625 505.390625 366.167969 505.402344 C 363.984375 505.417969 361.804688 505.257812 359.648438 504.933594 Z M 369.40625 503.996094 C 367.183594 503.972656 364.96875 503.796875 362.769531 503.472656 C 361.472656 503.273438 360.191406 502.988281 358.933594 502.617188 C 357.28125 502.199219 355.734375 501.441406 354.398438 500.394531 C 353.058594 499.347656 351.953125 498.03125 351.15625 496.535156 C 350.5 495.238281 350.175781 493.796875 350.21875 492.34375 C 350.265625 490.894531 350.671875 489.476562 351.410156 488.21875 C 352.554688 486.109375 354.105469 484.242188 355.976562 482.730469 C 357.570312 481.375 359.25 480.125 361.003906 478.980469 C 361.328125 478.75 361.691406 478.578125 362.074219 478.46875 C 362.671875 478.324219 363.019531 478.636719 362.878906 479.222656 C 362.742188 479.804688 362.542969 480.402344 362.375 480.996094 C 362.300781 481.171875 362.183594 481.328125 362.03125 481.449219 C 360.714844 482.71875 359.679688 484.25 358.992188 485.9375 C 358.632812 486.773438 358.441406 487.667969 358.433594 488.578125 C 358.421875 489.484375 358.59375 490.386719 358.9375 491.226562 C 359.277344 492.070312 359.78125 492.835938 360.421875 493.484375 C 361.0625 494.132812 361.828125 494.648438 362.667969 495 C 365.054688 496.125 367.5 497.121094 369.941406 498.117188 C 371.898438 498.914062 373.863281 499.699219 375.824219 500.484375 C 377.847656 501.289062 379.871094 502.082031 381.988281 502.914062 C 379.984375 503.273438 378.054688 503.527344 376.121094 503.714844 C 374.21875 503.898438 372.3125 504.011719 370.40625 504.011719 C 370.066406 504.007812 369.734375 504.003906 369.40625 503.996094 Z M 379.414062 502.859375 L 376.71875 501.460938 L 373.25 499.800781 L 366.371094 496.644531 C 370.757812 497.75 371.738281 497.507812 371.738281 497.507812 L 373.699219 497.507812 C 375.746094 497.519531 377.847656 497.242188 379.878906 496.976562 C 382.625 496.574219 385.347656 496.027344 388.035156 495.347656 C 392.070312 494.355469 396.046875 493.164062 400.011719 491.917969 C 402.355469 491.175781 404.734375 490.523438 407.042969 489.6875 C 407.21875 489.605469 407.410156 489.5625 407.601562 489.5625 C 407.792969 489.5625 407.980469 489.605469 408.15625 489.6875 C 408.230469 489.710938 408.296875 489.75 408.355469 489.800781 C 408.414062 489.855469 408.457031 489.921875 408.488281 489.992188 C 408.515625 490.0625 408.527344 490.140625 408.523438 490.21875 C 408.519531 490.296875 408.5 490.371094 408.460938 490.441406 C 408.28125 490.859375 408.015625 491.238281 407.675781 491.546875 C 406.414062 492.71875 405.011719 493.742188 403.507812 494.589844 C 398.722656 497.480469 393.601562 499.785156 388.257812 501.460938 C 386.921875 501.929688 385.546875 502.292969 384.152344 502.542969 C 384.105469 502.550781 382.03125 502.914062 381.988281 502.914062 C 381.945312 502.90625 379.414062 502.859375 379.414062 502.859375 Z M 396.726562 498.839844 C 398.78125 497.921875 400.78125 496.890625 402.722656 495.746094 C 404.265625 494.871094 405.742188 493.882812 407.140625 492.789062 C 407.785156 492.304688 408.335938 491.703125 408.753906 491.011719 C 408.925781 490.789062 409.015625 490.515625 409.015625 490.234375 C 409.015625 489.953125 408.925781 489.679688 408.753906 489.457031 C 408.5625 489.203125 408.296875 489.015625 407.992188 488.914062 C 407.6875 488.8125 407.363281 488.808594 407.054688 488.894531 C 405.871094 489.238281 404.714844 489.671875 403.535156 490.03125 C 398.367188 491.597656 393.246094 493.324219 387.992188 494.589844 C 383.851562 495.640625 379.613281 496.289062 375.347656 496.523438 C 373.140625 496.640625 370.929688 496.539062 368.746094 496.21875 C 368.097656 496.117188 367.453125 495.988281 366.808594 495.832031 C 365.183594 495.46875 363.636719 494.832031 362.234375 493.941406 C 361.527344 493.550781 360.90625 493.027344 360.40625 492.398438 C 359.90625 491.769531 359.535156 491.046875 359.316406 490.273438 C 359.097656 489.503906 359.039062 488.695312 359.136719 487.898438 C 359.238281 487.101562 359.492188 486.335938 359.894531 485.636719 C 360.378906 484.589844 361.03125 483.628906 361.820312 482.78125 C 361.695312 483.628906 361.617188 484.480469 361.59375 485.335938 C 361.488281 486.75 361.875 488.15625 362.6875 489.320312 C 363.5 490.484375 364.6875 491.335938 366.054688 491.738281 C 368.46875 492.578125 371.003906 493.007812 373.558594 493.007812 C 376.539062 493.054688 379.515625 492.761719 382.429688 492.140625 C 387.03125 491.183594 391.515625 489.730469 395.800781 487.808594 C 400.007812 486.015625 403.945312 483.648438 407.496094 480.773438 C 410.023438 478.753906 412.195312 476.332031 413.925781 473.605469 C 414.933594 472.082031 415.492188 470.308594 415.542969 468.484375 C 415.550781 467.625 415.371094 466.777344 415.015625 466 C 414.660156 465.21875 414.140625 464.523438 413.488281 463.960938 C 412.203125 462.847656 410.683594 462.03125 409.039062 461.574219 C 404.996094 460.382812 400.769531 459.9375 396.5625 460.269531 C 391.300781 460.625 386.082031 461.464844 380.976562 462.769531 C 378.339844 463.425781 375.738281 464.203125 373.167969 465.101562 C 368.804688 466.664062 364.585938 468.597656 360.558594 470.890625 C 360.164062 471.113281 359.757812 471.3125 359.355469 471.523438 C 360.242188 470.6875 361.183594 469.910156 362.171875 469.195312 C 365.375 467.121094 368.730469 465.296875 372.21875 463.738281 C 379.273438 460.582031 386.609375 458.074219 394.128906 456.257812 C 397.75 455.371094 401.4375 454.792969 405.152344 454.523438 C 406.996094 454.386719 408.84375 454.371094 410.6875 454.480469 C 413.828125 454.628906 416.945312 455.085938 419.992188 455.84375 C 421.753906 456.296875 423.464844 456.925781 425.09375 457.722656 C 426.839844 458.539062 428.386719 459.71875 429.628906 461.179688 C 431.101562 462.972656 431.859375 465.242188 431.753906 467.550781 C 431.570312 470.566406 430.691406 473.496094 429.1875 476.121094 C 422.652344 487.261719 399.707031 498.847656 396.8125 498.847656 Z M 396.726562 498.839844 " fill-opacity="1" fill-rule="nonzero"/></g><g fill="#ffffff" fill-opacity="1"><g transform="translate(58.127348, 378.215274)"><g><path d="M 54.984375 -36.859375 L 42.84375 -36.859375 C 42.382812 -39.984375 41.054688 -42.4375 38.859375 -44.21875 C 36.660156 -46 33.921875 -46.890625 30.640625 -46.890625 C 26.242188 -46.890625 22.71875 -45.28125 20.0625 -42.0625 C 17.414062 -38.84375 16.09375 -34.273438 16.09375 -28.359375 C 16.09375 -22.304688 17.425781 -17.703125 20.09375 -14.546875 C 22.757812 -11.398438 26.242188 -9.828125 30.546875 -9.828125 C 33.742188 -9.828125 36.445312 -10.660156 38.65625 -12.328125 C 40.875 -14.003906 42.269531 -16.359375 42.84375 -19.390625 L 54.984375 -19.328125 C 54.554688 -15.859375 53.316406 -12.59375 51.265625 -9.53125 C 49.222656 -6.46875 46.441406 -3.984375 42.921875 -2.078125 C 39.398438 -0.171875 35.210938 0.78125 30.359375 0.78125 C 25.296875 0.78125 20.773438 -0.363281 16.796875 -2.65625 C 12.816406 -4.945312 9.675781 -8.257812 7.375 -12.59375 C 5.082031 -16.9375 3.9375 -22.191406 3.9375 -28.359375 C 3.9375 -34.546875 5.097656 -39.804688 7.421875 -44.140625 C 9.742188 -48.484375 12.898438 -51.796875 16.890625 -54.078125 C 20.878906 -56.359375 25.367188 -57.5 30.359375 -57.5 C 34.734375 -57.5 38.675781 -56.691406 42.1875 -55.078125 C 45.707031 -53.460938 48.585938 -51.117188 50.828125 -48.046875 C 53.078125 -44.972656 54.460938 -41.242188 54.984375 -36.859375 Z M 54.984375 -36.859375 "/></g></g></g><g fill="#ffffff" fill-opacity="1"><g transform="translate(116.793433, 378.215274)"><g><path d="M 23.9375 0.828125 C 19.632812 0.828125 15.914062 -0.0859375 12.78125 -1.921875 C 9.65625 -3.765625 7.238281 -6.332031 5.53125 -9.625 C 3.832031 -12.914062 2.984375 -16.742188 2.984375 -21.109375 C 2.984375 -25.503906 3.832031 -29.347656 5.53125 -32.640625 C 7.238281 -35.941406 9.65625 -38.507812 12.78125 -40.34375 C 15.914062 -42.175781 19.632812 -43.09375 23.9375 -43.09375 C 28.238281 -43.09375 31.953125 -42.175781 35.078125 -40.34375 C 38.210938 -38.507812 40.628906 -35.941406 42.328125 -32.640625 C 44.023438 -29.347656 44.875 -25.503906 44.875 -21.109375 C 44.875 -16.742188 44.023438 -12.914062 42.328125 -9.625 C 40.628906 -6.332031 38.210938 -3.765625 35.078125 -1.921875 C 31.953125 -0.0859375 28.238281 0.828125 23.9375 0.828125 Z M 23.984375 -8.3125 C 26.898438 -8.3125 29.109375 -9.53125 30.609375 -11.96875 C 32.117188 -14.40625 32.875 -17.476562 32.875 -21.1875 C 32.875 -24.894531 32.117188 -27.972656 30.609375 -30.421875 C 29.109375 -32.867188 26.898438 -34.09375 23.984375 -34.09375 C 21.015625 -34.09375 18.769531 -32.867188 17.25 -30.421875 C 15.738281 -27.972656 14.984375 -24.894531 14.984375 -21.1875 C 14.984375 -17.476562 15.738281 -14.40625 17.25 -11.96875 C 18.769531 -9.53125 21.015625 -8.3125 23.984375 -8.3125 Z M 23.984375 -8.3125 "/></g></g></g><g fill="#ffffff" fill-opacity="1"><g transform="translate(164.656982, 378.215274)"><g><path d="M 20.390625 0.6875 C 17.148438 0.6875 14.226562 -0.144531 11.625 -1.8125 C 9.03125 -3.488281 6.960938 -5.953125 5.421875 -9.203125 C 3.890625 -12.460938 3.125 -16.46875 3.125 -21.21875 C 3.125 -26.09375 3.910156 -30.148438 5.484375 -33.390625 C 7.066406 -36.628906 9.164062 -39.054688 11.78125 -40.671875 C 14.394531 -42.285156 17.253906 -43.09375 20.359375 -43.09375 C 22.742188 -43.09375 24.734375 -42.691406 26.328125 -41.890625 C 27.921875 -41.085938 29.210938 -40.09375 30.203125 -38.90625 C 31.191406 -37.726562 31.945312 -36.5625 32.46875 -35.40625 L 32.828125 -35.40625 L 32.828125 -56.734375 L 44.59375 -56.734375 L 44.59375 0 L 32.96875 0 L 32.96875 -6.8125 L 32.46875 -6.8125 C 31.925781 -5.632812 31.144531 -4.46875 30.125 -3.3125 C 29.113281 -2.15625 27.8125 -1.195312 26.21875 -0.4375 C 24.625 0.3125 22.679688 0.6875 20.390625 0.6875 Z M 24.125 -8.703125 C 26.96875 -8.703125 29.171875 -9.847656 30.734375 -12.140625 C 32.296875 -14.441406 33.078125 -17.484375 33.078125 -21.265625 C 33.078125 -25.078125 32.300781 -28.101562 30.75 -30.34375 C 29.195312 -32.582031 26.988281 -33.703125 24.125 -33.703125 C 21.207031 -33.703125 18.984375 -32.550781 17.453125 -30.25 C 15.929688 -27.957031 15.171875 -24.960938 15.171875 -21.265625 C 15.171875 -17.554688 15.9375 -14.535156 17.46875 -12.203125 C 19.007812 -9.867188 21.226562 -8.703125 24.125 -8.703125 Z M 24.125 -8.703125 "/></g></g></g><g fill="#ffffff" fill-opacity="1"><g transform="translate(214.210161, 378.215274)"><g><path d="M 24.09375 0.828125 C 19.738281 0.828125 15.984375 -0.0625 12.828125 -1.84375 C 9.671875 -3.625 7.238281 -6.148438 5.53125 -9.421875 C 3.832031 -12.703125 2.984375 -16.585938 2.984375 -21.078125 C 2.984375 -25.453125 3.832031 -29.289062 5.53125 -32.59375 C 7.238281 -35.90625 9.632812 -38.484375 12.71875 -40.328125 C 15.8125 -42.171875 19.445312 -43.09375 23.625 -43.09375 C 27.375 -43.09375 30.757812 -42.296875 33.78125 -40.703125 C 36.800781 -39.117188 39.195312 -36.722656 40.96875 -33.515625 C 42.738281 -30.316406 43.625 -26.3125 43.625 -21.5 L 43.625 -18.25 L 14.65625 -18.25 L 14.65625 -18.21875 C 14.65625 -15.050781 15.519531 -12.550781 17.25 -10.71875 C 18.988281 -8.894531 21.335938 -7.984375 24.296875 -7.984375 C 26.265625 -7.984375 27.96875 -8.394531 29.40625 -9.21875 C 30.851562 -10.050781 31.875 -11.28125 32.46875 -12.90625 L 43.375 -12.1875 C 42.539062 -8.238281 40.429688 -5.082031 37.046875 -2.71875 C 33.671875 -0.351562 29.351562 0.828125 24.09375 0.828125 Z M 14.65625 -25.5625 L 32.515625 -25.5625 C 32.492188 -28.09375 31.679688 -30.179688 30.078125 -31.828125 C 28.472656 -33.472656 26.390625 -34.296875 23.828125 -34.296875 C 21.203125 -34.296875 19.046875 -33.441406 17.359375 -31.734375 C 15.679688 -30.035156 14.78125 -27.976562 14.65625 -25.5625 Z M 14.65625 -25.5625 "/></g></g></g><g fill="#ffffff" fill-opacity="1"><g transform="translate(260.827266, 378.215274)"><g/></g></g><g fill="#ffffff" fill-opacity="1"><g transform="translate(278.914584, 378.215274)"><g><path d="M 25.046875 0 L 4.9375 0 L 4.9375 -56.734375 L 25.203125 -56.734375 C 30.910156 -56.734375 35.828125 -55.597656 39.953125 -53.328125 C 44.078125 -51.066406 47.25 -47.820312 49.46875 -43.59375 C 51.6875 -39.363281 52.796875 -34.304688 52.796875 -28.421875 C 52.796875 -22.515625 51.679688 -17.4375 49.453125 -13.1875 C 47.234375 -8.9375 44.050781 -5.675781 39.90625 -3.40625 C 35.757812 -1.132812 30.804688 0 25.046875 0 Z M 16.921875 -10.28125 L 24.546875 -10.28125 C 29.878906 -10.28125 33.925781 -11.71875 36.6875 -14.59375 C 39.445312 -17.476562 40.828125 -22.085938 40.828125 -28.421875 C 40.828125 -34.710938 39.445312 -39.289062 36.6875 -42.15625 C 33.925781 -45.019531 29.882812 -46.453125 24.5625 -46.453125 L 16.921875 -46.453125 Z M 16.921875 -10.28125 "/></g></g></g><g fill="#ffffff" fill-opacity="1"><g transform="translate(335.641753, 378.215274)"><g><path d="M 4.703125 0 L 4.703125 -42.546875 L 16.515625 -42.546875 L 16.515625 0 Z M 10.640625 -48.03125 C 8.898438 -48.03125 7.398438 -48.613281 6.140625 -49.78125 C 4.890625 -50.957031 4.265625 -52.367188 4.265625 -54.015625 C 4.265625 -55.660156 4.890625 -57.0625 6.140625 -58.21875 C 7.398438 -59.382812 8.898438 -59.96875 10.640625 -59.96875 C 12.390625 -59.96875 13.890625 -59.382812 15.140625 -58.21875 C 16.398438 -57.0625 17.03125 -55.660156 17.03125 -54.015625 C 17.03125 -52.367188 16.398438 -50.957031 15.140625 -49.78125 C 13.890625 -48.613281 12.390625 -48.03125 10.640625 -48.03125 Z M 10.640625 -48.03125 "/></g></g></g><g fill="#ffffff" fill-opacity="1"><g transform="translate(356.859053, 378.215274)"><g><path d="M 4.703125 0 L 4.703125 -42.546875 L 15.953125 -42.546875 L 15.953125 -35.03125 L 16.453125 -35.03125 C 17.335938 -37.550781 18.816406 -39.523438 20.890625 -40.953125 C 22.972656 -42.378906 25.445312 -43.09375 28.3125 -43.09375 C 31.226562 -43.09375 33.707031 -42.367188 35.75 -40.921875 C 37.800781 -39.472656 39.171875 -37.507812 39.859375 -35.03125 L 40.296875 -35.03125 C 41.171875 -37.46875 42.742188 -39.421875 45.015625 -40.890625 C 47.296875 -42.359375 50 -43.09375 53.125 -43.09375 C 57.09375 -43.09375 60.316406 -41.832031 62.796875 -39.3125 C 65.285156 -36.789062 66.53125 -33.222656 66.53125 -28.609375 L 66.53125 0 L 54.765625 0 L 54.765625 -26.28125 C 54.765625 -28.644531 54.132812 -30.414062 52.875 -31.59375 C 51.625 -32.78125 50.054688 -33.375 48.171875 -33.375 C 46.023438 -33.375 44.351562 -32.691406 43.15625 -31.328125 C 41.957031 -29.960938 41.359375 -28.179688 41.359375 -25.984375 L 41.359375 0 L 29.921875 0 L 29.921875 -26.53125 C 29.921875 -28.625 29.320312 -30.285156 28.125 -31.515625 C 26.9375 -32.753906 25.375 -33.375 23.4375 -33.375 C 21.476562 -33.375 19.832031 -32.65625 18.5 -31.21875 C 17.175781 -29.789062 16.515625 -27.894531 16.515625 -25.53125 L 16.515625 0 Z M 4.703125 0 "/></g></g></g><g fill="#ffffff" fill-opacity="1"><g transform="translate(427.989618, 378.215274)"><g><path d="M 24.09375 0.828125 C 19.738281 0.828125 15.984375 -0.0625 12.828125 -1.84375 C 9.671875 -3.625 7.238281 -6.148438 5.53125 -9.421875 C 3.832031 -12.703125 2.984375 -16.585938 2.984375 -21.078125 C 2.984375 -25.453125 3.832031 -29.289062 5.53125 -32.59375 C 7.238281 -35.90625 9.632812 -38.484375 12.71875 -40.328125 C 15.8125 -42.171875 19.445312 -43.09375 23.625 -43.09375 C 27.375 -43.09375 30.757812 -42.296875 33.78125 -40.703125 C 36.800781 -39.117188 39.195312 -36.722656 40.96875 -33.515625 C 42.738281 -30.316406 43.625 -26.3125 43.625 -21.5 L 43.625 -18.25 L 14.65625 -18.25 L 14.65625 -18.21875 C 14.65625 -15.050781 15.519531 -12.550781 17.25 -10.71875 C 18.988281 -8.894531 21.335938 -7.984375 24.296875 -7.984375 C 26.265625 -7.984375 27.96875 -8.394531 29.40625 -9.21875 C 30.851562 -10.050781 31.875 -11.28125 32.46875 -12.90625 L 43.375 -12.1875 C 42.539062 -8.238281 40.429688 -5.082031 37.046875 -2.71875 C 33.671875 -0.351562 29.351562 0.828125 24.09375 0.828125 Z M 14.65625 -25.5625 L 32.515625 -25.5625 C 32.492188 -28.09375 31.679688 -30.179688 30.078125 -31.828125 C 28.472656 -33.472656 26.390625 -34.296875 23.828125 -34.296875 C 21.203125 -34.296875 19.046875 -33.441406 17.359375 -31.734375 C 15.679688 -30.035156 14.78125 -27.976562 14.65625 -25.5625 Z M 14.65625 -25.5625 "/></g></g></g><g fill="#ffffff" fill-opacity="1"><g transform="translate(474.606712, 378.215274)"><g><path d="M 16.515625 -24.59375 L 16.515625 0 L 4.703125 0 L 4.703125 -42.546875 L 15.953125 -42.546875 L 15.953125 -35.03125 L 16.453125 -35.03125 C 17.410156 -37.507812 18.992188 -39.472656 21.203125 -40.921875 C 23.410156 -42.367188 26.09375 -43.09375 29.25 -43.09375 C 33.675781 -43.09375 37.226562 -41.664062 39.90625 -38.8125 C 42.59375 -35.96875 43.9375 -32.0625 43.9375 -27.09375 L 43.9375 0 L 32.125 0 L 32.125 -24.984375 C 32.144531 -27.585938 31.476562 -29.625 30.125 -31.09375 C 28.78125 -32.5625 26.925781 -33.296875 24.5625 -33.296875 C 22.1875 -33.296875 20.253906 -32.53125 18.765625 -31 C 17.273438 -29.476562 16.523438 -27.34375 16.515625 -24.59375 Z M 16.515625 -24.59375 "/></g></g></g><g fill="#ffffff" fill-opacity="1"><g transform="translate(523.10732, 378.215274)"><g><path d="M 40.109375 -30.40625 L 29.3125 -29.75 C 29.007812 -31.113281 28.257812 -32.285156 27.0625 -33.265625 C 25.863281 -34.242188 24.238281 -34.734375 22.1875 -34.734375 C 20.351562 -34.734375 18.804688 -34.347656 17.546875 -33.578125 C 16.285156 -32.816406 15.660156 -31.800781 15.671875 -30.53125 C 15.660156 -29.507812 16.0625 -28.644531 16.875 -27.9375 C 17.695312 -27.238281 19.097656 -26.679688 21.078125 -26.265625 L 28.78125 -24.703125 C 36.957031 -23.023438 41.054688 -19.1875 41.078125 -13.1875 C 41.078125 -10.394531 40.257812 -7.945312 38.625 -5.84375 C 36.988281 -3.738281 34.75 -2.097656 31.90625 -0.921875 C 29.0625 0.242188 25.800781 0.828125 22.125 0.828125 C 16.5 0.828125 12.015625 -0.347656 8.671875 -2.703125 C 5.328125 -5.054688 3.378906 -8.265625 2.828125 -12.328125 L 14.4375 -12.9375 C 14.800781 -11.195312 15.648438 -9.882812 16.984375 -9 C 18.328125 -8.113281 20.050781 -7.671875 22.15625 -7.671875 C 24.226562 -7.671875 25.894531 -8.078125 27.15625 -8.890625 C 28.425781 -9.703125 29.066406 -10.738281 29.078125 -12 C 29.023438 -14.101562 27.207031 -15.515625 23.625 -16.234375 L 16.265625 -17.703125 C 8.023438 -19.347656 3.921875 -23.398438 3.953125 -29.859375 C 3.941406 -33.960938 5.582031 -37.191406 8.875 -39.546875 C 12.175781 -41.910156 16.550781 -43.09375 22 -43.09375 C 27.363281 -43.09375 31.59375 -41.957031 34.6875 -39.6875 C 37.78125 -37.414062 39.585938 -34.320312 40.109375 -30.40625 Z M 40.109375 -30.40625 "/></g></g></g><g fill="#ffffff" fill-opacity="1"><g transform="translate(566.926836, 378.215274)"><g><path d="M 4.703125 0 L 4.703125 -42.546875 L 16.515625 -42.546875 L 16.515625 0 Z M 10.640625 -48.03125 C 8.898438 -48.03125 7.398438 -48.613281 6.140625 -49.78125 C 4.890625 -50.957031 4.265625 -52.367188 4.265625 -54.015625 C 4.265625 -55.660156 4.890625 -57.0625 6.140625 -58.21875 C 7.398438 -59.382812 8.898438 -59.96875 10.640625 -59.96875 C 12.390625 -59.96875 13.890625 -59.382812 15.140625 -58.21875 C 16.398438 -57.0625 17.03125 -55.660156 17.03125 -54.015625 C 17.03125 -52.367188 16.398438 -50.957031 15.140625 -49.78125 C 13.890625 -48.613281 12.390625 -48.03125 10.640625 -48.03125 Z M 10.640625 -48.03125 "/></g></g></g><g fill="#ffffff" fill-opacity="1"><g transform="translate(588.144136, 378.215274)"><g><path d="M 23.9375 0.828125 C 19.632812 0.828125 15.914062 -0.0859375 12.78125 -1.921875 C 9.65625 -3.765625 7.238281 -6.332031 5.53125 -9.625 C 3.832031 -12.914062 2.984375 -16.742188 2.984375 -21.109375 C 2.984375 -25.503906 3.832031 -29.347656 5.53125 -32.640625 C 7.238281 -35.941406 9.65625 -38.507812 12.78125 -40.34375 C 15.914062 -42.175781 19.632812 -43.09375 23.9375 -43.09375 C 28.238281 -43.09375 31.953125 -42.175781 35.078125 -40.34375 C 38.210938 -38.507812 40.628906 -35.941406 42.328125 -32.640625 C 44.023438 -29.347656 44.875 -25.503906 44.875 -21.109375 C 44.875 -16.742188 44.023438 -12.914062 42.328125 -9.625 C 40.628906 -6.332031 38.210938 -3.765625 35.078125 -1.921875 C 31.953125 -0.0859375 28.238281 0.828125 23.9375 0.828125 Z M 23.984375 -8.3125 C 26.898438 -8.3125 29.109375 -9.53125 30.609375 -11.96875 C 32.117188 -14.40625 32.875 -17.476562 32.875 -21.1875 C 32.875 -24.894531 32.117188 -27.972656 30.609375 -30.421875 C 29.109375 -32.867188 26.898438 -34.09375 23.984375 -34.09375 C 21.015625 -34.09375 18.769531 -32.867188 17.25 -30.421875 C 15.738281 -27.972656 14.984375 -24.894531 14.984375 -21.1875 C 14.984375 -17.476562 15.738281 -14.40625 17.25 -11.96875 C 18.769531 -9.53125 21.015625 -8.3125 23.984375 -8.3125 Z M 23.984375 -8.3125 "/></g></g></g><g fill="#ffffff" fill-opacity="1"><g transform="translate(636.007674, 378.215274)"><g><path d="M 16.515625 -24.59375 L 16.515625 0 L 4.703125 0 L 4.703125 -42.546875 L 15.953125 -42.546875 L 15.953125 -35.03125 L 16.453125 -35.03125 C 17.410156 -37.507812 18.992188 -39.472656 21.203125 -40.921875 C 23.410156 -42.367188 26.09375 -43.09375 29.25 -43.09375 C 33.675781 -43.09375 37.226562 -41.664062 39.90625 -38.8125 C 42.59375 -35.96875 43.9375 -32.0625 43.9375 -27.09375 L 43.9375 0 L 32.125 0 L 32.125 -24.984375 C 32.144531 -27.585938 31.476562 -29.625 30.125 -31.09375 C 28.78125 -32.5625 26.925781 -33.296875 24.5625 -33.296875 C 22.1875 -33.296875 20.253906 -32.53125 18.765625 -31 C 17.273438 -29.476562 16.523438 -27.34375 16.515625 -24.59375 Z M 16.515625 -24.59375 "/></g></g></g><g mask="url(#8250eaf4e0)"><g transform="matrix(1, 0, 0, 1, 125, 341)"><g clip-path="url(#f402661a22)"><g fill="#ffffff" fill-opacity="1"><g transform="translate(0.482043, 74.475273)"><g><path d="M 54.984375 -36.859375 L 42.84375 -36.859375 C 42.382812 -39.984375 41.054688 -42.4375 38.859375 -44.21875 C 36.660156 -46 33.921875 -46.890625 30.640625 -46.890625 C 26.242188 -46.890625 22.71875 -45.28125 20.0625 -42.0625 C 17.414062 -38.84375 16.09375 -34.273438 16.09375 -28.359375 C 16.09375 -22.304688 17.425781 -17.703125 20.09375 -14.546875 C 22.757812 -11.398438 26.242188 -9.828125 30.546875 -9.828125 C 33.742188 -9.828125 36.445312 -10.660156 38.65625 -12.328125 C 40.875 -14.003906 42.269531 -16.359375 42.84375 -19.390625 L 54.984375 -19.328125 C 54.554688 -15.859375 53.316406 -12.59375 51.265625 -9.53125 C 49.222656 -6.46875 46.441406 -3.984375 42.921875 -2.078125 C 39.398438 -0.171875 35.210938 0.78125 30.359375 0.78125 C 25.296875 0.78125 20.773438 -0.363281 16.796875 -2.65625 C 12.816406 -4.945312 9.675781 -8.257812 7.375 -12.59375 C 5.082031 -16.9375 3.9375 -22.191406 3.9375 -28.359375 C 3.9375 -34.546875 5.097656 -39.804688 7.421875 -44.140625 C 9.742188 -48.484375 12.898438 -51.796875 16.890625 -54.078125 C 20.878906 -56.359375 25.367188 -57.5 30.359375 -57.5 C 34.734375 -57.5 38.675781 -56.691406 42.1875 -55.078125 C 45.707031 -53.460938 48.585938 -51.117188 50.828125 -48.046875 C 53.078125 -44.972656 54.460938 -41.242188 54.984375 -36.859375 Z M 54.984375 -36.859375 "/></g></g></g><g fill="#ffffff" fill-opacity="1"><g transform="translate(59.148128, 74.475273)"><g><path d="M 23.9375 0.828125 C 19.632812 0.828125 15.914062 -0.0859375 12.78125 -1.921875 C 9.65625 -3.765625 7.238281 -6.332031 5.53125 -9.625 C 3.832031 -12.914062 2.984375 -16.742188 2.984375 -21.109375 C 2.984375 -25.503906 3.832031 -29.347656 5.53125 -32.640625 C 7.238281 -35.941406 9.65625 -38.507812 12.78125 -40.34375 C 15.914062 -42.175781 19.632812 -43.09375 23.9375 -43.09375 C 28.238281 -43.09375 31.953125 -42.175781 35.078125 -40.34375 C 38.210938 -38.507812 40.628906 -35.941406 42.328125 -32.640625 C 44.023438 -29.347656 44.875 -25.503906 44.875 -21.109375 C 44.875 -16.742188 44.023438 -12.914062 42.328125 -9.625 C 40.628906 -6.332031 38.210938 -3.765625 35.078125 -1.921875 C 31.953125 -0.0859375 28.238281 0.828125 23.9375 0.828125 Z M 23.984375 -8.3125 C 26.898438 -8.3125 29.109375 -9.53125 30.609375 -11.96875 C 32.117188 -14.40625 32.875 -17.476562 32.875 -21.1875 C 32.875 -24.894531 32.117188 -27.972656 30.609375 -30.421875 C 29.109375 -32.867188 26.898438 -34.09375 23.984375 -34.09375 C 21.015625 -34.09375 18.769531 -32.867188 17.25 -30.421875 C 15.738281 -27.972656 14.984375 -24.894531 14.984375 -21.1875 C 14.984375 -17.476562 15.738281 -14.40625 17.25 -11.96875 C 18.769531 -9.53125 21.015625 -8.3125 23.984375 -8.3125 Z M 23.984375 -8.3125 "/></g></g></g><g fill="#ffffff" fill-opacity="1"><g transform="translate(107.011678, 74.475273)"><g><path d="M 20.390625 0.6875 C 17.148438 0.6875 14.226562 -0.144531 11.625 -1.8125 C 9.03125 -3.488281 6.960938 -5.953125 5.421875 -9.203125 C 3.890625 -12.460938 3.125 -16.46875 3.125 -21.21875 C 3.125 -26.09375 3.910156 -30.148438 5.484375 -33.390625 C 7.066406 -36.628906 9.164062 -39.054688 11.78125 -40.671875 C 14.394531 -42.285156 17.253906 -43.09375 20.359375 -43.09375 C 22.742188 -43.09375 24.734375 -42.691406 26.328125 -41.890625 C 27.921875 -41.085938 29.210938 -40.09375 30.203125 -38.90625 C 31.191406 -37.726562 31.945312 -36.5625 32.46875 -35.40625 L 32.828125 -35.40625 L 32.828125 -56.734375 L 44.59375 -56.734375 L 44.59375 0 L 32.96875 0 L 32.96875 -6.8125 L 32.46875 -6.8125 C 31.925781 -5.632812 31.144531 -4.46875 30.125 -3.3125 C 29.113281 -2.15625 27.8125 -1.195312 26.21875 -0.4375 C 24.625 0.3125 22.679688 0.6875 20.390625 0.6875 Z M 24.125 -8.703125 C 26.96875 -8.703125 29.171875 -9.847656 30.734375 -12.140625 C 32.296875 -14.441406 33.078125 -17.484375 33.078125 -21.265625 C 33.078125 -25.078125 32.300781 -28.101562 30.75 -30.34375 C 29.195312 -32.582031 26.988281 -33.703125 24.125 -33.703125 C 21.207031 -33.703125 18.984375 -32.550781 17.453125 -30.25 C 15.929688 -27.957031 15.171875 -24.960938 15.171875 -21.265625 C 15.171875 -17.554688 15.9375 -14.535156 17.46875 -12.203125 C 19.007812 -9.867188 21.226562 -8.703125 24.125 -8.703125 Z M 24.125 -8.703125 "/></g></g></g><g fill="#ffffff" fill-opacity="1"><g transform="translate(156.564856, 74.475273)"><g><path d="M 24.09375 0.828125 C 19.738281 0.828125 15.984375 -0.0625 12.828125 -1.84375 C 9.671875 -3.625 7.238281 -6.148438 5.53125 -9.421875 C 3.832031 -12.703125 2.984375 -16.585938 2.984375 -21.078125 C 2.984375 -25.453125 3.832031 -29.289062 5.53125 -32.59375 C 7.238281 -35.90625 9.632812 -38.484375 12.71875 -40.328125 C 15.8125 -42.171875 19.445312 -43.09375 23.625 -43.09375 C 27.375 -43.09375 30.757812 -42.296875 33.78125 -40.703125 C 36.800781 -39.117188 39.195312 -36.722656 40.96875 -33.515625 C 42.738281 -30.316406 43.625 -26.3125 43.625 -21.5 L 43.625 -18.25 L 14.65625 -18.25 L 14.65625 -18.21875 C 14.65625 -15.050781 15.519531 -12.550781 17.25 -10.71875 C 18.988281 -8.894531 21.335938 -7.984375 24.296875 -7.984375 C 26.265625 -7.984375 27.96875 -8.394531 29.40625 -9.21875 C 30.851562 -10.050781 31.875 -11.28125 32.46875 -12.90625 L 43.375 -12.1875 C 42.539062 -8.238281 40.429688 -5.082031 37.046875 -2.71875 C 33.671875 -0.351562 29.351562 0.828125 24.09375 0.828125 Z M 14.65625 -25.5625 L 32.515625 -25.5625 C 32.492188 -28.09375 31.679688 -30.179688 30.078125 -31.828125 C 28.472656 -33.472656 26.390625 -34.296875 23.828125 -34.296875 C 21.203125 -34.296875 19.046875 -33.441406 17.359375 -31.734375 C 15.679688 -30.035156 14.78125 -27.976562 14.65625 -25.5625 Z M 14.65625 -25.5625 "/></g></g></g><g fill="#ffffff" fill-opacity="1"><g transform="translate(203.181961, 74.475273)"><g/></g></g><g fill="#ffffff" fill-opacity="1"><g transform="translate(221.269279, 74.475273)"><g><path d="M 25.046875 0 L 4.9375 0 L 4.9375 -56.734375 L 25.203125 -56.734375 C 30.910156 -56.734375 35.828125 -55.597656 39.953125 -53.328125 C 44.078125 -51.066406 47.25 -47.820312 49.46875 -43.59375 C 51.6875 -39.363281 52.796875 -34.304688 52.796875 -28.421875 C 52.796875 -22.515625 51.679688 -17.4375 49.453125 -13.1875 C 47.234375 -8.9375 44.050781 -5.675781 39.90625 -3.40625 C 35.757812 -1.132812 30.804688 0 25.046875 0 Z M 16.921875 -10.28125 L 24.546875 -10.28125 C 29.878906 -10.28125 33.925781 -11.71875 36.6875 -14.59375 C 39.445312 -17.476562 40.828125 -22.085938 40.828125 -28.421875 C 40.828125 -34.710938 39.445312 -39.289062 36.6875 -42.15625 C 33.925781 -45.019531 29.882812 -46.453125 24.5625 -46.453125 L 16.921875 -46.453125 Z M 16.921875 -10.28125 "/></g></g></g><g fill="#ffffff" fill-opacity="1"><g transform="translate(277.996449, 74.475273)"><g><path d="M 4.703125 0 L 4.703125 -42.546875 L 16.515625 -42.546875 L 16.515625 0 Z M 10.640625 -48.03125 C 8.898438 -48.03125 7.398438 -48.613281 6.140625 -49.78125 C 4.890625 -50.957031 4.265625 -52.367188 4.265625 -54.015625 C 4.265625 -55.660156 4.890625 -57.0625 6.140625 -58.21875 C 7.398438 -59.382812 8.898438 -59.96875 10.640625 -59.96875 C 12.390625 -59.96875 13.890625 -59.382812 15.140625 -58.21875 C 16.398438 -57.0625 17.03125 -55.660156 17.03125 -54.015625 C 17.03125 -52.367188 16.398438 -50.957031 15.140625 -49.78125 C 13.890625 -48.613281 12.390625 -48.03125 10.640625 -48.03125 Z M 10.640625 -48.03125 "/></g></g></g><g fill="#ffffff" fill-opacity="1"><g transform="translate(299.213748, 74.475273)"><g><path d="M 4.703125 0 L 4.703125 -42.546875 L 15.953125 -42.546875 L 15.953125 -35.03125 L 16.453125 -35.03125 C 17.335938 -37.550781 18.816406 -39.523438 20.890625 -40.953125 C 22.972656 -42.378906 25.445312 -43.09375 28.3125 -43.09375 C 31.226562 -43.09375 33.707031 -42.367188 35.75 -40.921875 C 37.800781 -39.472656 39.171875 -37.507812 39.859375 -35.03125 L 40.296875 -35.03125 C 41.171875 -37.46875 42.742188 -39.421875 45.015625 -40.890625 C 47.296875 -42.359375 50 -43.09375 53.125 -43.09375 C 57.09375 -43.09375 60.316406 -41.832031 62.796875 -39.3125 C 65.285156 -36.789062 66.53125 -33.222656 66.53125 -28.609375 L 66.53125 0 L 54.765625 0 L 54.765625 -26.28125 C 54.765625 -28.644531 54.132812 -30.414062 52.875 -31.59375 C 51.625 -32.78125 50.054688 -33.375 48.171875 -33.375 C 46.023438 -33.375 44.351562 -32.691406 43.15625 -31.328125 C 41.957031 -29.960938 41.359375 -28.179688 41.359375 -25.984375 L 41.359375 0 L 29.921875 0 L 29.921875 -26.53125 C 29.921875 -28.625 29.320312 -30.285156 28.125 -31.515625 C 26.9375 -32.753906 25.375 -33.375 23.4375 -33.375 C 21.476562 -33.375 19.832031 -32.65625 18.5 -31.21875 C 17.175781 -29.789062 16.515625 -27.894531 16.515625 -25.53125 L 16.515625 0 Z M 4.703125 0 "/></g></g></g><g fill="#ffffff" fill-opacity="1"><g transform="translate(370.344314, 74.475273)"><g><path d="M 24.09375 0.828125 C 19.738281 0.828125 15.984375 -0.0625 12.828125 -1.84375 C 9.671875 -3.625 7.238281 -6.148438 5.53125 -9.421875 C 3.832031 -12.703125 2.984375 -16.585938 2.984375 -21.078125 C 2.984375 -25.453125 3.832031 -29.289062 5.53125 -32.59375 C 7.238281 -35.90625 9.632812 -38.484375 12.71875 -40.328125 C 15.8125 -42.171875 19.445312 -43.09375 23.625 -43.09375 C 27.375 -43.09375 30.757812 -42.296875 33.78125 -40.703125 C 36.800781 -39.117188 39.195312 -36.722656 40.96875 -33.515625 C 42.738281 -30.316406 43.625 -26.3125 43.625 -21.5 L 43.625 -18.25 L 14.65625 -18.25 L 14.65625 -18.21875 C 14.65625 -15.050781 15.519531 -12.550781 17.25 -10.71875 C 18.988281 -8.894531 21.335938 -7.984375 24.296875 -7.984375 C 26.265625 -7.984375 27.96875 -8.394531 29.40625 -9.21875 C 30.851562 -10.050781 31.875 -11.28125 32.46875 -12.90625 L 43.375 -12.1875 C 42.539062 -8.238281 40.429688 -5.082031 37.046875 -2.71875 C 33.671875 -0.351562 29.351562 0.828125 24.09375 0.828125 Z M 14.65625 -25.5625 L 32.515625 -25.5625 C 32.492188 -28.09375 31.679688 -30.179688 30.078125 -31.828125 C 28.472656 -33.472656 26.390625 -34.296875 23.828125 -34.296875 C 21.203125 -34.296875 19.046875 -33.441406 17.359375 -31.734375 C 15.679688 -30.035156 14.78125 -27.976562 14.65625 -25.5625 Z M 14.65625 -25.5625 "/></g></g></g><g fill="#ffffff" fill-opacity="1"><g transform="translate(416.961407, 74.475273)"><g><path d="M 16.515625 -24.59375 L 16.515625 0 L 4.703125 0 L 4.703125 -42.546875 L 15.953125 -42.546875 L 15.953125 -35.03125 L 16.453125 -35.03125 C 17.410156 -37.507812 18.992188 -39.472656 21.203125 -40.921875 C 23.410156 -42.367188 26.09375 -43.09375 29.25 -43.09375 C 33.675781 -43.09375 37.226562 -41.664062 39.90625 -38.8125 C 42.59375 -35.96875 43.9375 -32.0625 43.9375 -27.09375 L 43.9375 0 L 32.125 0 L 32.125 -24.984375 C 32.144531 -27.585938 31.476562 -29.625 30.125 -31.09375 C 28.78125 -32.5625 26.925781 -33.296875 24.5625 -33.296875 C 22.1875 -33.296875 20.253906 -32.53125 18.765625 -31 C 17.273438 -29.476562 16.523438 -27.34375 16.515625 -24.59375 Z M 16.515625 -24.59375 "/></g></g></g><g fill="#ffffff" fill-opacity="1"><g transform="translate(465.462015, 74.475273)"><g><path d="M 40.109375 -30.40625 L 29.3125 -29.75 C 29.007812 -31.113281 28.257812 -32.285156 27.0625 -33.265625 C 25.863281 -34.242188 24.238281 -34.734375 22.1875 -34.734375 C 20.351562 -34.734375 18.804688 -34.347656 17.546875 -33.578125 C 16.285156 -32.816406 15.660156 -31.800781 15.671875 -30.53125 C 15.660156 -29.507812 16.0625 -28.644531 16.875 -27.9375 C 17.695312 -27.238281 19.097656 -26.679688 21.078125 -26.265625 L 28.78125 -24.703125 C 36.957031 -23.023438 41.054688 -19.1875 41.078125 -13.1875 C 41.078125 -10.394531 40.257812 -7.945312 38.625 -5.84375 C 36.988281 -3.738281 34.75 -2.097656 31.90625 -0.921875 C 29.0625 0.242188 25.800781 0.828125 22.125 0.828125 C 16.5 0.828125 12.015625 -0.347656 8.671875 -2.703125 C 5.328125 -5.054688 3.378906 -8.265625 2.828125 -12.328125 L 14.4375 -12.9375 C 14.800781 -11.195312 15.648438 -9.882812 16.984375 -9 C 18.328125 -8.113281 20.050781 -7.671875 22.15625 -7.671875 C 24.226562 -7.671875 25.894531 -8.078125 27.15625 -8.890625 C 28.425781 -9.703125 29.066406 -10.738281 29.078125 -12 C 29.023438 -14.101562 27.207031 -15.515625 23.625 -16.234375 L 16.265625 -17.703125 C 8.023438 -19.347656 3.921875 -23.398438 3.953125 -29.859375 C 3.941406 -33.960938 5.582031 -37.191406 8.875 -39.546875 C 12.175781 -41.910156 16.550781 -43.09375 22 -43.09375 C 27.363281 -43.09375 31.59375 -41.957031 34.6875 -39.6875 C 37.78125 -37.414062 39.585938 -34.320312 40.109375 -30.40625 Z M 40.109375 -30.40625 "/></g></g></g><g fill="#ffffff" fill-opacity="1"><g transform="translate(509.281531, 74.475273)"><g><path d="M 4.703125 0 L 4.703125 -42.546875 L 16.515625 -42.546875 L 16.515625 0 Z M 10.640625 -48.03125 C 8.898438 -48.03125 7.398438 -48.613281 6.140625 -49.78125 C 4.890625 -50.957031 4.265625 -52.367188 4.265625 -54.015625 C 4.265625 -55.660156 4.890625 -57.0625 6.140625 -58.21875 C 7.398438 -59.382812 8.898438 -59.96875 10.640625 -59.96875 C 12.390625 -59.96875 13.890625 -59.382812 15.140625 -58.21875 C 16.398438 -57.0625 17.03125 -55.660156 17.03125 -54.015625 C 17.03125 -52.367188 16.398438 -50.957031 15.140625 -49.78125 C 13.890625 -48.613281 12.390625 -48.03125 10.640625 -48.03125 Z M 10.640625 -48.03125 "/></g></g></g><g fill="#ffffff" fill-opacity="1"><g transform="translate(530.498831, 74.475273)"><g><path d="M 23.9375 0.828125 C 19.632812 0.828125 15.914062 -0.0859375 12.78125 -1.921875 C 9.65625 -3.765625 7.238281 -6.332031 5.53125 -9.625 C 3.832031 -12.914062 2.984375 -16.742188 2.984375 -21.109375 C 2.984375 -25.503906 3.832031 -29.347656 5.53125 -32.640625 C 7.238281 -35.941406 9.65625 -38.507812 12.78125 -40.34375 C 15.914062 -42.175781 19.632812 -43.09375 23.9375 -43.09375 C 28.238281 -43.09375 31.953125 -42.175781 35.078125 -40.34375 C 38.210938 -38.507812 40.628906 -35.941406 42.328125 -32.640625 C 44.023438 -29.347656 44.875 -25.503906 44.875 -21.109375 C 44.875 -16.742188 44.023438 -12.914062 42.328125 -9.625 C 40.628906 -6.332031 38.210938 -3.765625 35.078125 -1.921875 C 31.953125 -0.0859375 28.238281 0.828125 23.9375 0.828125 Z M 23.984375 -8.3125 C 26.898438 -8.3125 29.109375 -9.53125 30.609375 -11.96875 C 32.117188 -14.40625 32.875 -17.476562 32.875 -21.1875 C 32.875 -24.894531 32.117188 -27.972656 30.609375 -30.421875 C 29.109375 -32.867188 26.898438 -34.09375 23.984375 -34.09375 C 21.015625 -34.09375 18.769531 -32.867188 17.25 -30.421875 C 15.738281 -27.972656 14.984375 -24.894531 14.984375 -21.1875 C 14.984375 -17.476562 15.738281 -14.40625 17.25 -11.96875 C 18.769531 -9.53125 21.015625 -8.3125 23.984375 -8.3125 Z M 23.984375 -8.3125 "/></g></g></g><g fill="#ffffff" fill-opacity="1"><g transform="translate(578.362369, 74.475273)"><g><path d="M 16.515625 -24.59375 L 16.515625 0 L 4.703125 0 L 4.703125 -42.546875 L 15.953125 -42.546875 L 15.953125 -35.03125 L 16.453125 -35.03125 C 17.410156 -37.507812 18.992188 -39.472656 21.203125 -40.921875 C 23.410156 -42.367188 26.09375 -43.09375 29.25 -43.09375 C 33.675781 -43.09375 37.226562 -41.664062 39.90625 -38.8125 C 42.59375 -35.96875 43.9375 -32.0625 43.9375 -27.09375 L 43.9375 0 L 32.125 0 L 32.125 -24.984375 C 32.144531 -27.585938 31.476562 -29.625 30.125 -31.09375 C 28.78125 -32.5625 26.925781 -33.296875 24.5625 -33.296875 C 22.1875 -33.296875 20.253906 -32.53125 18.765625 -31 C 17.273438 -29.476562 16.523438 -27.34375 16.515625 -24.59375 Z M 16.515625 -24.59375 "/></g></g></g></g></g></g></svg>