<svg fill="#fff" viewBox="-7 -7 64.00 64.00" xmlns="http://www.w3.org/2000/svg"
    xmlns:xlink="http://www.w3.org/1999/xlink" transform="rotate(0)" stroke="#000000"
    stroke-width="0.0005">
    <g id="SVGRepo_bgCarrier" stroke-width="0" transform="translate(0,0), scale(1)">
        <path transform="translate(-7, -7), scale(2)"
            d="M16,24.23362977989018C18.98708237331924,24.690485220050835,21.877809801264867,27.58794280234119,24.56710842840094,26.209882247690956C27.253193479506024,24.83346840580181,27.663820641850116,21.112072145045524,27.95444028411083,18.107890361356908C28.224474578988207,15.316502610235602,27.576813154671758,12.5535587829285,26.120018248976606,10.157204739749435C24.69283412493872,7.809558936878375,22.541423016548563,6.054770279627032,19.997006775986684,5.018314137569474C17.359382263139494,3.943890038555569,14.482259684767168,3.5253667773911195,11.74163447111468,4.3002368656036385C8.827166882908259,5.124258240695749,6.10198894253073,6.788567447783533,4.5457921634889225,9.3869100222364C2.972758643970413,12.013364478287276,2.435676384518002,15.316737374291662,3.4042414294223278,18.220972078482728C4.299831969266003,20.90639330057127,6.827026445837772,22.667878378592405,9.381709782831319,23.887371143141884C11.437312922238032,24.868625108747565,13.748384441278768,23.889259357989452,16,24.23362977989018"
            fill="#0c073d" strokewidth="0"></path>
    </g>
    <g id="SVGRepo_tracerCarrier" stroke-linecap="round" stroke-linejoin="round" stroke="#CCCCCC"
        stroke-width="0.2"></g>
    <g id="SVGRepo_iconCarrier">
        <path
            d="M8 2L8 6L4 6L4 48L46 48L46 14L30 14L30 6L26 6L26 2 Z M 10 4L24 4L24 8L28 8L28 46L19 46L19 39L15 39L15 46L6 46L6 8L10 8 Z M 10 10L10 12L12 12L12 10 Z M 14 10L14 12L16 12L16 10 Z M 18 10L18 12L20 12L20 10 Z M 22 10L22 12L24 12L24 10 Z M 10 15L10 19L12 19L12 15 Z M 14 15L14 19L16 19L16 15 Z M 18 15L18 19L20 19L20 15 Z M 22 15L22 19L24 19L24 15 Z M 30 16L44 16L44 46L30 46 Z M 32 18L32 20L34 20L34 18 Z M 36 18L36 20L38 20L38 18 Z M 40 18L40 20L42 20L42 18 Z M 10 21L10 25L12 25L12 21 Z M 14 21L14 25L16 25L16 21 Z M 18 21L18 25L20 25L20 21 Z M 22 21L22 25L24 25L24 21 Z M 32 22L32 24L34 24L34 22 Z M 36 22L36 24L38 24L38 22 Z M 40 22L40 24L42 24L42 22 Z M 32 26L32 28L34 28L34 26 Z M 36 26L36 28L38 28L38 26 Z M 40 26L40 28L42 28L42 26 Z M 10 27L10 31L12 31L12 27 Z M 14 27L14 31L16 31L16 27 Z M 18 27L18 31L20 31L20 27 Z M 22 27L22 31L24 31L24 27 Z M 32 30L32 32L34 32L34 30 Z M 36 30L36 32L38 32L38 30 Z M 40 30L40 32L42 32L42 30 Z M 10 33L10 37L12 37L12 33 Z M 14 33L14 37L16 37L16 33 Z M 18 33L18 37L20 37L20 33 Z M 22 33L22 37L24 37L24 33 Z M 32 34L32 36L34 36L34 34 Z M 36 34L36 36L38 36L38 34 Z M 40 34L40 36L42 36L42 34 Z M 32 38L32 40L34 40L34 38 Z M 36 38L36 40L38 40L38 38 Z M 40 38L40 40L42 40L42 38 Z M 10 39L10 44L12 44L12 39 Z M 22 39L22 44L24 44L24 39 Z M 32 42L32 44L34 44L34 42 Z M 36 42L36 44L38 44L38 42 Z M 40 42L40 44L42 44L42 42Z"></path>
    </g>
</svg>