<svg height="200px" width="200px" version="1.1" id="_x32_" xmlns="http://www.w3.org/2000/svg" xmlns:xlink="http://www.w3.org/1999/xlink" viewBox="-51.2 -51.2 614.40 614.40" xml:space="preserve" fill="#000000"><g id="SVGRepo_bgCarrier" stroke-width="0" transform="translate(58.879999999999995,58.879999999999995), scale(0.77)"><path transform="translate(-51.2, -51.2), scale(19.2)" d="M16,28.450878912473428C17.8390801222274,28.990233500922134,19.993056920092894,28.685373491270415,21.625027298690206,27.68048954203371C23.246229385488608,26.68223615652005,23.62449824054797,24.515503251202748,24.810276414384184,23.02596098916967C25.994932351578317,21.537828450256193,27.668121001428,20.524076120960412,28.628867195454987,18.882456526302434C29.76939439127631,16.933646523680654,31.78694398378018,14.678512062414217,30.914404512803415,12.595884495537618C29.973025335179628,10.34894634383636,26.327174434584116,10.850774978916908,24.560935303703623,9.172881911352462C23.11435077252827,7.7986545408519055,23.6222616859658,4.769757733025685,21.80621168868755,3.9432771954119055C19.97584148352625,3.110279561282245,18.010840367637783,5.251105167944198,16,5.276818244115395C14.023219376658203,5.30209579053816,12.093028956985279,3.3384636642962313,10.264860011598666,4.090859101747004C8.465902748954022,4.831232271304656,8.181407283673469,7.289781342812839,7.130757954843963,8.92701548943111C6.178511696120282,10.4109074484245,5.072047051247081,11.736632795251186,4.331563922140884,13.336755608890059C3.471076091292795,15.196198660159341,2.214928130396383,17.060479780441387,2.423636169150443,19.098716450337868C2.633836702335877,21.151528777682927,3.7021773153531297,23.328326906243074,5.464576141057485,24.401720168103417C7.285076488417937,25.510500302072327,9.777541557272489,24.02474145476569,11.7672235318668,24.789450902986466C13.530694340927232,25.467218911426617,14.187122269230915,27.919208807093494,16,28.450878912473428" fill="#6657EC" strokewidth="0"></path></g><g id="SVGRepo_tracerCarrier" stroke-linecap="round" stroke-linejoin="round"></g><g id="SVGRepo_iconCarrier"> <style type="text/css"> .st0{fill:#fff;} </style> <g> <path class="st0" d="M202.622,344.796l-6.208,11.926l-0.263,0.484c-14.411,24.499-41.026,39.714-69.478,39.714 c-14.272,0-28.371-3.847-40.731-11.122c-18.544-10.908-31.733-28.37-37.122-49.195c-0.238-0.886-0.434-1.78-0.632-2.674 L37.92,412.74h173.617L202.622,344.796z"></path> <path class="st0" d="M212.883,59.091L66.446,280.944c-19.578,33.283-8.465,76.172,24.844,95.749 c33.299,19.587,76.17,8.464,95.756-24.843l99.391-191.063l-54.788-52.082C217.361,93.974,212.497,77.52,212.883,59.091z M150.794,330.533c-7.808,13.288-24.909,17.716-38.188,9.916c-13.287-7.824-17.724-24.909-9.907-38.196 c7.808-13.288,24.909-17.716,38.187-9.908C154.165,300.161,158.611,317.254,150.794,330.533z"></path> <path class="st0" d="M216.401,422.247H34.278c-12.402,0-22.449,10.055-22.449,22.457V512h227.012v-67.296 C238.841,432.302,228.794,422.247,216.401,422.247z"></path> <path class="st0" d="M450.024,185.737c7.184,0,14.082,1.255,20.48,3.559L328.505,19.542c-22.646-24.606-60.956-26.188-85.554-3.535 c-24.606,22.637-26.18,60.949-3.535,85.546l149.955,142.458C390.65,211.663,417.356,185.737,450.024,185.737z M299.584,77.537 c-9.374,8.628-23.973,8.013-32.602-1.361c-8.645-9.375-8.038-23.974,1.345-32.603c9.375-8.644,23.974-8.038,32.619,1.346 C309.575,54.293,308.967,68.892,299.584,77.537z"></path> <polygon class="st0" points="431.668,365.227 451.246,387.249 470.815,365.227 470.815,328.975 431.668,328.975 "></polygon> <path class="st0" d="M450.024,196.292c-27.698,0-50.155,22.449-50.155,50.155v72.169h100.301v-72.169 C500.171,218.741,477.73,196.292,450.024,196.292z M450.024,264.492c-10.818,0-19.578-8.768-19.578-19.578 c0-10.818,8.76-19.586,19.578-19.586c10.81,0,19.586,8.767,19.586,19.586C469.61,255.723,460.835,264.492,450.024,264.492z"></path> </g> </g></svg>