<svg viewBox="-3 -3 36.00 36.00" version="1.1" xmlns="http://www.w3.org/2000/svg"
    xmlns:xlink="http://www.w3.org/1999/xlink"
    xmlns:sketch="http://www.bohemiancoding.com/sketch/ns" fill="#6657EC" stroke="#6657EC">
    <g id="SVGRepo_bgCarrier" stroke-width="0">
        <path transform="translate(-3, -3), scale(1.125)"
            d="M16,26.097287807221477C18.90101639920105,27.094990714327572,21.894847182595417,29.152019147964985,24.76123938455614,28.058811489823064C27.715017491238036,26.932275894147164,29.394500744272044,23.675095886126144,30.295876311190817,20.645011788415324C31.1832487412977,17.662000945992336,31.077333288811005,14.334115257197297,29.669692159224994,11.558447776027275C28.362991373864766,8.981820252639686,25.346467104740217,8.050367067652687,23.03188002783397,6.321447462766992C20.673998216818024,4.560188130706015,18.92262951028647,1.6938758992234466,16.000000000000004,1.3476421413453004C12.969632353366217,0.98864502099407,9.50588529010112,2.0810097930076568,7.643639194835076,4.498456066837056C5.851478446977301,6.82492211932361,7.8030922765457325,10.249976244145415,6.972355637509256,13.066740536040797C6.181614431868339,15.747893006651692,2.034960168508774,17.60077832541205,3.0063953975195616,20.221878060408436C3.9922695770198935,22.881936573274455,8.156888204755994,22.068480520175193,10.741785296699959,23.23731165157787C12.605395062288625,24.079993210389148,14.065908072771219,25.43212468062281,16,26.097287807221477"
            fill="#6657EC" strokewidth="0"></path>
    </g>
    <g id="SVGRepo_tracerCarrier" stroke-linecap="round" stroke-linejoin="round"></g>
    <g id="SVGRepo_iconCarrier">
        <title>tools</title>
        <desc>Created with Sketch Beta.</desc>
        <defs> </defs>
        <g id="Page-1" stroke="none" stroke-width="1" fill="none" fill-rule="evenodd"
            sketch:type="MSPage">
            <g id="Icon-Set" sketch:type="MSLayerGroup"
                transform="translate(-569.000000, -308.000000)" fill="#ffffff">
                <path
                    d="M594.884,322.281 C592.585,324.575 589.129,324.958 586.406,323.494 L574.556,335.322 C573.754,336.122 572.454,336.122 571.651,335.322 C570.85,334.521 570.85,333.225 571.651,332.424 L583.503,320.596 C582.038,317.88 582.422,314.433 584.72,312.139 C586.098,310.764 587.896,310.11 589.701,310.088 C587.81,312.096 587.835,315.248 589.802,317.211 C591.768,319.173 594.926,319.198 596.938,317.311 C596.916,319.112 596.262,320.906 594.884,322.281 L594.884,322.281 Z M598.159,313.37 C597.653,313.938 596.813,314.661 595.609,315.762 C594.334,317.034 592.529,317.034 591.254,315.762 C589.978,314.488 589.978,312.688 591.254,311.415 C592.429,310.242 593.692,308.853 593.672,308.847 C590.257,307.274 586.082,307.882 583.268,310.69 C580.703,313.249 579.972,316.935 581.051,320.146 L570.2,330.976 C568.596,332.576 568.596,335.171 570.2,336.771 C571.804,338.371 574.404,338.371 576.008,336.771 L586.858,325.942 C590.078,327.021 593.771,326.289 596.336,323.73 C599.146,320.925 599.73,316.775 598.159,313.37 L598.159,313.37 Z"
                    id="tools" sketch:type="MSShapeGroup"> </path>
            </g>
        </g>
    </g>
</svg>