<svg viewBox="-2.4 -2.4 28.80 28.80" id="Layer_1" data-name="Layer 1"
    xmlns="http://www.w3.org/2000/svg" fill="#000000">
    <g id="SVGRepo_bgCarrier" stroke-width="0">
        <path transform="translate(-2.4, -2.4), scale(0.8999999999999999)"
            d="M16,30.524832696964342C18.00203750802267,30.77386171323624,19.527339851421324,28.613859567580235,21.004041103269294,27.239260336071062C22.246322930783432,26.082872310204777,22.756184376855387,24.36593878718084,23.93159691848817,23.141641943147036C25.15118793880816,21.871329279037138,27.199013546520252,21.45945220674338,28.03901162864132,19.911712001322563C28.882996624059903,18.356625700550538,28.986947211917315,16.391025560400195,28.52182760628611,14.683902885312664C28.065484805210343,13.008993606284982,25.96873689931423,12.191974337181522,25.481722332047216,10.525725059211258C24.801061527235813,8.196943435852052,26.757345785693552,5.1956257099162215,25.203862631992806,3.331969874824873C23.823858296836647,1.676430112106234,20.960257328094762,3.030071604019758,18.853710727240177,2.5743465888842394C16.73900280965167,2.116855974929029,14.850416931459701,0.18516039886563296,12.733909311879708,0.6342514083820525C10.617540794377962,1.083312902534499,9.24382912588061,3.1735688960216155,7.929745319672175,4.892247364398909C6.781749125838376,6.393701328597811,6.666920880072938,8.437323724514549,5.583593852806128,9.986085106929139C4.381222645844947,11.70503612153358,1.9830252046446262,12.485601003144723,1.244870318098494,14.449173378537846C0.5035758775099684,16.421097309547626,0.47738689940829016,18.88434658112799,1.558904786029176,20.692196270193875C2.670896038328542,22.550984797487168,5.106469670294104,23.064252302209994,7.013324824891525,24.09163867245866C8.472665253888431,24.877910489009302,10.173227407243445,25.094792365863725,11.52113199179658,26.05970225188799C13.254242018999314,27.3003649946222,13.884888668471522,30.261738677953527,16,30.524832696964342"
            fill="#6657EC" strokewidth="0"></path>
    </g>
    <g id="SVGRepo_tracerCarrier" stroke-linecap="round" stroke-linejoin="round"></g>
    <g id="SVGRepo_iconCarrier">
        <defs>
            <style>.cls-1{fill:none;stroke:#fff;stroke-miterlimit:10;stroke-width:1.91px;}</style>
        </defs>
        <path class="cls-1"
            d="M12,22.5h0A11.87,11.87,0,0,1,2.45,10.86V3.41L12,1.5l9.55,1.91v7.45A11.87,11.87,0,0,1,12,22.5Z"></path>
        <polyline class="cls-1" points="7.23 10.93 10.81 14.51 16.77 8.54"></polyline>
    </g>
</svg>