<svg width="1440" height="1024" viewBox="0 0 1440 1024" fill="none" xmlns="http://www.w3.org/2000/svg">
<g clip-path="url(#clip0_223_1013)">
<rect width="1440" height="1024" fill="#111518"/>
<path opacity="0.16" fill-rule="evenodd" clip-rule="evenodd" d="M720 2052C1094.45 2052 1398 1748.45 1398 1374C1398 999.551 1094.45 696 720 696C345.551 696 42 999.551 42 1374C42 1748.45 345.551 2052 720 2052ZM720 2053C1095 2053 1399 1749 1399 1374C1399 998.999 1095 695 720 695C344.999 695 41 998.999 41 1374C41 1749 344.999 2053 720 2053Z" fill="white"/>
<path opacity="0.16" fill-rule="evenodd" clip-rule="evenodd" d="M720 2311C1237.49 2311 1657 1891.49 1657 1374C1657 856.509 1237.49 437 720 437C202.509 437 -217 856.509 -217 1374C-217 1891.49 202.509 2311 720 2311ZM720 2312C1238.04 2312 1658 1892.04 1658 1374C1658 855.957 1238.04 436 720 436C201.957 436 -218 855.957 -218 1374C-218 1892.04 201.957 2312 720 2312Z" fill="white"/>
<path opacity="0.16" fill-rule="evenodd" clip-rule="evenodd" d="M720 2571C1381.08 2571 1917 2035.08 1917 1374C1917 712.915 1381.08 177 720 177C58.9152 177 -477 712.915 -477 1374C-477 2035.08 58.9152 2571 720 2571ZM720 2572C1381.64 2572 1918 2035.64 1918 1374C1918 712.363 1381.64 176 720 176C58.3629 176 -478 712.363 -478 1374C-478 2035.64 58.3629 2572 720 2572Z" fill="white"/>
<path opacity="0.08" d="M1364 84.5L1368.23 90.683L1375.41 92.792L1370.84 98.722L1371.05 106.208L1364 103.69L1356.95 106.208L1357.16 98.722L1352.59 92.792L1359.77 90.683L1364 84.5ZM1362 96H1360C1360 97.0436 1360.41 98.0458 1361.14 98.7929C1361.86 99.54 1362.86 99.9727 1363.9 99.9988C1364.94 100.025 1365.96 99.6423 1366.72 98.9326C1367.49 98.2228 1367.94 97.2422 1367.99 96.2L1368 96H1366C1366 96.519 1365.8 97.0185 1365.44 97.3932C1365.08 97.7678 1364.59 97.9881 1364.07 98.0075C1363.56 98.027 1363.05 97.8441 1362.66 97.4975C1362.28 97.1509 1362.04 96.6677 1362 96.15L1362 96Z" fill="white"/>
<path opacity="0.08" d="M260 396.5L264.226 402.683L271.413 404.792L266.838 410.722L267.053 418.208L260 415.69L252.947 418.208L253.162 410.722L248.587 404.792L255.774 402.683L260 396.5Z" fill="white"/>
<path opacity="0.08" d="M260 708.5L264.226 714.683L271.413 716.792L266.838 722.722L267.053 730.208L260 727.69L252.947 730.208L253.162 722.722L248.587 716.792L255.774 714.683L260 708.5Z" fill="white"/>
<path opacity="0.08" d="M812 396.5L816.226 402.683L823.413 404.792L818.838 410.722L819.053 418.208L812 415.69L804.947 418.208L805.162 410.722L800.587 404.792L807.774 402.683L812 396.5ZM810 408H808C808 409.044 808.408 410.046 809.136 410.793C809.865 411.54 810.857 411.973 811.9 411.999C812.943 412.025 813.955 411.642 814.72 410.933C815.485 410.223 815.943 409.242 815.995 408.2L816 408H814C814.002 408.519 813.803 409.019 813.444 409.393C813.084 409.768 812.594 409.988 812.075 410.008C811.556 410.027 811.05 409.844 810.664 409.498C810.278 409.151 810.042 408.668 810.005 408.15L810 408Z" fill="white"/>
<path opacity="0.08" d="M76 500.5L80.226 506.683L87.413 508.792L82.838 514.722L83.053 522.208L76 519.69L68.947 522.208L69.162 514.722L64.587 508.792L71.774 506.683L76 500.5Z" fill="white"/>
<path opacity="0.08" d="M1364 708.5L1368.23 714.683L1375.41 716.792L1370.84 722.722L1371.05 730.208L1364 727.69L1356.95 730.208L1357.16 722.722L1352.59 716.792L1359.77 714.683L1364 708.5Z" fill="white"/>
<path opacity="0.08" d="M76 812.5L80.226 818.683L87.413 820.792L82.838 826.722L83.053 834.208L76 831.69L68.947 834.208L69.162 826.722L64.587 820.792L71.774 818.683L76 812.5Z" fill="white"/>
<path opacity="0.08" d="M628 188.5L632.226 194.683L639.413 196.792L634.838 202.722L635.053 210.208L628 207.69L620.947 210.208L621.162 202.722L616.587 196.792L623.774 194.683L628 188.5Z" fill="white"/>
<path opacity="0.08" d="M1180 500.5L1184.23 506.683L1191.41 508.792L1186.84 514.722L1187.05 522.208L1180 519.69L1172.95 522.208L1173.16 514.722L1168.59 508.792L1175.77 506.683L1180 500.5Z" fill="white"/>
<path opacity="0.08" d="M628 500.5L632.226 506.683L639.413 508.792L634.838 514.722L635.053 522.208L628 519.69L620.947 522.208L621.162 514.722L616.587 508.792L623.774 506.683L628 500.5ZM626 512H624C624 513.044 624.408 514.046 625.136 514.793C625.865 515.54 626.857 515.973 627.9 515.999C628.943 516.025 629.955 515.642 630.72 514.933C631.485 514.223 631.943 513.242 631.995 512.2L632 512H630C630.002 512.519 629.803 513.019 629.444 513.393C629.084 513.768 628.594 513.988 628.075 514.008C627.556 514.027 627.05 513.844 626.664 513.498C626.278 513.151 626.042 512.668 626.005 512.15L626 512Z" fill="white"/>
<path opacity="0.08" d="M1180 812.5L1184.23 818.683L1191.41 820.792L1186.84 826.722L1187.05 834.208L1180 831.69L1172.95 834.208L1173.16 826.722L1168.59 820.792L1175.77 818.683L1180 812.5Z" fill="white"/>
<path opacity="0.08" d="M444 292.5L448.226 298.683L455.413 300.792L450.838 306.722L451.053 314.208L444 311.69L436.947 314.208L437.162 306.722L432.587 300.792L439.774 298.683L444 292.5Z" fill="white"/>
<path opacity="0.08" d="M67.9324 414.871C63.9506 414.255 63.4453 411.563 64.4382 409.869C64.899 409.158 65.4494 408.506 66.0764 407.929C67.1691 406.978 68.377 406.162 69.6729 405.499C71.9277 404.304 74.3968 403.545 76.9449 403.267C77.6919 403.172 78.4489 403.182 79.193 403.297C79.6326 403.355 80.056 403.499 80.4385 403.719C80.7303 403.873 80.9556 404.124 81.0728 404.428C81.1899 404.731 81.191 405.066 81.0758 405.371C80.8869 406.065 80.4289 406.659 79.7994 407.027C79.2801 407.357 78.7113 407.604 78.1138 407.761C78.0348 407.783 77.9535 407.796 77.8714 407.8C77.6971 407.809 77.6531 407.751 77.7165 407.589C77.7535 407.504 77.7965 407.422 77.8451 407.342C77.9866 407.12 78.0883 406.876 78.1458 406.62C78.1904 406.472 78.2006 406.317 78.1758 406.165C78.151 406.013 78.0918 405.869 78.0025 405.742C77.9132 405.615 77.796 405.51 77.6597 405.434C77.5234 405.357 77.3713 405.312 77.2147 405.301C76.6702 405.212 76.1146 405.212 75.5702 405.301C74.1415 405.508 72.7545 405.931 71.4586 406.556C70.5974 406.939 69.7888 407.427 69.0522 408.008L68.9905 408.055C69.0053 407.963 69.0173 407.891 69.0288 407.819C69.0424 407.761 69.0402 407.7 69.0226 407.643C69.0049 407.586 68.9724 407.534 68.9281 407.493C68.8838 407.452 68.8294 407.423 68.7701 407.409C68.7109 407.395 68.6489 407.396 68.5903 407.412C68.4655 407.44 68.3474 407.491 68.2428 407.563C67.4028 408.073 66.6427 408.7 65.9861 409.424C65.5702 409.885 65.2858 410.445 65.1619 411.048C65.0822 411.475 65.1128 411.914 65.251 412.326C65.3892 412.738 65.6305 413.109 65.953 413.406C66.504 413.95 67.202 414.328 67.965 414.496C68.4724 414.618 68.9882 414.702 69.5083 414.749C70.1374 414.806 70.7697 414.821 71.4009 414.795C71.7501 414.781 72.5721 414.757 72.5721 414.757C72.5721 414.757 72.204 414.822 72.0268 414.849C71.2707 414.946 70.5092 414.996 69.7467 415C69.1394 415.003 68.5328 414.96 67.9324 414.871ZM70.6475 414.613C70.0295 414.607 69.4127 414.559 68.8013 414.47C68.4405 414.415 68.084 414.337 67.7341 414.235C67.2743 414.12 66.8441 413.912 66.4713 413.625C66.0986 413.337 65.7915 412.976 65.57 412.565C65.3867 412.209 65.2971 411.814 65.3092 411.415C65.3214 411.016 65.435 410.627 65.6397 410.282C65.9584 409.703 66.3903 409.191 66.911 408.775C67.3546 408.404 67.8218 408.06 68.3097 407.746C68.4 407.683 68.501 407.635 68.6081 407.606C68.7738 407.566 68.8704 407.651 68.8321 407.812C68.7938 407.973 68.7384 408.137 68.6909 408.299C68.6706 408.348 68.638 408.391 68.596 408.424C68.2297 408.772 67.9415 409.192 67.7501 409.656C67.65 409.885 67.5971 410.131 67.5945 410.381C67.5918 410.63 67.6393 410.877 67.7344 411.108C67.8294 411.339 67.9701 411.55 68.1484 411.728C68.3267 411.905 68.539 412.047 68.7732 412.144C69.4374 412.453 70.1171 412.726 70.7973 412.999C71.3415 413.218 71.8879 413.434 72.4344 413.649C72.9968 413.87 73.5604 414.089 74.1492 414.317C73.5913 414.416 73.0545 414.485 72.5161 414.536C71.9874 414.587 71.4563 414.618 70.9259 414.618C70.8322 414.617 70.7394 414.615 70.6475 414.613ZM74.6796 414.21C74.6525 414.205 74.6261 414.198 74.6007 414.187C73.6713 413.826 72.7407 413.466 71.809 413.108C71.4941 412.986 71.1803 412.859 70.867 412.735C70.867 412.732 71.0454 412.747 71.2609 412.762C71.4632 412.776 71.6998 412.79 71.8582 412.79C72.4279 412.794 72.9972 412.759 73.5621 412.687C74.3261 412.576 75.0837 412.426 75.832 412.239C76.9552 411.967 78.0612 411.64 79.1644 411.297C79.8172 411.094 80.4791 410.915 81.1216 410.685C81.17 410.663 81.2228 410.651 81.2762 410.651C81.3296 410.651 81.3824 410.663 81.4308 410.685C81.4515 410.691 81.4704 410.702 81.4863 410.717C81.5022 410.731 81.5147 410.749 81.5228 410.769C81.5309 410.789 81.5345 410.81 81.5333 410.831C81.5322 410.852 81.5262 410.873 81.516 410.892C81.4657 411.007 81.3913 411.111 81.2976 411.196C80.9456 411.518 80.5564 411.798 80.1378 412.032C78.8054 412.824 77.3807 413.458 75.8943 413.918C75.522 414.047 75.1396 414.146 74.7511 414.215C74.7388 414.217 74.7263 414.217 74.7139 414.217C74.7023 414.216 74.6908 414.213 74.6796 414.21ZM78.2498 413.198C78.8219 412.946 79.379 412.662 79.9183 412.349C80.3484 412.109 80.7594 411.838 81.1479 411.537C81.3281 411.404 81.4806 411.239 81.5971 411.049C81.6446 410.988 81.6702 410.913 81.6702 410.836C81.6702 410.759 81.6446 410.684 81.5971 410.622C81.5436 410.552 81.4697 410.5 81.3853 410.473C81.3008 410.445 81.2099 410.444 81.1244 410.468C80.7952 410.562 80.4728 410.681 80.1447 410.779C78.7071 411.209 77.2821 411.684 75.8194 412.031C74.6671 412.32 73.4888 412.498 72.3012 412.562C71.6875 412.594 71.0721 412.566 70.464 412.479C70.2838 412.451 70.1041 412.415 69.925 412.372C69.4731 412.273 69.0423 412.097 68.6521 411.853C68.4555 411.746 68.2826 411.602 68.1433 411.43C68.0039 411.257 67.901 411.059 67.8405 410.847C67.7799 410.635 67.7629 410.413 67.7905 410.194C67.818 409.976 67.8896 409.765 68.001 409.574C68.1362 409.286 68.3172 409.021 68.5372 408.79C68.5019 409.022 68.4807 409.256 68.4737 409.491C68.4447 409.879 68.5521 410.265 68.778 410.584C69.004 410.904 69.335 411.138 69.7158 411.248C70.3867 411.479 71.0927 411.597 71.8039 411.597C72.6332 411.609 73.4612 411.529 74.2721 411.358C75.5527 411.096 76.8003 410.697 77.9926 410.169C79.1639 409.677 80.2594 409.027 81.2473 408.239C81.9501 407.684 82.5544 407.019 83.0359 406.271C83.3166 405.852 83.4726 405.365 83.4863 404.864C83.4883 404.629 83.4383 404.396 83.3396 404.182C83.2409 403.967 83.0959 403.777 82.9147 403.623C82.557 403.316 82.134 403.092 81.6766 402.967C80.5518 402.639 79.375 402.518 78.2053 402.609C76.7408 402.707 75.2887 402.937 73.8674 403.296C73.1338 403.476 72.4098 403.689 71.6953 403.935C70.4806 404.364 69.3064 404.896 68.1862 405.525C68.0765 405.586 67.9627 405.641 67.8507 405.699C68.0978 405.469 68.3598 405.256 68.6349 405.059C69.5257 404.49 70.4604 403.989 71.4306 403.562C73.3941 402.694 75.4352 402.007 77.5279 401.508C78.5348 401.264 79.5608 401.105 80.5951 401.031C81.1076 400.994 81.622 400.99 82.135 401.019C83.0088 401.06 83.8764 401.186 84.7249 401.394C85.2148 401.518 85.6904 401.691 86.1442 401.91C86.6295 402.134 87.0599 402.458 87.4063 402.859C87.8159 403.351 88.0263 403.974 87.9974 404.608C87.946 405.436 87.7015 406.24 87.2829 406.961C85.4652 410.019 79.0798 413.2 78.2744 413.2L78.2498 413.198Z" fill="white"/>
<path opacity="0.08" d="M996 292.5L1000.23 298.683L1007.41 300.792L1002.84 306.722L1003.05 314.208L996 311.69L988.947 314.208L989.162 306.722L984.587 300.792L991.774 298.683L996 292.5Z" fill="white"/>
<path opacity="0.08" d="M67.9324 726.871C63.9506 726.255 63.4453 723.563 64.4382 721.869C64.899 721.158 65.4494 720.506 66.0764 719.929C67.1691 718.978 68.377 718.162 69.6729 717.499C71.9277 716.304 74.3968 715.545 76.9449 715.267C77.6919 715.172 78.4489 715.182 79.193 715.297C79.6326 715.355 80.056 715.499 80.4385 715.719C80.7303 715.873 80.9556 716.124 81.0728 716.428C81.1899 716.731 81.191 717.066 81.0758 717.371C80.8869 718.065 80.4289 718.659 79.7994 719.027C79.2801 719.357 78.7113 719.604 78.1138 719.761C78.0348 719.783 77.9535 719.796 77.8714 719.8C77.6971 719.809 77.6531 719.751 77.7165 719.589C77.7535 719.504 77.7965 719.422 77.8451 719.342C77.9866 719.12 78.0883 718.876 78.1458 718.62C78.1904 718.472 78.2006 718.317 78.1758 718.165C78.151 718.013 78.0918 717.869 78.0025 717.742C77.9132 717.615 77.796 717.51 77.6597 717.434C77.5234 717.357 77.3713 717.312 77.2147 717.301C76.6702 717.212 76.1146 717.212 75.5702 717.301C74.1415 717.508 72.7545 717.931 71.4586 718.556C70.5974 718.939 69.7888 719.427 69.0522 720.008L68.9905 720.055C69.0053 719.963 69.0173 719.891 69.0288 719.819C69.0424 719.761 69.0402 719.7 69.0226 719.643C69.0049 719.586 68.9724 719.534 68.9281 719.493C68.8838 719.452 68.8294 719.423 68.7701 719.409C68.7109 719.395 68.6489 719.396 68.5903 719.412C68.4655 719.44 68.3474 719.491 68.2428 719.563C67.4028 720.073 66.6427 720.7 65.9861 721.424C65.5702 721.885 65.2858 722.445 65.1619 723.048C65.0822 723.475 65.1128 723.914 65.251 724.326C65.3892 724.738 65.6305 725.109 65.953 725.406C66.504 725.95 67.202 726.328 67.965 726.496C68.4724 726.618 68.9882 726.702 69.5083 726.749C70.1374 726.806 70.7697 726.821 71.4009 726.795C71.7501 726.781 72.5721 726.757 72.5721 726.757C72.5721 726.757 72.204 726.822 72.0268 726.849C71.2707 726.946 70.5092 726.996 69.7467 727C69.1394 727.003 68.5328 726.96 67.9324 726.871ZM70.6475 726.613C70.0295 726.607 69.4127 726.559 68.8013 726.47C68.4405 726.415 68.084 726.337 67.7341 726.235C67.2743 726.12 66.8441 725.912 66.4713 725.625C66.0986 725.337 65.7915 724.976 65.57 724.565C65.3867 724.209 65.2971 723.814 65.3092 723.415C65.3214 723.016 65.435 722.627 65.6397 722.282C65.9584 721.703 66.3903 721.191 66.911 720.775C67.3546 720.404 67.8218 720.06 68.3097 719.746C68.4 719.683 68.501 719.635 68.6081 719.606C68.7738 719.566 68.8704 719.651 68.8321 719.812C68.7938 719.973 68.7384 720.137 68.6909 720.299C68.6706 720.348 68.638 720.391 68.596 720.424C68.2297 720.772 67.9415 721.192 67.7501 721.656C67.65 721.885 67.5971 722.131 67.5945 722.381C67.5918 722.63 67.6393 722.877 67.7344 723.108C67.8294 723.339 67.9701 723.55 68.1484 723.728C68.3267 723.905 68.539 724.047 68.7732 724.144C69.4374 724.453 70.1171 724.726 70.7973 724.999C71.3415 725.218 71.8879 725.434 72.4344 725.649C72.9968 725.87 73.5604 726.089 74.1492 726.317C73.5913 726.416 73.0545 726.485 72.5161 726.536C71.9874 726.587 71.4563 726.618 70.9259 726.618C70.8322 726.617 70.7394 726.615 70.6475 726.613ZM74.6796 726.21C74.6525 726.205 74.6261 726.198 74.6007 726.187C73.6713 725.826 72.7407 725.466 71.809 725.108C71.4941 724.986 71.1803 724.859 70.867 724.735C70.867 724.732 71.0454 724.747 71.2609 724.762C71.4632 724.776 71.6998 724.79 71.8582 724.79C72.4279 724.794 72.9972 724.759 73.5621 724.687C74.3261 724.576 75.0837 724.426 75.832 724.239C76.9552 723.967 78.0612 723.64 79.1644 723.297C79.8172 723.094 80.4791 722.915 81.1216 722.685C81.17 722.663 81.2228 722.651 81.2762 722.651C81.3296 722.651 81.3824 722.663 81.4308 722.685C81.4515 722.691 81.4704 722.702 81.4863 722.717C81.5022 722.731 81.5147 722.749 81.5228 722.769C81.5309 722.789 81.5345 722.81 81.5333 722.831C81.5322 722.852 81.5262 722.873 81.516 722.892C81.4657 723.007 81.3913 723.111 81.2976 723.196C80.9456 723.518 80.5564 723.798 80.1378 724.032C78.8054 724.824 77.3807 725.458 75.8943 725.918C75.522 726.047 75.1396 726.146 74.7511 726.215C74.7388 726.217 74.7263 726.217 74.7139 726.217C74.7023 726.216 74.6908 726.213 74.6796 726.21ZM78.2498 725.198C78.8219 724.946 79.379 724.662 79.9183 724.349C80.3484 724.109 80.7594 723.838 81.1479 723.537C81.3281 723.404 81.4806 723.239 81.5971 723.049C81.6446 722.988 81.6702 722.913 81.6702 722.836C81.6702 722.759 81.6446 722.684 81.5971 722.622C81.5436 722.552 81.4697 722.5 81.3853 722.473C81.3008 722.445 81.2099 722.444 81.1244 722.468C80.7952 722.562 80.4728 722.681 80.1447 722.779C78.7071 723.209 77.2821 723.684 75.8194 724.031C74.6671 724.32 73.4888 724.498 72.3012 724.562C71.6875 724.594 71.0721 724.566 70.464 724.479C70.2838 724.451 70.1041 724.415 69.925 724.372C69.4731 724.273 69.0423 724.097 68.6521 723.853C68.4555 723.746 68.2826 723.602 68.1433 723.43C68.0039 723.257 67.901 723.059 67.8405 722.847C67.7799 722.635 67.7629 722.413 67.7905 722.194C67.818 721.976 67.8896 721.765 68.001 721.574C68.1362 721.286 68.3172 721.021 68.5372 720.79C68.5019 721.022 68.4807 721.256 68.4737 721.491C68.4447 721.879 68.5521 722.265 68.778 722.584C69.004 722.904 69.335 723.138 69.7158 723.248C70.3867 723.479 71.0927 723.597 71.8039 723.597C72.6332 723.609 73.4612 723.529 74.2721 723.358C75.5527 723.096 76.8003 722.697 77.9926 722.169C79.1639 721.677 80.2594 721.027 81.2473 720.239C81.9501 719.684 82.5544 719.019 83.0359 718.271C83.3166 717.852 83.4726 717.365 83.4863 716.864C83.4883 716.629 83.4383 716.396 83.3396 716.182C83.2409 715.967 83.0959 715.777 82.9147 715.623C82.557 715.316 82.134 715.092 81.6766 714.967C80.5518 714.639 79.375 714.518 78.2053 714.609C76.7408 714.707 75.2887 714.937 73.8674 715.296C73.1338 715.476 72.4098 715.689 71.6953 715.935C70.4806 716.364 69.3064 716.896 68.1862 717.525C68.0765 717.586 67.9627 717.641 67.8507 717.699C68.0978 717.469 68.3598 717.256 68.6349 717.059C69.5257 716.49 70.4604 715.989 71.4306 715.562C73.3941 714.694 75.4352 714.007 77.5279 713.508C78.5348 713.264 79.5608 713.105 80.5951 713.031C81.1076 712.994 81.622 712.99 82.135 713.019C83.0088 713.06 83.8764 713.186 84.7249 713.394C85.2148 713.518 85.6904 713.691 86.1442 713.91C86.6295 714.134 87.0599 714.458 87.4063 714.859C87.8159 715.351 88.0263 715.974 87.9974 716.608C87.946 717.436 87.7015 718.24 87.2829 718.961C85.4652 722.019 79.0798 725.2 78.2744 725.2L78.2498 725.198Z" fill="white"/>
<path opacity="0.08" d="M444 604.5L448.226 610.683L455.413 612.792L450.838 618.722L451.053 626.208L444 623.69L436.947 626.208L437.162 618.722L432.587 612.792L439.774 610.683L444 604.5Z" fill="white"/>
<path opacity="0.08" d="M996 604.5L1000.23 610.683L1007.41 612.792L1002.84 618.722L1003.05 626.208L996 623.69L988.947 626.208L989.162 618.722L984.587 612.792L991.774 610.683L996 604.5Z" fill="white"/>
<path opacity="0.08" d="M1171.93 102.871C1167.95 102.255 1167.45 99.5634 1168.44 97.8693C1168.9 97.1577 1169.45 96.5057 1170.08 95.9288C1171.17 94.9777 1172.38 94.1618 1173.67 93.4994C1175.93 92.3036 1178.4 91.5454 1180.94 91.2666C1181.69 91.172 1182.45 91.1824 1183.19 91.2974C1183.63 91.3555 1184.06 91.4988 1184.44 91.7191C1184.73 91.8726 1184.96 92.1244 1185.07 92.4279C1185.19 92.7315 1185.19 93.0663 1185.08 93.3706C1184.89 94.0646 1184.43 94.659 1183.8 95.0272C1183.28 95.3566 1182.71 95.6043 1182.11 95.7614C1182.03 95.7832 1181.95 95.7961 1181.87 95.8C1181.7 95.809 1181.65 95.7513 1181.72 95.5894C1181.75 95.5043 1181.8 95.4218 1181.85 95.3425C1181.99 95.1202 1182.09 94.8759 1182.15 94.62C1182.19 94.4725 1182.2 94.317 1182.18 94.1651C1182.15 94.0131 1182.09 93.8686 1182 93.742C1181.91 93.6155 1181.8 93.5101 1181.66 93.4337C1181.52 93.3573 1181.37 93.3118 1181.21 93.3006C1180.67 93.2121 1180.11 93.2121 1179.57 93.3006C1178.14 93.5076 1176.75 93.931 1175.46 94.5556C1174.6 94.9386 1173.79 95.4265 1173.05 96.0078L1172.99 96.0554C1173.01 95.963 1173.02 95.8913 1173.03 95.8191C1173.04 95.7608 1173.04 95.7001 1173.02 95.643C1173 95.5858 1172.97 95.5341 1172.93 95.4931C1172.88 95.452 1172.83 95.423 1172.77 95.4088C1172.71 95.3947 1172.65 95.396 1172.59 95.4125C1172.47 95.4398 1172.35 95.491 1172.24 95.5631C1171.4 96.0735 1170.64 96.7003 1169.99 97.4241C1169.57 97.8849 1169.29 98.4452 1169.16 99.0482C1169.08 99.4747 1169.11 99.9139 1169.25 100.326C1169.39 100.738 1169.63 101.109 1169.95 101.406C1170.5 101.95 1171.2 102.328 1171.97 102.496C1172.47 102.618 1172.99 102.702 1173.51 102.749C1174.14 102.806 1174.77 102.821 1175.4 102.795C1175.75 102.781 1176.57 102.757 1176.57 102.757C1176.57 102.757 1176.2 102.822 1176.03 102.849C1175.27 102.946 1174.51 102.996 1173.75 103C1173.14 103.003 1172.53 102.96 1171.93 102.871ZM1174.65 102.613C1174.03 102.607 1173.41 102.559 1172.8 102.47C1172.44 102.415 1172.08 102.337 1171.73 102.235C1171.27 102.12 1170.84 101.912 1170.47 101.625C1170.1 101.337 1169.79 100.976 1169.57 100.565C1169.39 100.209 1169.3 99.8138 1169.31 99.415C1169.32 99.0163 1169.44 98.6269 1169.64 98.2821C1169.96 97.7028 1170.39 97.1907 1170.91 96.775C1171.35 96.4036 1171.82 96.0599 1172.31 95.7463C1172.4 95.6827 1172.5 95.6352 1172.61 95.6057C1172.77 95.5659 1172.87 95.6511 1172.83 95.8118C1172.79 95.9725 1172.74 96.1366 1172.69 96.299C1172.67 96.3478 1172.64 96.3908 1172.6 96.4239C1172.23 96.7725 1171.94 97.1921 1171.75 97.656C1171.65 97.8851 1171.6 98.1313 1171.59 98.3806C1171.59 98.6298 1171.64 98.8771 1171.73 99.1082C1171.83 99.3394 1171.97 99.5499 1172.15 99.7277C1172.33 99.9054 1172.54 100.047 1172.77 100.144C1173.44 100.453 1174.12 100.726 1174.8 100.999C1175.34 101.218 1175.89 101.434 1176.43 101.649C1177 101.87 1177.56 102.089 1178.15 102.317C1177.59 102.416 1177.05 102.485 1176.52 102.536C1175.99 102.587 1175.46 102.618 1174.93 102.618C1174.83 102.617 1174.74 102.615 1174.65 102.613ZM1178.68 102.21C1178.65 102.205 1178.63 102.198 1178.6 102.187C1177.67 101.826 1176.74 101.466 1175.81 101.108C1175.49 100.986 1175.18 100.859 1174.87 100.735C1174.87 100.732 1175.05 100.747 1175.26 100.762C1175.46 100.776 1175.7 100.79 1175.86 100.79C1176.43 100.794 1177 100.759 1177.56 100.687C1178.33 100.576 1179.08 100.426 1179.83 100.239C1180.96 99.9672 1182.06 99.6402 1183.16 99.2974C1183.82 99.0941 1184.48 98.9149 1185.12 98.6847C1185.17 98.6626 1185.22 98.6511 1185.28 98.6511C1185.33 98.6511 1185.38 98.6626 1185.43 98.6847C1185.45 98.6913 1185.47 98.7023 1185.49 98.7168C1185.5 98.7313 1185.51 98.7491 1185.52 98.7689C1185.53 98.7886 1185.53 98.8099 1185.53 98.8311C1185.53 98.8524 1185.53 98.8732 1185.52 98.892C1185.47 99.0072 1185.39 99.1108 1185.3 99.1961C1184.95 99.5179 1184.56 99.7984 1184.14 100.032C1182.81 100.824 1181.38 101.458 1179.89 101.918C1179.52 102.047 1179.14 102.146 1178.75 102.215C1178.74 102.217 1178.73 102.217 1178.71 102.217C1178.7 102.216 1178.69 102.213 1178.68 102.21ZM1182.25 101.198C1182.82 100.946 1183.38 100.662 1183.92 100.349C1184.35 100.109 1184.76 99.8375 1185.15 99.5371C1185.33 99.4042 1185.48 99.2386 1185.6 99.0493C1185.64 98.9878 1185.67 98.9128 1185.67 98.8357C1185.67 98.7586 1185.64 98.6836 1185.6 98.622C1185.54 98.5524 1185.47 98.5004 1185.39 98.4728C1185.3 98.4453 1185.21 98.4437 1185.12 98.468C1184.8 98.5621 1184.47 98.6808 1184.14 98.7794C1182.71 99.2095 1181.28 99.6838 1179.82 100.031C1178.67 100.32 1177.49 100.498 1176.3 100.562C1175.69 100.594 1175.07 100.566 1174.46 100.479C1174.28 100.451 1174.1 100.415 1173.93 100.372C1173.47 100.273 1173.04 100.097 1172.65 99.853C1172.46 99.7462 1172.28 99.6023 1172.14 99.4295C1172 99.2568 1171.9 99.0586 1171.84 98.8466C1171.78 98.6346 1171.76 98.4129 1171.79 98.1943C1171.82 97.9758 1171.89 97.7648 1172 97.5736C1172.14 97.2861 1172.32 97.0214 1172.54 96.7896C1172.5 97.0219 1172.48 97.256 1172.47 97.4908C1172.44 97.8786 1172.55 98.2646 1172.78 98.5843C1173 98.9041 1173.33 99.1384 1173.72 99.2481C1174.39 99.4793 1175.09 99.5973 1175.8 99.597C1176.63 99.6093 1177.46 99.5293 1178.27 99.3585C1179.55 99.0958 1180.8 98.6969 1181.99 98.169C1183.16 97.677 1184.26 97.0273 1185.25 96.2385C1185.95 95.6835 1186.55 95.0186 1187.04 94.2706C1187.32 93.8518 1187.47 93.3646 1187.49 92.8638C1187.49 92.6287 1187.44 92.396 1187.34 92.1817C1187.24 91.9675 1187.1 91.7767 1186.91 91.6227C1186.56 91.3165 1186.13 91.0924 1185.68 90.9669C1184.55 90.6395 1183.37 90.5182 1182.21 90.6091C1180.74 90.7069 1179.29 90.9368 1177.87 91.2957C1177.13 91.4756 1176.41 91.6888 1175.7 91.9352C1174.48 92.3639 1173.31 92.8957 1172.19 93.5246C1172.08 93.5857 1171.96 93.6411 1171.85 93.6988C1172.1 93.4694 1172.36 93.2557 1172.63 93.0592C1173.53 92.4897 1174.46 91.989 1175.43 91.5617C1177.39 90.6943 1179.44 90.0067 1181.53 89.5075C1182.53 89.2644 1183.56 89.1051 1184.6 89.0315C1185.11 88.9941 1185.62 88.99 1186.14 89.0192C1187.01 89.0603 1187.88 89.186 1188.72 89.3944C1189.21 89.5182 1189.69 89.6911 1190.14 89.9102C1190.63 90.1341 1191.06 90.4576 1191.41 90.8589C1191.82 91.3511 1192.03 91.9739 1192 92.6084C1191.95 93.4357 1191.7 94.2404 1191.28 94.9605C1189.47 98.0189 1183.08 101.2 1182.27 101.2L1182.25 101.198Z" fill="white"/>
<path opacity="0.08" d="M251.932 310.871C247.951 310.255 247.445 307.563 248.438 305.869C248.899 305.158 249.449 304.506 250.076 303.929C251.169 302.978 252.377 302.162 253.673 301.499C255.928 300.304 258.397 299.545 260.945 299.267C261.692 299.172 262.449 299.182 263.193 299.297C263.633 299.355 264.056 299.499 264.439 299.719C264.73 299.873 264.956 300.124 265.073 300.428C265.19 300.731 265.191 301.066 265.076 301.371C264.887 302.065 264.429 302.659 263.799 303.027C263.28 303.357 262.711 303.604 262.114 303.761C262.035 303.783 261.953 303.796 261.871 303.8C261.697 303.809 261.653 303.751 261.717 303.589C261.753 303.504 261.796 303.422 261.845 303.342C261.987 303.12 262.088 302.876 262.146 302.62C262.19 302.472 262.201 302.317 262.176 302.165C262.151 302.013 262.092 301.869 262.002 301.742C261.913 301.615 261.796 301.51 261.66 301.434C261.523 301.357 261.371 301.312 261.215 301.301C260.67 301.212 260.115 301.212 259.57 301.301C258.142 301.508 256.754 301.931 255.459 302.556C254.597 302.939 253.789 303.427 253.052 304.008L252.99 304.055C253.005 303.963 253.017 303.891 253.029 303.819C253.042 303.761 253.04 303.7 253.023 303.643C253.005 303.586 252.972 303.534 252.928 303.493C252.884 303.452 252.829 303.423 252.77 303.409C252.711 303.395 252.649 303.396 252.59 303.412C252.465 303.44 252.347 303.491 252.243 303.563C251.403 304.073 250.643 304.7 249.986 305.424C249.57 305.885 249.286 306.445 249.162 307.048C249.082 307.475 249.113 307.914 249.251 308.326C249.389 308.738 249.631 309.109 249.953 309.406C250.504 309.95 251.202 310.328 251.965 310.496C252.472 310.618 252.988 310.702 253.508 310.749C254.137 310.806 254.77 310.821 255.401 310.795C255.75 310.781 256.572 310.757 256.572 310.757C256.572 310.757 256.204 310.822 256.027 310.849C255.271 310.946 254.509 310.996 253.747 311C253.139 311.003 252.533 310.96 251.932 310.871ZM254.648 310.613C254.03 310.607 253.413 310.559 252.801 310.47C252.441 310.415 252.084 310.337 251.734 310.235C251.274 310.12 250.844 309.912 250.471 309.625C250.099 309.337 249.792 308.976 249.57 308.565C249.387 308.209 249.297 307.814 249.309 307.415C249.321 307.016 249.435 306.627 249.64 306.282C249.958 305.703 250.39 305.191 250.911 304.775C251.355 304.404 251.822 304.06 252.31 303.746C252.4 303.683 252.501 303.635 252.608 303.606C252.774 303.566 252.87 303.651 252.832 303.812C252.794 303.973 252.738 304.137 252.691 304.299C252.671 304.348 252.638 304.391 252.596 304.424C252.23 304.772 251.942 305.192 251.75 305.656C251.65 305.885 251.597 306.131 251.594 306.381C251.592 306.63 251.639 306.877 251.734 307.108C251.829 307.339 251.97 307.55 252.148 307.728C252.327 307.905 252.539 308.047 252.773 308.144C253.437 308.453 254.117 308.726 254.797 308.999C255.341 309.218 255.888 309.434 256.434 309.649C256.997 309.87 257.56 310.089 258.149 310.317C257.591 310.416 257.055 310.485 256.516 310.536C255.987 310.587 255.456 310.618 254.926 310.618C254.832 310.617 254.739 310.615 254.648 310.613ZM258.68 310.21C258.653 310.205 258.626 310.198 258.601 310.187C257.671 309.826 256.741 309.466 255.809 309.108C255.494 308.986 255.18 308.859 254.867 308.735C254.867 308.732 255.045 308.747 255.261 308.762C255.463 308.776 255.7 308.79 255.858 308.79C256.428 308.794 256.997 308.759 257.562 308.687C258.326 308.576 259.084 308.426 259.832 308.239C260.955 307.967 262.061 307.64 263.164 307.297C263.817 307.094 264.479 306.915 265.122 306.685C265.17 306.663 265.223 306.651 265.276 306.651C265.33 306.651 265.382 306.663 265.431 306.685C265.451 306.691 265.47 306.702 265.486 306.717C265.502 306.731 265.515 306.749 265.523 306.769C265.531 306.789 265.535 306.81 265.533 306.831C265.532 306.852 265.526 306.873 265.516 306.892C265.466 307.007 265.391 307.111 265.298 307.196C264.946 307.518 264.556 307.798 264.138 308.032C262.805 308.824 261.381 309.458 259.894 309.918C259.522 310.047 259.14 310.146 258.751 310.215C258.739 310.217 258.726 310.217 258.714 310.217C258.702 310.216 258.691 310.213 258.68 310.21ZM262.25 309.198C262.822 308.946 263.379 308.662 263.918 308.349C264.348 308.109 264.759 307.838 265.148 307.537C265.328 307.404 265.481 307.239 265.597 307.049C265.645 306.988 265.67 306.913 265.67 306.836C265.67 306.759 265.645 306.684 265.597 306.622C265.544 306.552 265.47 306.5 265.385 306.473C265.301 306.445 265.21 306.444 265.124 306.468C264.795 306.562 264.473 306.681 264.145 306.779C262.707 307.209 261.282 307.684 259.819 308.031C258.667 308.32 257.489 308.498 256.301 308.562C255.687 308.594 255.072 308.566 254.464 308.479C254.284 308.451 254.104 308.415 253.925 308.372C253.473 308.273 253.042 308.097 252.652 307.853C252.456 307.746 252.283 307.602 252.143 307.43C252.004 307.257 251.901 307.059 251.84 306.847C251.78 306.635 251.763 306.413 251.79 306.194C251.818 305.976 251.89 305.765 252.001 305.574C252.136 305.286 252.317 305.021 252.537 304.79C252.502 305.022 252.481 305.256 252.474 305.491C252.445 305.879 252.552 306.265 252.778 306.584C253.004 306.904 253.335 307.138 253.716 307.248C254.387 307.479 255.093 307.597 255.804 307.597C256.633 307.609 257.461 307.529 258.272 307.358C259.553 307.096 260.8 306.697 261.993 306.169C263.164 305.677 264.259 305.027 265.247 304.239C265.95 303.684 266.554 303.019 267.036 302.271C267.317 301.852 267.473 301.365 267.486 300.864C267.488 300.629 267.438 300.396 267.34 300.182C267.241 299.967 267.096 299.777 266.915 299.623C266.557 299.316 266.134 299.092 265.677 298.967C264.552 298.639 263.375 298.518 262.205 298.609C260.741 298.707 259.289 298.937 257.867 299.296C257.134 299.476 256.41 299.689 255.695 299.935C254.481 300.364 253.306 300.896 252.186 301.525C252.076 301.586 251.963 301.641 251.851 301.699C252.098 301.469 252.36 301.256 252.635 301.059C253.526 300.49 254.46 299.989 255.431 299.562C257.394 298.694 259.435 298.007 261.528 297.508C262.535 297.264 263.561 297.105 264.595 297.031C265.108 296.994 265.622 296.99 266.135 297.019C267.009 297.06 267.876 297.186 268.725 297.394C269.215 297.518 269.69 297.691 270.144 297.91C270.629 298.134 271.06 298.458 271.406 298.859C271.816 299.351 272.026 299.974 271.997 300.608C271.946 301.436 271.702 302.24 271.283 302.961C269.465 306.019 263.08 309.2 262.274 309.2L262.25 309.198Z" fill="white"/>
<path opacity="0.08" d="M619.932 414.871C615.951 414.255 615.445 411.563 616.438 409.869C616.899 409.158 617.449 408.506 618.076 407.929C619.169 406.978 620.377 406.162 621.673 405.499C623.928 404.304 626.397 403.545 628.945 403.267C629.692 403.172 630.449 403.182 631.193 403.297C631.633 403.355 632.056 403.499 632.439 403.719C632.73 403.873 632.956 404.124 633.073 404.428C633.19 404.731 633.191 405.066 633.076 405.371C632.887 406.065 632.429 406.659 631.799 407.027C631.28 407.357 630.711 407.604 630.114 407.761C630.035 407.783 629.953 407.796 629.871 407.8C629.697 407.809 629.653 407.751 629.717 407.589C629.753 407.504 629.796 407.422 629.845 407.342C629.987 407.12 630.088 406.876 630.146 406.62C630.19 406.472 630.201 406.317 630.176 406.165C630.151 406.013 630.092 405.869 630.002 405.742C629.913 405.615 629.796 405.51 629.66 405.434C629.523 405.357 629.371 405.312 629.215 405.301C628.67 405.212 628.115 405.212 627.57 405.301C626.142 405.508 624.754 405.931 623.459 406.556C622.597 406.939 621.789 407.427 621.052 408.008L620.99 408.055C621.005 407.963 621.017 407.891 621.029 407.819C621.042 407.761 621.04 407.7 621.023 407.643C621.005 407.586 620.972 407.534 620.928 407.493C620.884 407.452 620.829 407.423 620.77 407.409C620.711 407.395 620.649 407.396 620.59 407.412C620.465 407.44 620.347 407.491 620.243 407.563C619.403 408.073 618.643 408.7 617.986 409.424C617.57 409.885 617.286 410.445 617.162 411.048C617.082 411.475 617.113 411.914 617.251 412.326C617.389 412.738 617.631 413.109 617.953 413.406C618.504 413.95 619.202 414.328 619.965 414.496C620.472 414.618 620.988 414.702 621.508 414.749C622.137 414.806 622.77 414.821 623.401 414.795C623.75 414.781 624.572 414.757 624.572 414.757C624.572 414.757 624.204 414.822 624.027 414.849C623.271 414.946 622.509 414.996 621.747 415C621.139 415.003 620.533 414.96 619.932 414.871ZM622.648 414.613C622.03 414.607 621.413 414.559 620.801 414.47C620.441 414.415 620.084 414.337 619.734 414.235C619.274 414.12 618.844 413.912 618.471 413.625C618.099 413.337 617.792 412.976 617.57 412.565C617.387 412.209 617.297 411.814 617.309 411.415C617.321 411.016 617.435 410.627 617.64 410.282C617.958 409.703 618.39 409.191 618.911 408.775C619.355 408.404 619.822 408.06 620.31 407.746C620.4 407.683 620.501 407.635 620.608 407.606C620.774 407.566 620.87 407.651 620.832 407.812C620.794 407.973 620.738 408.137 620.691 408.299C620.671 408.348 620.638 408.391 620.596 408.424C620.23 408.772 619.942 409.192 619.75 409.656C619.65 409.885 619.597 410.131 619.594 410.381C619.592 410.63 619.639 410.877 619.734 411.108C619.829 411.339 619.97 411.55 620.148 411.728C620.327 411.905 620.539 412.047 620.773 412.144C621.437 412.453 622.117 412.726 622.797 412.999C623.341 413.218 623.888 413.434 624.434 413.649C624.997 413.87 625.56 414.089 626.149 414.317C625.591 414.416 625.055 414.485 624.516 414.536C623.987 414.587 623.456 414.618 622.926 414.618C622.832 414.617 622.739 414.615 622.648 414.613ZM626.68 414.21C626.653 414.205 626.626 414.198 626.601 414.187C625.671 413.826 624.741 413.466 623.809 413.108C623.494 412.986 623.18 412.859 622.867 412.735C622.867 412.732 623.045 412.747 623.261 412.762C623.463 412.776 623.7 412.79 623.858 412.79C624.428 412.794 624.997 412.759 625.562 412.687C626.326 412.576 627.084 412.426 627.832 412.239C628.955 411.967 630.061 411.64 631.164 411.297C631.817 411.094 632.479 410.915 633.122 410.685C633.17 410.663 633.223 410.651 633.276 410.651C633.33 410.651 633.382 410.663 633.431 410.685C633.451 410.691 633.47 410.702 633.486 410.717C633.502 410.731 633.515 410.749 633.523 410.769C633.531 410.789 633.535 410.81 633.533 410.831C633.532 410.852 633.526 410.873 633.516 410.892C633.466 411.007 633.391 411.111 633.298 411.196C632.946 411.518 632.556 411.798 632.138 412.032C630.805 412.824 629.381 413.458 627.894 413.918C627.522 414.047 627.14 414.146 626.751 414.215C626.739 414.217 626.726 414.217 626.714 414.217C626.702 414.216 626.691 414.213 626.68 414.21ZM630.25 413.198C630.822 412.946 631.379 412.662 631.918 412.349C632.348 412.109 632.759 411.838 633.148 411.537C633.328 411.404 633.481 411.239 633.597 411.049C633.645 410.988 633.67 410.913 633.67 410.836C633.67 410.759 633.645 410.684 633.597 410.622C633.544 410.552 633.47 410.5 633.385 410.473C633.301 410.445 633.21 410.444 633.124 410.468C632.795 410.562 632.473 410.681 632.145 410.779C630.707 411.209 629.282 411.684 627.819 412.031C626.667 412.32 625.489 412.498 624.301 412.562C623.687 412.594 623.072 412.566 622.464 412.479C622.284 412.451 622.104 412.415 621.925 412.372C621.473 412.273 621.042 412.097 620.652 411.853C620.456 411.746 620.283 411.602 620.143 411.43C620.004 411.257 619.901 411.059 619.84 410.847C619.78 410.635 619.763 410.413 619.79 410.194C619.818 409.976 619.89 409.765 620.001 409.574C620.136 409.286 620.317 409.021 620.537 408.79C620.502 409.022 620.481 409.256 620.474 409.491C620.445 409.879 620.552 410.265 620.778 410.584C621.004 410.904 621.335 411.138 621.716 411.248C622.387 411.479 623.093 411.597 623.804 411.597C624.633 411.609 625.461 411.529 626.272 411.358C627.553 411.096 628.8 410.697 629.993 410.169C631.164 409.677 632.259 409.027 633.247 408.239C633.95 407.684 634.554 407.019 635.036 406.271C635.317 405.852 635.473 405.365 635.486 404.864C635.488 404.629 635.438 404.396 635.34 404.182C635.241 403.967 635.096 403.777 634.915 403.623C634.557 403.316 634.134 403.092 633.677 402.967C632.552 402.639 631.375 402.518 630.205 402.609C628.741 402.707 627.289 402.937 625.867 403.296C625.134 403.476 624.41 403.689 623.695 403.935C622.481 404.364 621.306 404.896 620.186 405.525C620.076 405.586 619.963 405.641 619.851 405.699C620.098 405.469 620.36 405.256 620.635 405.059C621.526 404.49 622.46 403.989 623.431 403.562C625.394 402.694 627.435 402.007 629.528 401.508C630.535 401.264 631.561 401.105 632.595 401.031C633.108 400.994 633.622 400.99 634.135 401.019C635.009 401.06 635.876 401.186 636.725 401.394C637.215 401.518 637.69 401.691 638.144 401.91C638.629 402.134 639.06 402.458 639.406 402.859C639.816 403.351 640.026 403.974 639.997 404.608C639.946 405.436 639.702 406.24 639.283 406.961C637.465 410.019 631.08 413.2 630.274 413.2L630.25 413.198Z" fill="white"/>
<path opacity="0.08" d="M251.932 622.871C247.951 622.255 247.445 619.563 248.438 617.869C248.899 617.158 249.449 616.506 250.076 615.929C251.169 614.978 252.377 614.162 253.673 613.499C255.928 612.304 258.397 611.545 260.945 611.267C261.692 611.172 262.449 611.182 263.193 611.297C263.633 611.355 264.056 611.499 264.439 611.719C264.73 611.873 264.956 612.124 265.073 612.428C265.19 612.731 265.191 613.066 265.076 613.371C264.887 614.065 264.429 614.659 263.799 615.027C263.28 615.357 262.711 615.604 262.114 615.761C262.035 615.783 261.953 615.796 261.871 615.8C261.697 615.809 261.653 615.751 261.717 615.589C261.753 615.504 261.796 615.422 261.845 615.342C261.987 615.12 262.088 614.876 262.146 614.62C262.19 614.472 262.201 614.317 262.176 614.165C262.151 614.013 262.092 613.869 262.002 613.742C261.913 613.615 261.796 613.51 261.66 613.434C261.523 613.357 261.371 613.312 261.215 613.301C260.67 613.212 260.115 613.212 259.57 613.301C258.142 613.508 256.754 613.931 255.459 614.556C254.597 614.939 253.789 615.427 253.052 616.008L252.99 616.055C253.005 615.963 253.017 615.891 253.029 615.819C253.042 615.761 253.04 615.7 253.023 615.643C253.005 615.586 252.972 615.534 252.928 615.493C252.884 615.452 252.829 615.423 252.77 615.409C252.711 615.395 252.649 615.396 252.59 615.412C252.465 615.44 252.347 615.491 252.243 615.563C251.403 616.073 250.643 616.7 249.986 617.424C249.57 617.885 249.286 618.445 249.162 619.048C249.082 619.475 249.113 619.914 249.251 620.326C249.389 620.738 249.631 621.109 249.953 621.406C250.504 621.95 251.202 622.328 251.965 622.496C252.472 622.618 252.988 622.702 253.508 622.749C254.137 622.806 254.77 622.821 255.401 622.795C255.75 622.781 256.572 622.757 256.572 622.757C256.572 622.757 256.204 622.822 256.027 622.849C255.271 622.946 254.509 622.996 253.747 623C253.139 623.003 252.533 622.96 251.932 622.871ZM254.648 622.613C254.03 622.607 253.413 622.559 252.801 622.47C252.441 622.415 252.084 622.337 251.734 622.235C251.274 622.12 250.844 621.912 250.471 621.625C250.099 621.337 249.792 620.976 249.57 620.565C249.387 620.209 249.297 619.814 249.309 619.415C249.321 619.016 249.435 618.627 249.64 618.282C249.958 617.703 250.39 617.191 250.911 616.775C251.355 616.404 251.822 616.06 252.31 615.746C252.4 615.683 252.501 615.635 252.608 615.606C252.774 615.566 252.87 615.651 252.832 615.812C252.794 615.973 252.738 616.137 252.691 616.299C252.671 616.348 252.638 616.391 252.596 616.424C252.23 616.772 251.942 617.192 251.75 617.656C251.65 617.885 251.597 618.131 251.594 618.381C251.592 618.63 251.639 618.877 251.734 619.108C251.829 619.339 251.97 619.55 252.148 619.728C252.327 619.905 252.539 620.047 252.773 620.144C253.437 620.453 254.117 620.726 254.797 620.999C255.341 621.218 255.888 621.434 256.434 621.649C256.997 621.87 257.56 622.089 258.149 622.317C257.591 622.416 257.055 622.485 256.516 622.536C255.987 622.587 255.456 622.618 254.926 622.618C254.832 622.617 254.739 622.615 254.648 622.613ZM258.68 622.21C258.653 622.205 258.626 622.198 258.601 622.187C257.671 621.826 256.741 621.466 255.809 621.108C255.494 620.986 255.18 620.859 254.867 620.735C254.867 620.732 255.045 620.747 255.261 620.762C255.463 620.776 255.7 620.79 255.858 620.79C256.428 620.794 256.997 620.759 257.562 620.687C258.326 620.576 259.084 620.426 259.832 620.239C260.955 619.967 262.061 619.64 263.164 619.297C263.817 619.094 264.479 618.915 265.122 618.685C265.17 618.663 265.223 618.651 265.276 618.651C265.33 618.651 265.382 618.663 265.431 618.685C265.451 618.691 265.47 618.702 265.486 618.717C265.502 618.731 265.515 618.749 265.523 618.769C265.531 618.789 265.535 618.81 265.533 618.831C265.532 618.852 265.526 618.873 265.516 618.892C265.466 619.007 265.391 619.111 265.298 619.196C264.946 619.518 264.556 619.798 264.138 620.032C262.805 620.824 261.381 621.458 259.894 621.918C259.522 622.047 259.14 622.146 258.751 622.215C258.739 622.217 258.726 622.217 258.714 622.217C258.702 622.216 258.691 622.213 258.68 622.21ZM262.25 621.198C262.822 620.946 263.379 620.662 263.918 620.349C264.348 620.109 264.759 619.838 265.148 619.537C265.328 619.404 265.481 619.239 265.597 619.049C265.645 618.988 265.67 618.913 265.67 618.836C265.67 618.759 265.645 618.684 265.597 618.622C265.544 618.552 265.47 618.5 265.385 618.473C265.301 618.445 265.21 618.444 265.124 618.468C264.795 618.562 264.473 618.681 264.145 618.779C262.707 619.209 261.282 619.684 259.819 620.031C258.667 620.32 257.489 620.498 256.301 620.562C255.687 620.594 255.072 620.566 254.464 620.479C254.284 620.451 254.104 620.415 253.925 620.372C253.473 620.273 253.042 620.097 252.652 619.853C252.456 619.746 252.283 619.602 252.143 619.43C252.004 619.257 251.901 619.059 251.84 618.847C251.78 618.635 251.763 618.413 251.79 618.194C251.818 617.976 251.89 617.765 252.001 617.574C252.136 617.286 252.317 617.021 252.537 616.79C252.502 617.022 252.481 617.256 252.474 617.491C252.445 617.879 252.552 618.265 252.778 618.584C253.004 618.904 253.335 619.138 253.716 619.248C254.387 619.479 255.093 619.597 255.804 619.597C256.633 619.609 257.461 619.529 258.272 619.358C259.553 619.096 260.8 618.697 261.993 618.169C263.164 617.677 264.259 617.027 265.247 616.239C265.95 615.684 266.554 615.019 267.036 614.271C267.317 613.852 267.473 613.365 267.486 612.864C267.488 612.629 267.438 612.396 267.34 612.182C267.241 611.967 267.096 611.777 266.915 611.623C266.557 611.316 266.134 611.092 265.677 610.967C264.552 610.639 263.375 610.518 262.205 610.609C260.741 610.707 259.289 610.937 257.867 611.296C257.134 611.476 256.41 611.689 255.695 611.935C254.481 612.364 253.306 612.896 252.186 613.525C252.076 613.586 251.963 613.641 251.851 613.699C252.098 613.469 252.36 613.256 252.635 613.059C253.526 612.49 254.46 611.989 255.431 611.562C257.394 610.694 259.435 610.007 261.528 609.508C262.535 609.264 263.561 609.105 264.595 609.031C265.108 608.994 265.622 608.99 266.135 609.019C267.009 609.06 267.876 609.186 268.725 609.394C269.215 609.518 269.69 609.691 270.144 609.91C270.629 610.134 271.06 610.458 271.406 610.859C271.816 611.351 272.026 611.974 271.997 612.608C271.946 613.436 271.702 614.24 271.283 614.961C269.465 618.019 263.08 621.2 262.274 621.2L262.25 621.198Z" fill="white"/>
<path opacity="0.08" d="M619.932 726.871C615.951 726.255 615.445 723.563 616.438 721.869C616.899 721.158 617.449 720.506 618.076 719.929C619.169 718.978 620.377 718.162 621.673 717.499C623.928 716.304 626.397 715.545 628.945 715.267C629.692 715.172 630.449 715.182 631.193 715.297C631.633 715.355 632.056 715.499 632.439 715.719C632.73 715.873 632.956 716.124 633.073 716.428C633.19 716.731 633.191 717.066 633.076 717.371C632.887 718.065 632.429 718.659 631.799 719.027C631.28 719.357 630.711 719.604 630.114 719.761C630.035 719.783 629.953 719.796 629.871 719.8C629.697 719.809 629.653 719.751 629.717 719.589C629.753 719.504 629.796 719.422 629.845 719.342C629.987 719.12 630.088 718.876 630.146 718.62C630.19 718.472 630.201 718.317 630.176 718.165C630.151 718.013 630.092 717.869 630.002 717.742C629.913 717.615 629.796 717.51 629.66 717.434C629.523 717.357 629.371 717.312 629.215 717.301C628.67 717.212 628.115 717.212 627.57 717.301C626.142 717.508 624.754 717.931 623.459 718.556C622.597 718.939 621.789 719.427 621.052 720.008L620.99 720.055C621.005 719.963 621.017 719.891 621.029 719.819C621.042 719.761 621.04 719.7 621.023 719.643C621.005 719.586 620.972 719.534 620.928 719.493C620.884 719.452 620.829 719.423 620.77 719.409C620.711 719.395 620.649 719.396 620.59 719.412C620.465 719.44 620.347 719.491 620.243 719.563C619.403 720.073 618.643 720.7 617.986 721.424C617.57 721.885 617.286 722.445 617.162 723.048C617.082 723.475 617.113 723.914 617.251 724.326C617.389 724.738 617.631 725.109 617.953 725.406C618.504 725.95 619.202 726.328 619.965 726.496C620.472 726.618 620.988 726.702 621.508 726.749C622.137 726.806 622.77 726.821 623.401 726.795C623.75 726.781 624.572 726.757 624.572 726.757C624.572 726.757 624.204 726.822 624.027 726.849C623.271 726.946 622.509 726.996 621.747 727C621.139 727.003 620.533 726.96 619.932 726.871ZM622.648 726.613C622.03 726.607 621.413 726.559 620.801 726.47C620.441 726.415 620.084 726.337 619.734 726.235C619.274 726.12 618.844 725.912 618.471 725.625C618.099 725.337 617.792 724.976 617.57 724.565C617.387 724.209 617.297 723.814 617.309 723.415C617.321 723.016 617.435 722.627 617.64 722.282C617.958 721.703 618.39 721.191 618.911 720.775C619.355 720.404 619.822 720.06 620.31 719.746C620.4 719.683 620.501 719.635 620.608 719.606C620.774 719.566 620.87 719.651 620.832 719.812C620.794 719.973 620.738 720.137 620.691 720.299C620.671 720.348 620.638 720.391 620.596 720.424C620.23 720.772 619.942 721.192 619.75 721.656C619.65 721.885 619.597 722.131 619.594 722.381C619.592 722.63 619.639 722.877 619.734 723.108C619.829 723.339 619.97 723.55 620.148 723.728C620.327 723.905 620.539 724.047 620.773 724.144C621.437 724.453 622.117 724.726 622.797 724.999C623.341 725.218 623.888 725.434 624.434 725.649C624.997 725.87 625.56 726.089 626.149 726.317C625.591 726.416 625.055 726.485 624.516 726.536C623.987 726.587 623.456 726.618 622.926 726.618C622.832 726.617 622.739 726.615 622.648 726.613ZM626.68 726.21C626.653 726.205 626.626 726.198 626.601 726.187C625.671 725.826 624.741 725.466 623.809 725.108C623.494 724.986 623.18 724.859 622.867 724.735C622.867 724.732 623.045 724.747 623.261 724.762C623.463 724.776 623.7 724.79 623.858 724.79C624.428 724.794 624.997 724.759 625.562 724.687C626.326 724.576 627.084 724.426 627.832 724.239C628.955 723.967 630.061 723.64 631.164 723.297C631.817 723.094 632.479 722.915 633.122 722.685C633.17 722.663 633.223 722.651 633.276 722.651C633.33 722.651 633.382 722.663 633.431 722.685C633.451 722.691 633.47 722.702 633.486 722.717C633.502 722.731 633.515 722.749 633.523 722.769C633.531 722.789 633.535 722.81 633.533 722.831C633.532 722.852 633.526 722.873 633.516 722.892C633.466 723.007 633.391 723.111 633.298 723.196C632.946 723.518 632.556 723.798 632.138 724.032C630.805 724.824 629.381 725.458 627.894 725.918C627.522 726.047 627.14 726.146 626.751 726.215C626.739 726.217 626.726 726.217 626.714 726.217C626.702 726.216 626.691 726.213 626.68 726.21ZM630.25 725.198C630.822 724.946 631.379 724.662 631.918 724.349C632.348 724.109 632.759 723.838 633.148 723.537C633.328 723.404 633.481 723.239 633.597 723.049C633.645 722.988 633.67 722.913 633.67 722.836C633.67 722.759 633.645 722.684 633.597 722.622C633.544 722.552 633.47 722.5 633.385 722.473C633.301 722.445 633.21 722.444 633.124 722.468C632.795 722.562 632.473 722.681 632.145 722.779C630.707 723.209 629.282 723.684 627.819 724.031C626.667 724.32 625.489 724.498 624.301 724.562C623.687 724.594 623.072 724.566 622.464 724.479C622.284 724.451 622.104 724.415 621.925 724.372C621.473 724.273 621.042 724.097 620.652 723.853C620.456 723.746 620.283 723.602 620.143 723.43C620.004 723.257 619.901 723.059 619.84 722.847C619.78 722.635 619.763 722.413 619.79 722.194C619.818 721.976 619.89 721.765 620.001 721.574C620.136 721.286 620.317 721.021 620.537 720.79C620.502 721.022 620.481 721.256 620.474 721.491C620.445 721.879 620.552 722.265 620.778 722.584C621.004 722.904 621.335 723.138 621.716 723.248C622.387 723.479 623.093 723.597 623.804 723.597C624.633 723.609 625.461 723.529 626.272 723.358C627.553 723.096 628.8 722.697 629.993 722.169C631.164 721.677 632.259 721.027 633.247 720.239C633.95 719.684 634.554 719.019 635.036 718.271C635.317 717.852 635.473 717.365 635.486 716.864C635.488 716.629 635.438 716.396 635.34 716.182C635.241 715.967 635.096 715.777 634.915 715.623C634.557 715.316 634.134 715.092 633.677 714.967C632.552 714.639 631.375 714.518 630.205 714.609C628.741 714.707 627.289 714.937 625.867 715.296C625.134 715.476 624.41 715.689 623.695 715.935C622.481 716.364 621.306 716.896 620.186 717.525C620.076 717.586 619.963 717.641 619.851 717.699C620.098 717.469 620.36 717.256 620.635 717.059C621.526 716.49 622.46 715.989 623.431 715.562C625.394 714.694 627.435 714.007 629.528 713.508C630.535 713.264 631.561 713.105 632.595 713.031C633.108 712.994 633.622 712.99 634.135 713.019C635.009 713.06 635.876 713.186 636.725 713.394C637.215 713.518 637.69 713.691 638.144 713.91C638.629 714.134 639.06 714.458 639.406 714.859C639.816 715.351 640.026 715.974 639.997 716.608C639.946 717.436 639.702 718.24 639.283 718.961C637.465 722.019 631.08 725.2 630.274 725.2L630.25 725.198Z" fill="white"/>
<path opacity="0.08" d="M987.932 206.871C983.951 206.255 983.445 203.563 984.438 201.869C984.899 201.158 985.449 200.506 986.076 199.929C987.169 198.978 988.377 198.162 989.673 197.499C991.928 196.304 994.397 195.545 996.945 195.267C997.692 195.172 998.449 195.182 999.193 195.297C999.633 195.355 1000.06 195.499 1000.44 195.719C1000.73 195.873 1000.96 196.124 1001.07 196.428C1001.19 196.731 1001.19 197.066 1001.08 197.371C1000.89 198.065 1000.43 198.659 999.799 199.027C999.28 199.357 998.711 199.604 998.114 199.761C998.035 199.783 997.953 199.796 997.871 199.8C997.697 199.809 997.653 199.751 997.717 199.589C997.753 199.504 997.796 199.422 997.845 199.342C997.987 199.12 998.088 198.876 998.146 198.62C998.19 198.472 998.201 198.317 998.176 198.165C998.151 198.013 998.092 197.869 998.002 197.742C997.913 197.615 997.796 197.51 997.66 197.434C997.523 197.357 997.371 197.312 997.215 197.301C996.67 197.212 996.115 197.212 995.57 197.301C994.142 197.508 992.754 197.931 991.459 198.556C990.597 198.939 989.789 199.427 989.052 200.008L988.99 200.055C989.005 199.963 989.017 199.891 989.029 199.819C989.042 199.761 989.04 199.7 989.023 199.643C989.005 199.586 988.972 199.534 988.928 199.493C988.884 199.452 988.829 199.423 988.77 199.409C988.711 199.395 988.649 199.396 988.59 199.412C988.465 199.44 988.347 199.491 988.243 199.563C987.403 200.073 986.643 200.7 985.986 201.424C985.57 201.885 985.286 202.445 985.162 203.048C985.082 203.475 985.113 203.914 985.251 204.326C985.389 204.738 985.631 205.109 985.953 205.406C986.504 205.95 987.202 206.328 987.965 206.496C988.472 206.618 988.988 206.702 989.508 206.749C990.137 206.806 990.77 206.821 991.401 206.795C991.75 206.781 992.572 206.757 992.572 206.757C992.572 206.757 992.204 206.822 992.027 206.849C991.271 206.946 990.509 206.996 989.747 207C989.139 207.003 988.533 206.96 987.932 206.871ZM990.648 206.613C990.03 206.607 989.413 206.559 988.801 206.47C988.441 206.415 988.084 206.337 987.734 206.235C987.274 206.12 986.844 205.912 986.471 205.625C986.099 205.337 985.792 204.976 985.57 204.565C985.387 204.209 985.297 203.814 985.309 203.415C985.321 203.016 985.435 202.627 985.64 202.282C985.958 201.703 986.39 201.191 986.911 200.775C987.355 200.404 987.822 200.06 988.31 199.746C988.4 199.683 988.501 199.635 988.608 199.606C988.774 199.566 988.87 199.651 988.832 199.812C988.794 199.973 988.738 200.137 988.691 200.299C988.671 200.348 988.638 200.391 988.596 200.424C988.23 200.772 987.942 201.192 987.75 201.656C987.65 201.885 987.597 202.131 987.594 202.381C987.592 202.63 987.639 202.877 987.734 203.108C987.829 203.339 987.97 203.55 988.148 203.728C988.327 203.905 988.539 204.047 988.773 204.144C989.437 204.453 990.117 204.726 990.797 204.999C991.341 205.218 991.888 205.434 992.434 205.649C992.997 205.87 993.56 206.089 994.149 206.317C993.591 206.416 993.055 206.485 992.516 206.536C991.987 206.587 991.456 206.618 990.926 206.618C990.832 206.617 990.739 206.615 990.648 206.613ZM994.68 206.21C994.653 206.205 994.626 206.198 994.601 206.187C993.671 205.826 992.741 205.466 991.809 205.108C991.494 204.986 991.18 204.859 990.867 204.735C990.867 204.732 991.045 204.747 991.261 204.762C991.463 204.776 991.7 204.79 991.858 204.79C992.428 204.794 992.997 204.759 993.562 204.687C994.326 204.576 995.084 204.426 995.832 204.239C996.955 203.967 998.061 203.64 999.164 203.297C999.817 203.094 1000.48 202.915 1001.12 202.685C1001.17 202.663 1001.22 202.651 1001.28 202.651C1001.33 202.651 1001.38 202.663 1001.43 202.685C1001.45 202.691 1001.47 202.702 1001.49 202.717C1001.5 202.731 1001.51 202.749 1001.52 202.769C1001.53 202.789 1001.53 202.81 1001.53 202.831C1001.53 202.852 1001.53 202.873 1001.52 202.892C1001.47 203.007 1001.39 203.111 1001.3 203.196C1000.95 203.518 1000.56 203.798 1000.14 204.032C998.805 204.824 997.381 205.458 995.894 205.918C995.522 206.047 995.14 206.146 994.751 206.215C994.739 206.217 994.726 206.217 994.714 206.217C994.702 206.216 994.691 206.213 994.68 206.21ZM998.25 205.198C998.822 204.946 999.379 204.662 999.918 204.349C1000.35 204.109 1000.76 203.838 1001.15 203.537C1001.33 203.404 1001.48 203.239 1001.6 203.049C1001.64 202.988 1001.67 202.913 1001.67 202.836C1001.67 202.759 1001.64 202.684 1001.6 202.622C1001.54 202.552 1001.47 202.5 1001.39 202.473C1001.3 202.445 1001.21 202.444 1001.12 202.468C1000.8 202.562 1000.47 202.681 1000.14 202.779C998.707 203.209 997.282 203.684 995.819 204.031C994.667 204.32 993.489 204.498 992.301 204.562C991.687 204.594 991.072 204.566 990.464 204.479C990.284 204.451 990.104 204.415 989.925 204.372C989.473 204.273 989.042 204.097 988.652 203.853C988.456 203.746 988.283 203.602 988.143 203.43C988.004 203.257 987.901 203.059 987.84 202.847C987.78 202.635 987.763 202.413 987.79 202.194C987.818 201.976 987.89 201.765 988.001 201.574C988.136 201.286 988.317 201.021 988.537 200.79C988.502 201.022 988.481 201.256 988.474 201.491C988.445 201.879 988.552 202.265 988.778 202.584C989.004 202.904 989.335 203.138 989.716 203.248C990.387 203.479 991.093 203.597 991.804 203.597C992.633 203.609 993.461 203.529 994.272 203.358C995.553 203.096 996.8 202.697 997.993 202.169C999.164 201.677 1000.26 201.027 1001.25 200.239C1001.95 199.684 1002.55 199.019 1003.04 198.271C1003.32 197.852 1003.47 197.365 1003.49 196.864C1003.49 196.629 1003.44 196.396 1003.34 196.182C1003.24 195.967 1003.1 195.777 1002.91 195.623C1002.56 195.316 1002.13 195.092 1001.68 194.967C1000.55 194.639 999.375 194.518 998.205 194.609C996.741 194.707 995.289 194.937 993.867 195.296C993.134 195.476 992.41 195.689 991.695 195.935C990.481 196.364 989.306 196.896 988.186 197.525C988.076 197.586 987.963 197.641 987.851 197.699C988.098 197.469 988.36 197.256 988.635 197.059C989.526 196.49 990.46 195.989 991.431 195.562C993.394 194.694 995.435 194.007 997.528 193.508C998.535 193.264 999.561 193.105 1000.6 193.031C1001.11 192.994 1001.62 192.99 1002.14 193.019C1003.01 193.06 1003.88 193.186 1004.72 193.394C1005.21 193.518 1005.69 193.691 1006.14 193.91C1006.63 194.134 1007.06 194.458 1007.41 194.859C1007.82 195.351 1008.03 195.974 1008 196.608C1007.95 197.436 1007.7 198.24 1007.28 198.961C1005.47 202.019 999.08 205.2 998.274 205.2L998.25 205.198Z" fill="white"/>
<path opacity="0.08" d="M435.932 518.871C431.951 518.255 431.445 515.563 432.438 513.869C432.899 513.158 433.449 512.506 434.076 511.929C435.169 510.978 436.377 510.162 437.673 509.499C439.928 508.304 442.397 507.545 444.945 507.267C445.692 507.172 446.449 507.182 447.193 507.297C447.633 507.355 448.056 507.499 448.439 507.719C448.73 507.873 448.956 508.124 449.073 508.428C449.19 508.731 449.191 509.066 449.076 509.371C448.887 510.065 448.429 510.659 447.799 511.027C447.28 511.357 446.711 511.604 446.114 511.761C446.035 511.783 445.953 511.796 445.871 511.8C445.697 511.809 445.653 511.751 445.717 511.589C445.753 511.504 445.796 511.422 445.845 511.342C445.987 511.12 446.088 510.876 446.146 510.62C446.19 510.472 446.201 510.317 446.176 510.165C446.151 510.013 446.092 509.869 446.002 509.742C445.913 509.615 445.796 509.51 445.66 509.434C445.523 509.357 445.371 509.312 445.215 509.301C444.67 509.212 444.115 509.212 443.57 509.301C442.142 509.508 440.754 509.931 439.459 510.556C438.597 510.939 437.789 511.427 437.052 512.008L436.99 512.055C437.005 511.963 437.017 511.891 437.029 511.819C437.042 511.761 437.04 511.7 437.023 511.643C437.005 511.586 436.972 511.534 436.928 511.493C436.884 511.452 436.829 511.423 436.77 511.409C436.711 511.395 436.649 511.396 436.59 511.412C436.465 511.44 436.347 511.491 436.243 511.563C435.403 512.073 434.643 512.7 433.986 513.424C433.57 513.885 433.286 514.445 433.162 515.048C433.082 515.475 433.113 515.914 433.251 516.326C433.389 516.738 433.631 517.109 433.953 517.406C434.504 517.95 435.202 518.328 435.965 518.496C436.472 518.618 436.988 518.702 437.508 518.749C438.137 518.806 438.77 518.821 439.401 518.795C439.75 518.781 440.572 518.757 440.572 518.757C440.572 518.757 440.204 518.822 440.027 518.849C439.271 518.946 438.509 518.996 437.747 519C437.139 519.003 436.533 518.96 435.932 518.871ZM438.648 518.613C438.03 518.607 437.413 518.559 436.801 518.47C436.441 518.415 436.084 518.337 435.734 518.235C435.274 518.12 434.844 517.912 434.471 517.625C434.099 517.337 433.792 516.976 433.57 516.565C433.387 516.209 433.297 515.814 433.309 515.415C433.321 515.016 433.435 514.627 433.64 514.282C433.958 513.703 434.39 513.191 434.911 512.775C435.355 512.404 435.822 512.06 436.31 511.746C436.4 511.683 436.501 511.635 436.608 511.606C436.774 511.566 436.87 511.651 436.832 511.812C436.794 511.973 436.738 512.137 436.691 512.299C436.671 512.348 436.638 512.391 436.596 512.424C436.23 512.772 435.942 513.192 435.75 513.656C435.65 513.885 435.597 514.131 435.594 514.381C435.592 514.63 435.639 514.877 435.734 515.108C435.829 515.339 435.97 515.55 436.148 515.728C436.327 515.905 436.539 516.047 436.773 516.144C437.437 516.453 438.117 516.726 438.797 516.999C439.341 517.218 439.888 517.434 440.434 517.649C440.997 517.87 441.56 518.089 442.149 518.317C441.591 518.416 441.055 518.485 440.516 518.536C439.987 518.587 439.456 518.618 438.926 518.618C438.832 518.617 438.739 518.615 438.648 518.613ZM442.68 518.21C442.653 518.205 442.626 518.198 442.601 518.187C441.671 517.826 440.741 517.466 439.809 517.108C439.494 516.986 439.18 516.859 438.867 516.735C438.867 516.732 439.045 516.747 439.261 516.762C439.463 516.776 439.7 516.79 439.858 516.79C440.428 516.794 440.997 516.759 441.562 516.687C442.326 516.576 443.084 516.426 443.832 516.239C444.955 515.967 446.061 515.64 447.164 515.297C447.817 515.094 448.479 514.915 449.122 514.685C449.17 514.663 449.223 514.651 449.276 514.651C449.33 514.651 449.382 514.663 449.431 514.685C449.451 514.691 449.47 514.702 449.486 514.717C449.502 514.731 449.515 514.749 449.523 514.769C449.531 514.789 449.535 514.81 449.533 514.831C449.532 514.852 449.526 514.873 449.516 514.892C449.466 515.007 449.391 515.111 449.298 515.196C448.946 515.518 448.556 515.798 448.138 516.032C446.805 516.824 445.381 517.458 443.894 517.918C443.522 518.047 443.14 518.146 442.751 518.215C442.739 518.217 442.726 518.217 442.714 518.217C442.702 518.216 442.691 518.213 442.68 518.21ZM446.25 517.198C446.822 516.946 447.379 516.662 447.918 516.349C448.348 516.109 448.759 515.838 449.148 515.537C449.328 515.404 449.481 515.239 449.597 515.049C449.645 514.988 449.67 514.913 449.67 514.836C449.67 514.759 449.645 514.684 449.597 514.622C449.544 514.552 449.47 514.5 449.385 514.473C449.301 514.445 449.21 514.444 449.124 514.468C448.795 514.562 448.473 514.681 448.145 514.779C446.707 515.209 445.282 515.684 443.819 516.031C442.667 516.32 441.489 516.498 440.301 516.562C439.687 516.594 439.072 516.566 438.464 516.479C438.284 516.451 438.104 516.415 437.925 516.372C437.473 516.273 437.042 516.097 436.652 515.853C436.456 515.746 436.283 515.602 436.143 515.43C436.004 515.257 435.901 515.059 435.84 514.847C435.78 514.635 435.763 514.413 435.79 514.194C435.818 513.976 435.89 513.765 436.001 513.574C436.136 513.286 436.317 513.021 436.537 512.79C436.502 513.022 436.481 513.256 436.474 513.491C436.445 513.879 436.552 514.265 436.778 514.584C437.004 514.904 437.335 515.138 437.716 515.248C438.387 515.479 439.093 515.597 439.804 515.597C440.633 515.609 441.461 515.529 442.272 515.358C443.553 515.096 444.8 514.697 445.993 514.169C447.164 513.677 448.259 513.027 449.247 512.239C449.95 511.684 450.554 511.019 451.036 510.271C451.317 509.852 451.473 509.365 451.486 508.864C451.488 508.629 451.438 508.396 451.34 508.182C451.241 507.967 451.096 507.777 450.915 507.623C450.557 507.316 450.134 507.092 449.677 506.967C448.552 506.639 447.375 506.518 446.205 506.609C444.741 506.707 443.289 506.937 441.867 507.296C441.134 507.476 440.41 507.689 439.695 507.935C438.481 508.364 437.306 508.896 436.186 509.525C436.076 509.586 435.963 509.641 435.851 509.699C436.098 509.469 436.36 509.256 436.635 509.059C437.526 508.49 438.46 507.989 439.431 507.562C441.394 506.694 443.435 506.007 445.528 505.508C446.535 505.264 447.561 505.105 448.595 505.031C449.108 504.994 449.622 504.99 450.135 505.019C451.009 505.06 451.876 505.186 452.725 505.394C453.215 505.518 453.69 505.691 454.144 505.91C454.629 506.134 455.06 506.458 455.406 506.859C455.816 507.351 456.026 507.974 455.997 508.608C455.946 509.436 455.702 510.24 455.283 510.961C453.465 514.019 447.08 517.2 446.274 517.2L446.25 517.198Z" fill="white"/>
<path opacity="0.08" d="M987.932 518.871C983.951 518.255 983.445 515.563 984.438 513.869C984.899 513.158 985.449 512.506 986.076 511.929C987.169 510.978 988.377 510.162 989.673 509.499C991.928 508.304 994.397 507.545 996.945 507.267C997.692 507.172 998.449 507.182 999.193 507.297C999.633 507.355 1000.06 507.499 1000.44 507.719C1000.73 507.873 1000.96 508.124 1001.07 508.428C1001.19 508.731 1001.19 509.066 1001.08 509.371C1000.89 510.065 1000.43 510.659 999.799 511.027C999.28 511.357 998.711 511.604 998.114 511.761C998.035 511.783 997.953 511.796 997.871 511.8C997.697 511.809 997.653 511.751 997.717 511.589C997.753 511.504 997.796 511.422 997.845 511.342C997.987 511.12 998.088 510.876 998.146 510.62C998.19 510.472 998.201 510.317 998.176 510.165C998.151 510.013 998.092 509.869 998.002 509.742C997.913 509.615 997.796 509.51 997.66 509.434C997.523 509.357 997.371 509.312 997.215 509.301C996.67 509.212 996.115 509.212 995.57 509.301C994.142 509.508 992.754 509.931 991.459 510.556C990.597 510.939 989.789 511.427 989.052 512.008L988.99 512.055C989.005 511.963 989.017 511.891 989.029 511.819C989.042 511.761 989.04 511.7 989.023 511.643C989.005 511.586 988.972 511.534 988.928 511.493C988.884 511.452 988.829 511.423 988.77 511.409C988.711 511.395 988.649 511.396 988.59 511.412C988.465 511.44 988.347 511.491 988.243 511.563C987.403 512.073 986.643 512.7 985.986 513.424C985.57 513.885 985.286 514.445 985.162 515.048C985.082 515.475 985.113 515.914 985.251 516.326C985.389 516.738 985.631 517.109 985.953 517.406C986.504 517.95 987.202 518.328 987.965 518.496C988.472 518.618 988.988 518.702 989.508 518.749C990.137 518.806 990.77 518.821 991.401 518.795C991.75 518.781 992.572 518.757 992.572 518.757C992.572 518.757 992.204 518.822 992.027 518.849C991.271 518.946 990.509 518.996 989.747 519C989.139 519.003 988.533 518.96 987.932 518.871ZM990.648 518.613C990.03 518.607 989.413 518.559 988.801 518.47C988.441 518.415 988.084 518.337 987.734 518.235C987.274 518.12 986.844 517.912 986.471 517.625C986.099 517.337 985.792 516.976 985.57 516.565C985.387 516.209 985.297 515.814 985.309 515.415C985.321 515.016 985.435 514.627 985.64 514.282C985.958 513.703 986.39 513.191 986.911 512.775C987.355 512.404 987.822 512.06 988.31 511.746C988.4 511.683 988.501 511.635 988.608 511.606C988.774 511.566 988.87 511.651 988.832 511.812C988.794 511.973 988.738 512.137 988.691 512.299C988.671 512.348 988.638 512.391 988.596 512.424C988.23 512.772 987.942 513.192 987.75 513.656C987.65 513.885 987.597 514.131 987.594 514.381C987.592 514.63 987.639 514.877 987.734 515.108C987.829 515.339 987.97 515.55 988.148 515.728C988.327 515.905 988.539 516.047 988.773 516.144C989.437 516.453 990.117 516.726 990.797 516.999C991.341 517.218 991.888 517.434 992.434 517.649C992.997 517.87 993.56 518.089 994.149 518.317C993.591 518.416 993.055 518.485 992.516 518.536C991.987 518.587 991.456 518.618 990.926 518.618C990.832 518.617 990.739 518.615 990.648 518.613ZM994.68 518.21C994.653 518.205 994.626 518.198 994.601 518.187C993.671 517.826 992.741 517.466 991.809 517.108C991.494 516.986 991.18 516.859 990.867 516.735C990.867 516.732 991.045 516.747 991.261 516.762C991.463 516.776 991.7 516.79 991.858 516.79C992.428 516.794 992.997 516.759 993.562 516.687C994.326 516.576 995.084 516.426 995.832 516.239C996.955 515.967 998.061 515.64 999.164 515.297C999.817 515.094 1000.48 514.915 1001.12 514.685C1001.17 514.663 1001.22 514.651 1001.28 514.651C1001.33 514.651 1001.38 514.663 1001.43 514.685C1001.45 514.691 1001.47 514.702 1001.49 514.717C1001.5 514.731 1001.51 514.749 1001.52 514.769C1001.53 514.789 1001.53 514.81 1001.53 514.831C1001.53 514.852 1001.53 514.873 1001.52 514.892C1001.47 515.007 1001.39 515.111 1001.3 515.196C1000.95 515.518 1000.56 515.798 1000.14 516.032C998.805 516.824 997.381 517.458 995.894 517.918C995.522 518.047 995.14 518.146 994.751 518.215C994.739 518.217 994.726 518.217 994.714 518.217C994.702 518.216 994.691 518.213 994.68 518.21ZM998.25 517.198C998.822 516.946 999.379 516.662 999.918 516.349C1000.35 516.109 1000.76 515.838 1001.15 515.537C1001.33 515.404 1001.48 515.239 1001.6 515.049C1001.64 514.988 1001.67 514.913 1001.67 514.836C1001.67 514.759 1001.64 514.684 1001.6 514.622C1001.54 514.552 1001.47 514.5 1001.39 514.473C1001.3 514.445 1001.21 514.444 1001.12 514.468C1000.8 514.562 1000.47 514.681 1000.14 514.779C998.707 515.209 997.282 515.684 995.819 516.031C994.667 516.32 993.489 516.498 992.301 516.562C991.687 516.594 991.072 516.566 990.464 516.479C990.284 516.451 990.104 516.415 989.925 516.372C989.473 516.273 989.042 516.097 988.652 515.853C988.456 515.746 988.283 515.602 988.143 515.43C988.004 515.257 987.901 515.059 987.84 514.847C987.78 514.635 987.763 514.413 987.79 514.194C987.818 513.976 987.89 513.765 988.001 513.574C988.136 513.286 988.317 513.021 988.537 512.79C988.502 513.022 988.481 513.256 988.474 513.491C988.445 513.879 988.552 514.265 988.778 514.584C989.004 514.904 989.335 515.138 989.716 515.248C990.387 515.479 991.093 515.597 991.804 515.597C992.633 515.609 993.461 515.529 994.272 515.358C995.553 515.096 996.8 514.697 997.993 514.169C999.164 513.677 1000.26 513.027 1001.25 512.239C1001.95 511.684 1002.55 511.019 1003.04 510.271C1003.32 509.852 1003.47 509.365 1003.49 508.864C1003.49 508.629 1003.44 508.396 1003.34 508.182C1003.24 507.967 1003.1 507.777 1002.91 507.623C1002.56 507.316 1002.13 507.092 1001.68 506.967C1000.55 506.639 999.375 506.518 998.205 506.609C996.741 506.707 995.289 506.937 993.867 507.296C993.134 507.476 992.41 507.689 991.695 507.935C990.481 508.364 989.306 508.896 988.186 509.525C988.076 509.586 987.963 509.641 987.851 509.699C988.098 509.469 988.36 509.256 988.635 509.059C989.526 508.49 990.46 507.989 991.431 507.562C993.394 506.694 995.435 506.007 997.528 505.508C998.535 505.264 999.561 505.105 1000.6 505.031C1001.11 504.994 1001.62 504.99 1002.14 505.019C1003.01 505.06 1003.88 505.186 1004.72 505.394C1005.21 505.518 1005.69 505.691 1006.14 505.91C1006.63 506.134 1007.06 506.458 1007.41 506.859C1007.82 507.351 1008.03 507.974 1008 508.608C1007.95 509.436 1007.7 510.24 1007.28 510.961C1005.47 514.019 999.08 517.2 998.274 517.2L998.25 517.198Z" fill="white"/>
<path opacity="0.08" d="M435.932 830.871C431.951 830.255 431.445 827.563 432.438 825.869C432.899 825.158 433.449 824.506 434.076 823.929C435.169 822.978 436.377 822.162 437.673 821.499C439.928 820.304 442.397 819.545 444.945 819.267C445.692 819.172 446.449 819.182 447.193 819.297C447.633 819.355 448.056 819.499 448.439 819.719C448.73 819.873 448.956 820.124 449.073 820.428C449.19 820.731 449.191 821.066 449.076 821.371C448.887 822.065 448.429 822.659 447.799 823.027C447.28 823.357 446.711 823.604 446.114 823.761C446.035 823.783 445.953 823.796 445.871 823.8C445.697 823.809 445.653 823.751 445.717 823.589C445.753 823.504 445.796 823.422 445.845 823.342C445.987 823.12 446.088 822.876 446.146 822.62C446.19 822.472 446.201 822.317 446.176 822.165C446.151 822.013 446.092 821.869 446.002 821.742C445.913 821.615 445.796 821.51 445.66 821.434C445.523 821.357 445.371 821.312 445.215 821.301C444.67 821.212 444.115 821.212 443.57 821.301C442.142 821.508 440.754 821.931 439.459 822.556C438.597 822.939 437.789 823.427 437.052 824.008L436.99 824.055C437.005 823.963 437.017 823.891 437.029 823.819C437.042 823.761 437.04 823.7 437.023 823.643C437.005 823.586 436.972 823.534 436.928 823.493C436.884 823.452 436.829 823.423 436.77 823.409C436.711 823.395 436.649 823.396 436.59 823.412C436.465 823.44 436.347 823.491 436.243 823.563C435.403 824.073 434.643 824.7 433.986 825.424C433.57 825.885 433.286 826.445 433.162 827.048C433.082 827.475 433.113 827.914 433.251 828.326C433.389 828.738 433.631 829.109 433.953 829.406C434.504 829.95 435.202 830.328 435.965 830.496C436.472 830.618 436.988 830.702 437.508 830.749C438.137 830.806 438.77 830.821 439.401 830.795C439.75 830.781 440.572 830.757 440.572 830.757C440.572 830.757 440.204 830.822 440.027 830.849C439.271 830.946 438.509 830.996 437.747 831C437.139 831.003 436.533 830.96 435.932 830.871ZM438.648 830.613C438.03 830.607 437.413 830.559 436.801 830.47C436.441 830.415 436.084 830.337 435.734 830.235C435.274 830.12 434.844 829.912 434.471 829.625C434.099 829.337 433.792 828.976 433.57 828.565C433.387 828.209 433.297 827.814 433.309 827.415C433.321 827.016 433.435 826.627 433.64 826.282C433.958 825.703 434.39 825.191 434.911 824.775C435.355 824.404 435.822 824.06 436.31 823.746C436.4 823.683 436.501 823.635 436.608 823.606C436.774 823.566 436.87 823.651 436.832 823.812C436.794 823.973 436.738 824.137 436.691 824.299C436.671 824.348 436.638 824.391 436.596 824.424C436.23 824.772 435.942 825.192 435.75 825.656C435.65 825.885 435.597 826.131 435.594 826.381C435.592 826.63 435.639 826.877 435.734 827.108C435.829 827.339 435.97 827.55 436.148 827.728C436.327 827.905 436.539 828.047 436.773 828.144C437.437 828.453 438.117 828.726 438.797 828.999C439.341 829.218 439.888 829.434 440.434 829.649C440.997 829.87 441.56 830.089 442.149 830.317C441.591 830.416 441.055 830.485 440.516 830.536C439.987 830.587 439.456 830.618 438.926 830.618C438.832 830.617 438.739 830.615 438.648 830.613ZM442.68 830.21C442.653 830.205 442.626 830.198 442.601 830.187C441.671 829.826 440.741 829.466 439.809 829.108C439.494 828.986 439.18 828.859 438.867 828.735C438.867 828.732 439.045 828.747 439.261 828.762C439.463 828.776 439.7 828.79 439.858 828.79C440.428 828.794 440.997 828.759 441.562 828.687C442.326 828.576 443.084 828.426 443.832 828.239C444.955 827.967 446.061 827.64 447.164 827.297C447.817 827.094 448.479 826.915 449.122 826.685C449.17 826.663 449.223 826.651 449.276 826.651C449.33 826.651 449.382 826.663 449.431 826.685C449.451 826.691 449.47 826.702 449.486 826.717C449.502 826.731 449.515 826.749 449.523 826.769C449.531 826.789 449.535 826.81 449.533 826.831C449.532 826.852 449.526 826.873 449.516 826.892C449.466 827.007 449.391 827.111 449.298 827.196C448.946 827.518 448.556 827.798 448.138 828.032C446.805 828.824 445.381 829.458 443.894 829.918C443.522 830.047 443.14 830.146 442.751 830.215C442.739 830.217 442.726 830.217 442.714 830.217C442.702 830.216 442.691 830.213 442.68 830.21ZM446.25 829.198C446.822 828.946 447.379 828.662 447.918 828.349C448.348 828.109 448.759 827.838 449.148 827.537C449.328 827.404 449.481 827.239 449.597 827.049C449.645 826.988 449.67 826.913 449.67 826.836C449.67 826.759 449.645 826.684 449.597 826.622C449.544 826.552 449.47 826.5 449.385 826.473C449.301 826.445 449.21 826.444 449.124 826.468C448.795 826.562 448.473 826.681 448.145 826.779C446.707 827.209 445.282 827.684 443.819 828.031C442.667 828.32 441.489 828.498 440.301 828.562C439.687 828.594 439.072 828.566 438.464 828.479C438.284 828.451 438.104 828.415 437.925 828.372C437.473 828.273 437.042 828.097 436.652 827.853C436.456 827.746 436.283 827.602 436.143 827.43C436.004 827.257 435.901 827.059 435.84 826.847C435.78 826.635 435.763 826.413 435.79 826.194C435.818 825.976 435.89 825.765 436.001 825.574C436.136 825.286 436.317 825.021 436.537 824.79C436.502 825.022 436.481 825.256 436.474 825.491C436.445 825.879 436.552 826.265 436.778 826.584C437.004 826.904 437.335 827.138 437.716 827.248C438.387 827.479 439.093 827.597 439.804 827.597C440.633 827.609 441.461 827.529 442.272 827.358C443.553 827.096 444.8 826.697 445.993 826.169C447.164 825.677 448.259 825.027 449.247 824.239C449.95 823.684 450.554 823.019 451.036 822.271C451.317 821.852 451.473 821.365 451.486 820.864C451.488 820.629 451.438 820.396 451.34 820.182C451.241 819.967 451.096 819.777 450.915 819.623C450.557 819.316 450.134 819.092 449.677 818.967C448.552 818.639 447.375 818.518 446.205 818.609C444.741 818.707 443.289 818.937 441.867 819.296C441.134 819.476 440.41 819.689 439.695 819.935C438.481 820.364 437.306 820.896 436.186 821.525C436.076 821.586 435.963 821.641 435.851 821.699C436.098 821.469 436.36 821.256 436.635 821.059C437.526 820.49 438.46 819.989 439.431 819.562C441.394 818.694 443.435 818.007 445.528 817.508C446.535 817.264 447.561 817.105 448.595 817.031C449.108 816.994 449.622 816.99 450.135 817.019C451.009 817.06 451.876 817.186 452.725 817.394C453.215 817.518 453.69 817.691 454.144 817.91C454.629 818.134 455.06 818.458 455.406 818.859C455.816 819.351 456.026 819.974 455.997 820.608C455.946 821.436 455.702 822.24 455.283 822.961C453.465 826.019 447.08 829.2 446.274 829.2L446.25 829.198Z" fill="white"/>
<path opacity="0.08" d="M987.932 830.871C983.951 830.255 983.445 827.563 984.438 825.869C984.899 825.158 985.449 824.506 986.076 823.929C987.169 822.978 988.377 822.162 989.673 821.499C991.928 820.304 994.397 819.545 996.945 819.267C997.692 819.172 998.449 819.182 999.193 819.297C999.633 819.355 1000.06 819.499 1000.44 819.719C1000.73 819.873 1000.96 820.124 1001.07 820.428C1001.19 820.731 1001.19 821.066 1001.08 821.371C1000.89 822.065 1000.43 822.659 999.799 823.027C999.28 823.357 998.711 823.604 998.114 823.761C998.035 823.783 997.953 823.796 997.871 823.8C997.697 823.809 997.653 823.751 997.717 823.589C997.753 823.504 997.796 823.422 997.845 823.342C997.987 823.12 998.088 822.876 998.146 822.62C998.19 822.472 998.201 822.317 998.176 822.165C998.151 822.013 998.092 821.869 998.002 821.742C997.913 821.615 997.796 821.51 997.66 821.434C997.523 821.357 997.371 821.312 997.215 821.301C996.67 821.212 996.115 821.212 995.57 821.301C994.142 821.508 992.754 821.931 991.459 822.556C990.597 822.939 989.789 823.427 989.052 824.008L988.99 824.055C989.005 823.963 989.017 823.891 989.029 823.819C989.042 823.761 989.04 823.7 989.023 823.643C989.005 823.586 988.972 823.534 988.928 823.493C988.884 823.452 988.829 823.423 988.77 823.409C988.711 823.395 988.649 823.396 988.59 823.412C988.465 823.44 988.347 823.491 988.243 823.563C987.403 824.073 986.643 824.7 985.986 825.424C985.57 825.885 985.286 826.445 985.162 827.048C985.082 827.475 985.113 827.914 985.251 828.326C985.389 828.738 985.631 829.109 985.953 829.406C986.504 829.95 987.202 830.328 987.965 830.496C988.472 830.618 988.988 830.702 989.508 830.749C990.137 830.806 990.77 830.821 991.401 830.795C991.75 830.781 992.572 830.757 992.572 830.757C992.572 830.757 992.204 830.822 992.027 830.849C991.271 830.946 990.509 830.996 989.747 831C989.139 831.003 988.533 830.96 987.932 830.871ZM990.648 830.613C990.03 830.607 989.413 830.559 988.801 830.47C988.441 830.415 988.084 830.337 987.734 830.235C987.274 830.12 986.844 829.912 986.471 829.625C986.099 829.337 985.792 828.976 985.57 828.565C985.387 828.209 985.297 827.814 985.309 827.415C985.321 827.016 985.435 826.627 985.64 826.282C985.958 825.703 986.39 825.191 986.911 824.775C987.355 824.404 987.822 824.06 988.31 823.746C988.4 823.683 988.501 823.635 988.608 823.606C988.774 823.566 988.87 823.651 988.832 823.812C988.794 823.973 988.738 824.137 988.691 824.299C988.671 824.348 988.638 824.391 988.596 824.424C988.23 824.772 987.942 825.192 987.75 825.656C987.65 825.885 987.597 826.131 987.594 826.381C987.592 826.63 987.639 826.877 987.734 827.108C987.829 827.339 987.97 827.55 988.148 827.728C988.327 827.905 988.539 828.047 988.773 828.144C989.437 828.453 990.117 828.726 990.797 828.999C991.341 829.218 991.888 829.434 992.434 829.649C992.997 829.87 993.56 830.089 994.149 830.317C993.591 830.416 993.055 830.485 992.516 830.536C991.987 830.587 991.456 830.618 990.926 830.618C990.832 830.617 990.739 830.615 990.648 830.613ZM994.68 830.21C994.653 830.205 994.626 830.198 994.601 830.187C993.671 829.826 992.741 829.466 991.809 829.108C991.494 828.986 991.18 828.859 990.867 828.735C990.867 828.732 991.045 828.747 991.261 828.762C991.463 828.776 991.7 828.79 991.858 828.79C992.428 828.794 992.997 828.759 993.562 828.687C994.326 828.576 995.084 828.426 995.832 828.239C996.955 827.967 998.061 827.64 999.164 827.297C999.817 827.094 1000.48 826.915 1001.12 826.685C1001.17 826.663 1001.22 826.651 1001.28 826.651C1001.33 826.651 1001.38 826.663 1001.43 826.685C1001.45 826.691 1001.47 826.702 1001.49 826.717C1001.5 826.731 1001.51 826.749 1001.52 826.769C1001.53 826.789 1001.53 826.81 1001.53 826.831C1001.53 826.852 1001.53 826.873 1001.52 826.892C1001.47 827.007 1001.39 827.111 1001.3 827.196C1000.95 827.518 1000.56 827.798 1000.14 828.032C998.805 828.824 997.381 829.458 995.894 829.918C995.522 830.047 995.14 830.146 994.751 830.215C994.739 830.217 994.726 830.217 994.714 830.217C994.702 830.216 994.691 830.213 994.68 830.21ZM998.25 829.198C998.822 828.946 999.379 828.662 999.918 828.349C1000.35 828.109 1000.76 827.838 1001.15 827.537C1001.33 827.404 1001.48 827.239 1001.6 827.049C1001.64 826.988 1001.67 826.913 1001.67 826.836C1001.67 826.759 1001.64 826.684 1001.6 826.622C1001.54 826.552 1001.47 826.5 1001.39 826.473C1001.3 826.445 1001.21 826.444 1001.12 826.468C1000.8 826.562 1000.47 826.681 1000.14 826.779C998.707 827.209 997.282 827.684 995.819 828.031C994.667 828.32 993.489 828.498 992.301 828.562C991.687 828.594 991.072 828.566 990.464 828.479C990.284 828.451 990.104 828.415 989.925 828.372C989.473 828.273 989.042 828.097 988.652 827.853C988.456 827.746 988.283 827.602 988.143 827.43C988.004 827.257 987.901 827.059 987.84 826.847C987.78 826.635 987.763 826.413 987.79 826.194C987.818 825.976 987.89 825.765 988.001 825.574C988.136 825.286 988.317 825.021 988.537 824.79C988.502 825.022 988.481 825.256 988.474 825.491C988.445 825.879 988.552 826.265 988.778 826.584C989.004 826.904 989.335 827.138 989.716 827.248C990.387 827.479 991.093 827.597 991.804 827.597C992.633 827.609 993.461 827.529 994.272 827.358C995.553 827.096 996.8 826.697 997.993 826.169C999.164 825.677 1000.26 825.027 1001.25 824.239C1001.95 823.684 1002.55 823.019 1003.04 822.271C1003.32 821.852 1003.47 821.365 1003.49 820.864C1003.49 820.629 1003.44 820.396 1003.34 820.182C1003.24 819.967 1003.1 819.777 1002.91 819.623C1002.56 819.316 1002.13 819.092 1001.68 818.967C1000.55 818.639 999.375 818.518 998.205 818.609C996.741 818.707 995.289 818.937 993.867 819.296C993.134 819.476 992.41 819.689 991.695 819.935C990.481 820.364 989.306 820.896 988.186 821.525C988.076 821.586 987.963 821.641 987.851 821.699C988.098 821.469 988.36 821.256 988.635 821.059C989.526 820.49 990.46 819.989 991.431 819.562C993.394 818.694 995.435 818.007 997.528 817.508C998.535 817.264 999.561 817.105 1000.6 817.031C1001.11 816.994 1001.62 816.99 1002.14 817.019C1003.01 817.06 1003.88 817.186 1004.72 817.394C1005.21 817.518 1005.69 817.691 1006.14 817.91C1006.63 818.134 1007.06 818.458 1007.41 818.859C1007.82 819.351 1008.03 819.974 1008 820.608C1007.95 821.436 1007.7 822.24 1007.28 822.961C1005.47 826.019 999.08 829.2 998.274 829.2L998.25 829.198Z" fill="white"/>
<path opacity="0.08" d="M259.38 190.019C258.643 190.706 258.052 191.534 257.642 192.454C257.232 193.374 257.012 194.367 256.994 195.374C256.976 196.381 257.162 197.381 257.539 198.315C257.916 199.249 258.477 200.097 259.19 200.809C259.902 201.522 260.75 202.083 261.684 202.46C262.618 202.837 263.618 203.023 264.625 203.005C265.632 202.987 266.625 202.767 267.545 202.357C268.465 201.947 269.293 201.356 269.98 200.619C269.662 205.854 265.316 210 260.001 210C254.477 210 250 205.523 250 200C250 194.685 254.146 190.339 259.38 190.019Z" fill="white"/>
<path opacity="0.08" d="M259.38 814.019C258.643 814.706 258.052 815.534 257.642 816.454C257.232 817.374 257.012 818.367 256.994 819.374C256.976 820.381 257.162 821.381 257.539 822.315C257.916 823.249 258.477 824.097 259.19 824.809C259.902 825.522 260.75 826.083 261.684 826.46C262.618 826.837 263.618 827.023 264.625 827.005C265.632 826.987 266.625 826.767 267.545 826.357C268.465 825.947 269.293 825.356 269.98 824.619C269.662 829.854 265.316 834 260.001 834C254.477 834 250 829.523 250 824C250 818.685 254.146 814.339 259.38 814.019Z" fill="white"/>
<path opacity="0.08" d="M1355.93 622.871C1351.95 622.255 1351.45 619.563 1352.44 617.869C1352.9 617.158 1353.45 616.506 1354.08 615.929C1355.17 614.978 1356.38 614.162 1357.67 613.499C1359.93 612.304 1362.4 611.545 1364.94 611.267C1365.69 611.172 1366.45 611.182 1367.19 611.297C1367.63 611.355 1368.06 611.499 1368.44 611.719C1368.73 611.873 1368.96 612.124 1369.07 612.428C1369.19 612.731 1369.19 613.066 1369.08 613.371C1368.89 614.065 1368.43 614.659 1367.8 615.027C1367.28 615.357 1366.71 615.604 1366.11 615.761C1366.03 615.783 1365.95 615.796 1365.87 615.8C1365.7 615.809 1365.65 615.751 1365.72 615.589C1365.75 615.504 1365.8 615.422 1365.85 615.342C1365.99 615.12 1366.09 614.876 1366.15 614.62C1366.19 614.472 1366.2 614.317 1366.18 614.165C1366.15 614.013 1366.09 613.869 1366 613.742C1365.91 613.615 1365.8 613.51 1365.66 613.434C1365.52 613.357 1365.37 613.312 1365.21 613.301C1364.67 613.212 1364.11 613.212 1363.57 613.301C1362.14 613.508 1360.75 613.931 1359.46 614.556C1358.6 614.939 1357.79 615.427 1357.05 616.008L1356.99 616.055C1357.01 615.963 1357.02 615.891 1357.03 615.819C1357.04 615.761 1357.04 615.7 1357.02 615.643C1357 615.586 1356.97 615.534 1356.93 615.493C1356.88 615.452 1356.83 615.423 1356.77 615.409C1356.71 615.395 1356.65 615.396 1356.59 615.412C1356.47 615.44 1356.35 615.491 1356.24 615.563C1355.4 616.073 1354.64 616.7 1353.99 617.424C1353.57 617.885 1353.29 618.445 1353.16 619.048C1353.08 619.475 1353.11 619.914 1353.25 620.326C1353.39 620.738 1353.63 621.109 1353.95 621.406C1354.5 621.95 1355.2 622.328 1355.97 622.496C1356.47 622.618 1356.99 622.702 1357.51 622.749C1358.14 622.806 1358.77 622.821 1359.4 622.795C1359.75 622.781 1360.57 622.757 1360.57 622.757C1360.57 622.757 1360.2 622.822 1360.03 622.849C1359.27 622.946 1358.51 622.996 1357.75 623C1357.14 623.003 1356.53 622.96 1355.93 622.871ZM1358.65 622.613C1358.03 622.607 1357.41 622.559 1356.8 622.47C1356.44 622.415 1356.08 622.337 1355.73 622.235C1355.27 622.12 1354.84 621.912 1354.47 621.625C1354.1 621.337 1353.79 620.976 1353.57 620.565C1353.39 620.209 1353.3 619.814 1353.31 619.415C1353.32 619.016 1353.44 618.627 1353.64 618.282C1353.96 617.703 1354.39 617.191 1354.91 616.775C1355.35 616.404 1355.82 616.06 1356.31 615.746C1356.4 615.683 1356.5 615.635 1356.61 615.606C1356.77 615.566 1356.87 615.651 1356.83 615.812C1356.79 615.973 1356.74 616.137 1356.69 616.299C1356.67 616.348 1356.64 616.391 1356.6 616.424C1356.23 616.772 1355.94 617.192 1355.75 617.656C1355.65 617.885 1355.6 618.131 1355.59 618.381C1355.59 618.63 1355.64 618.877 1355.73 619.108C1355.83 619.339 1355.97 619.55 1356.15 619.728C1356.33 619.905 1356.54 620.047 1356.77 620.144C1357.44 620.453 1358.12 620.726 1358.8 620.999C1359.34 621.218 1359.89 621.434 1360.43 621.649C1361 621.87 1361.56 622.089 1362.15 622.317C1361.59 622.416 1361.05 622.485 1360.52 622.536C1359.99 622.587 1359.46 622.618 1358.93 622.618C1358.83 622.617 1358.74 622.615 1358.65 622.613ZM1362.68 622.21C1362.65 622.205 1362.63 622.198 1362.6 622.187C1361.67 621.826 1360.74 621.466 1359.81 621.108C1359.49 620.986 1359.18 620.859 1358.87 620.735C1358.87 620.732 1359.05 620.747 1359.26 620.762C1359.46 620.776 1359.7 620.79 1359.86 620.79C1360.43 620.794 1361 620.759 1361.56 620.687C1362.33 620.576 1363.08 620.426 1363.83 620.239C1364.96 619.967 1366.06 619.64 1367.16 619.297C1367.82 619.094 1368.48 618.915 1369.12 618.685C1369.17 618.663 1369.22 618.651 1369.28 618.651C1369.33 618.651 1369.38 618.663 1369.43 618.685C1369.45 618.691 1369.47 618.702 1369.49 618.717C1369.5 618.731 1369.51 618.749 1369.52 618.769C1369.53 618.789 1369.53 618.81 1369.53 618.831C1369.53 618.852 1369.53 618.873 1369.52 618.892C1369.47 619.007 1369.39 619.111 1369.3 619.196C1368.95 619.518 1368.56 619.798 1368.14 620.032C1366.81 620.824 1365.38 621.458 1363.89 621.918C1363.52 622.047 1363.14 622.146 1362.75 622.215C1362.74 622.217 1362.73 622.217 1362.71 622.217C1362.7 622.216 1362.69 622.213 1362.68 622.21ZM1366.25 621.198C1366.82 620.946 1367.38 620.662 1367.92 620.349C1368.35 620.109 1368.76 619.838 1369.15 619.537C1369.33 619.404 1369.48 619.239 1369.6 619.049C1369.64 618.988 1369.67 618.913 1369.67 618.836C1369.67 618.759 1369.64 618.684 1369.6 618.622C1369.54 618.552 1369.47 618.5 1369.39 618.473C1369.3 618.445 1369.21 618.444 1369.12 618.468C1368.8 618.562 1368.47 618.681 1368.14 618.779C1366.71 619.209 1365.28 619.684 1363.82 620.031C1362.67 620.32 1361.49 620.498 1360.3 620.562C1359.69 620.594 1359.07 620.566 1358.46 620.479C1358.28 620.451 1358.1 620.415 1357.93 620.372C1357.47 620.273 1357.04 620.097 1356.65 619.853C1356.46 619.746 1356.28 619.602 1356.14 619.43C1356 619.257 1355.9 619.059 1355.84 618.847C1355.78 618.635 1355.76 618.413 1355.79 618.194C1355.82 617.976 1355.89 617.765 1356 617.574C1356.14 617.286 1356.32 617.021 1356.54 616.79C1356.5 617.022 1356.48 617.256 1356.47 617.491C1356.44 617.879 1356.55 618.265 1356.78 618.584C1357 618.904 1357.33 619.138 1357.72 619.248C1358.39 619.479 1359.09 619.597 1359.8 619.597C1360.63 619.609 1361.46 619.529 1362.27 619.358C1363.55 619.096 1364.8 618.697 1365.99 618.169C1367.16 617.677 1368.26 617.027 1369.25 616.239C1369.95 615.684 1370.55 615.019 1371.04 614.271C1371.32 613.852 1371.47 613.365 1371.49 612.864C1371.49 612.629 1371.44 612.396 1371.34 612.182C1371.24 611.967 1371.1 611.777 1370.91 611.623C1370.56 611.316 1370.13 611.092 1369.68 610.967C1368.55 610.639 1367.37 610.518 1366.21 610.609C1364.74 610.707 1363.29 610.937 1361.87 611.296C1361.13 611.476 1360.41 611.689 1359.7 611.935C1358.48 612.364 1357.31 612.896 1356.19 613.525C1356.08 613.586 1355.96 613.641 1355.85 613.699C1356.1 613.469 1356.36 613.256 1356.63 613.059C1357.53 612.49 1358.46 611.989 1359.43 611.562C1361.39 610.694 1363.44 610.007 1365.53 609.508C1366.53 609.264 1367.56 609.105 1368.6 609.031C1369.11 608.994 1369.62 608.99 1370.14 609.019C1371.01 609.06 1371.88 609.186 1372.72 609.394C1373.21 609.518 1373.69 609.691 1374.14 609.91C1374.63 610.134 1375.06 610.458 1375.41 610.859C1375.82 611.351 1376.03 611.974 1376 612.608C1375.95 613.436 1375.7 614.24 1375.28 614.961C1373.47 618.019 1367.08 621.2 1366.27 621.2L1366.25 621.198Z" fill="white"/>
<path opacity="0.08" d="M75.38 294.019C74.6431 294.706 74.0521 295.534 73.6422 296.454C73.2323 297.374 73.0119 298.367 72.9941 299.374C72.9763 300.381 73.1616 301.381 73.5388 302.315C73.916 303.249 74.4774 304.097 75.1896 304.809C75.9018 305.522 76.7501 306.083 77.684 306.46C78.6179 306.837 79.6182 307.023 80.6252 307.005C81.6323 306.987 82.6254 306.767 83.5454 306.357C84.4654 305.947 85.2934 305.356 85.98 304.619C85.662 309.854 81.316 314 76.001 314C70.477 314 66 309.523 66 304C66 298.685 70.146 294.339 75.38 294.019Z" fill="white"/>
<path opacity="0.08" d="M995.38 86.019C994.643 86.7057 994.052 87.5337 993.642 88.4537C993.232 89.3737 993.012 90.3668 992.994 91.3738C992.976 92.3808 993.162 93.3811 993.539 94.315C993.916 95.2489 994.477 96.0972 995.19 96.8094C995.902 97.5216 996.75 98.0831 997.684 98.4603C998.618 98.8375 999.618 99.0227 1000.63 99.005C1001.63 98.9872 1002.63 98.7668 1003.55 98.3569C1004.47 97.9469 1005.29 97.3559 1005.98 96.619C1005.66 101.854 1001.32 106 996.001 106C990.477 106 986 101.523 986 96C986 90.685 990.146 86.339 995.38 86.019Z" fill="white"/>
<path opacity="0.08" d="M443.38 398.019C442.643 398.706 442.052 399.534 441.642 400.454C441.232 401.374 441.012 402.367 440.994 403.374C440.976 404.381 441.162 405.381 441.539 406.315C441.916 407.249 442.477 408.097 443.19 408.809C443.902 409.522 444.75 410.083 445.684 410.46C446.618 410.837 447.618 411.023 448.625 411.005C449.632 410.987 450.625 410.767 451.545 410.357C452.465 409.947 453.293 409.356 453.98 408.619C453.662 413.854 449.316 418 444.001 418C438.477 418 434 413.523 434 408C434 402.685 438.146 398.339 443.38 398.019Z" fill="white"/>
<path opacity="0.08" d="M995.38 710.019C994.643 710.706 994.052 711.534 993.642 712.454C993.232 713.374 993.012 714.367 992.994 715.374C992.976 716.381 993.162 717.381 993.539 718.315C993.916 719.249 994.477 720.097 995.19 720.809C995.902 721.522 996.75 722.083 997.684 722.46C998.618 722.837 999.618 723.023 1000.63 723.005C1001.63 722.987 1002.63 722.767 1003.55 722.357C1004.47 721.947 1005.29 721.356 1005.98 720.619C1005.66 725.854 1001.32 730 996.001 730C990.477 730 986 725.523 986 720C986 714.685 990.146 710.339 995.38 710.019Z" fill="white"/>
<path opacity="0.08" d="M1363.38 190.019C1362.64 190.706 1362.05 191.534 1361.64 192.454C1361.23 193.374 1361.01 194.367 1360.99 195.374C1360.98 196.381 1361.16 197.381 1361.54 198.315C1361.92 199.249 1362.48 200.097 1363.19 200.809C1363.9 201.522 1364.75 202.083 1365.68 202.46C1366.62 202.837 1367.62 203.023 1368.63 203.005C1369.63 202.987 1370.63 202.767 1371.55 202.357C1372.47 201.947 1373.29 201.356 1373.98 200.619C1373.66 205.854 1369.32 210 1364 210C1358.48 210 1354 205.523 1354 200C1354 194.685 1358.15 190.339 1363.38 190.019Z" fill="white"/>
<path opacity="0.08" d="M811.38 190.019C810.643 190.706 810.052 191.534 809.642 192.454C809.232 193.374 809.012 194.367 808.994 195.374C808.976 196.381 809.162 197.381 809.539 198.315C809.916 199.249 810.477 200.097 811.19 200.809C811.902 201.522 812.75 202.083 813.684 202.46C814.618 202.837 815.618 203.023 816.625 203.005C817.632 202.987 818.625 202.767 819.545 202.357C820.465 201.947 821.293 201.356 821.98 200.619C821.662 205.854 817.316 210 812.001 210C806.477 210 802 205.523 802 200C802 194.685 806.146 190.339 811.38 190.019Z" fill="white"/>
<path opacity="0.08" d="M811.38 814.019C810.643 814.706 810.052 815.534 809.642 816.454C809.232 817.374 809.012 818.367 808.994 819.374C808.976 820.381 809.162 821.381 809.539 822.315C809.916 823.249 810.477 824.097 811.19 824.809C811.902 825.522 812.75 826.083 813.684 826.46C814.618 826.837 815.618 827.023 816.625 827.005C817.632 826.987 818.625 826.767 819.545 826.357C820.465 825.947 821.293 825.356 821.98 824.619C821.662 829.854 817.316 834 812.001 834C806.477 834 802 829.523 802 824C802 818.685 806.146 814.339 811.38 814.019Z" fill="white"/>
<path opacity="0.08" d="M1179.38 294.019C1178.64 294.706 1178.05 295.534 1177.64 296.454C1177.23 297.374 1177.01 298.367 1176.99 299.374C1176.98 300.381 1177.16 301.381 1177.54 302.315C1177.92 303.249 1178.48 304.097 1179.19 304.809C1179.9 305.522 1180.75 306.083 1181.68 306.46C1182.62 306.837 1183.62 307.023 1184.63 307.005C1185.63 306.987 1186.63 306.767 1187.55 306.357C1188.47 305.947 1189.29 305.356 1189.98 304.619C1189.66 309.854 1185.32 314 1180 314C1174.48 314 1170 309.523 1170 304C1170 298.685 1174.15 294.339 1179.38 294.019Z" fill="white"/>
<path opacity="0.08" d="M627.38 294.019C626.643 294.706 626.052 295.534 625.642 296.454C625.232 297.374 625.012 298.367 624.994 299.374C624.976 300.381 625.162 301.381 625.539 302.315C625.916 303.249 626.477 304.097 627.19 304.809C627.902 305.522 628.75 306.083 629.684 306.46C630.618 306.837 631.618 307.023 632.625 307.005C633.632 306.987 634.625 306.767 635.545 306.357C636.465 305.947 637.293 305.356 637.98 304.619C637.662 309.854 633.316 314 628.001 314C622.477 314 618 309.523 618 304C618 298.685 622.146 294.339 627.38 294.019Z" fill="white"/>
<path opacity="0.08" d="M627.38 606.019C626.643 606.706 626.052 607.534 625.642 608.454C625.232 609.374 625.012 610.367 624.994 611.374C624.976 612.381 625.162 613.381 625.539 614.315C625.916 615.249 626.477 616.097 627.19 616.809C627.902 617.522 628.75 618.083 629.684 618.46C630.618 618.837 631.618 619.023 632.625 619.005C633.632 618.987 634.625 618.767 635.545 618.357C636.465 617.947 637.293 617.356 637.98 616.619C637.662 621.854 633.316 626 628.001 626C622.477 626 618 621.523 618 616C618 610.685 622.146 606.339 627.38 606.019Z" fill="white"/>
<path d="M0 0H1440V1024H0V0Z" fill="url(#paint0_linear_223_1013)"/>
</g>
<defs>
<linearGradient id="paint0_linear_223_1013" x1="720" y1="0" x2="720" y2="1024" gradientUnits="userSpaceOnUse">
<stop stop-color="#111518" stop-opacity="0"/>
<stop offset="1" stop-color="#111518"/>
</linearGradient>
<clipPath id="clip0_223_1013">
<rect width="1440" height="1024" fill="white"/>
</clipPath>
</defs>
</svg>
