<svg width="10610" height="1080" viewBox="0 0 10610 1080" fill="none" xmlns="http://www.w3.org/2000/svg">
<path d="M8168.99 1059.5C7874.01 1012.92 7836.57 809.405 7910.13 681.307C7944.26 627.496 7985.04 578.198 8031.49 534.576C8112.45 462.655 8201.93 400.96 8297.94 350.877C8464.98 260.456 8647.9 203.129 8836.67 182.041C8892.01 174.891 8948.1 175.676 9003.22 184.37C9035.79 188.764 9067.16 199.604 9095.49 216.257C9117.11 227.865 9133.8 246.903 9142.48 269.857C9151.16 292.81 9151.24 318.129 9142.71 341.137C9128.71 393.614 9094.78 438.556 9048.15 466.398C9009.68 491.308 8967.54 510.041 8923.27 521.914C8917.41 523.562 8911.39 524.542 8905.31 524.836C8892.4 525.514 8889.14 521.152 8893.84 508.914C8896.58 502.475 8899.76 496.235 8903.37 490.239C8913.85 473.431 8921.38 454.957 8925.64 435.612C8928.94 424.455 8929.7 412.701 8927.87 401.212C8926.03 389.723 8921.64 378.792 8915.02 369.222C8908.41 359.651 8899.73 351.686 8889.63 345.91C8879.53 340.133 8868.26 336.694 8856.66 335.844C8816.32 329.156 8775.16 329.156 8734.83 335.844C8628.99 351.495 8526.23 383.51 8430.23 430.742C8366.42 459.704 8306.52 496.596 8251.95 540.547L8247.38 544.146C8248.48 537.159 8249.37 531.739 8250.21 526.276C8251.22 521.873 8251.06 517.284 8249.76 512.961C8248.45 508.638 8246.04 504.731 8242.76 501.627C8239.48 498.522 8235.44 496.327 8231.05 495.258C8226.67 494.189 8222.07 494.284 8217.73 495.532C8208.49 497.598 8199.74 501.469 8191.99 506.924C8129.76 545.515 8073.45 592.912 8024.8 647.641C7993.99 682.484 7972.92 724.847 7963.74 770.446C7957.84 802.692 7960.11 835.904 7970.34 867.047C7980.58 898.19 7998.46 926.271 8022.35 948.725C8063.17 989.843 8114.88 1018.45 8171.41 1031.17C8209 1040.34 8247.21 1046.73 8285.74 1050.27C8332.35 1054.57 8379.19 1055.75 8425.95 1053.79C8451.83 1052.69 8512.72 1050.91 8512.72 1050.91C8512.72 1050.91 8485.45 1055.78 8472.32 1057.81C8416.31 1065.15 8359.89 1068.97 8303.4 1069.24C8258.41 1069.51 8213.47 1066.26 8168.99 1059.5V1059.5ZM8370.14 1040.02C8324.35 1039.51 8278.65 1035.89 8233.36 1029.18C8206.63 1025.05 8180.22 1019.11 8154.3 1011.4C8120.23 1002.74 8088.36 987.027 8060.75 965.283C8033.13 943.54 8010.39 916.245 7993.97 885.163C7980.4 858.23 7973.76 828.333 7974.66 798.184C7975.56 768.035 7983.98 738.588 7999.14 712.516C8022.75 668.716 8054.75 629.994 8093.32 598.561C8126.19 570.472 8160.8 544.49 8196.94 520.771C8203.63 515.967 8211.12 512.37 8219.05 510.142C8231.33 507.135 8238.48 513.572 8235.65 525.725C8232.81 537.879 8228.7 550.286 8225.19 562.567C8223.68 566.259 8221.26 569.508 8218.16 572.01C8191.01 598.367 8169.67 630.097 8155.48 665.172C8148.07 682.499 8144.15 701.118 8143.96 719.962C8143.76 738.806 8147.28 757.504 8154.32 774.984C8161.36 792.464 8171.79 808.381 8184.99 821.824C8198.2 835.266 8213.93 845.969 8231.28 853.318C8280.49 876.651 8330.84 897.316 8381.23 917.981C8421.55 934.539 8462.03 950.842 8502.51 967.103C8544.18 983.83 8585.94 1000.35 8629.55 1017.58C8588.22 1025.08 8548.46 1030.28 8508.57 1034.18C8469.4 1038.03 8430.06 1040.36 8390.76 1040.36C8383.82 1040.28 8376.94 1040.16 8370.14 1040.02V1040.02ZM8668.85 1009.49C8666.85 1009.15 8664.89 1008.58 8663.01 1007.8C8594.15 980.471 8525.21 953.27 8456.19 926.196C8432.85 916.965 8409.61 907.395 8386.4 897.994C8386.4 897.782 8399.61 898.925 8415.58 900.069C8430.57 901.127 8448.1 902.186 8459.83 902.186C8502.04 902.451 8544.21 899.834 8586.06 894.352C8642.66 885.959 8698.79 874.651 8754.22 860.475C8837.43 839.937 8919.37 815.206 9001.1 789.29C9049.46 773.918 9098.5 760.367 9146.1 742.963C9149.68 741.287 9153.59 740.419 9157.55 740.419C9161.51 740.419 9165.42 741.287 9169.01 742.963C9170.54 743.46 9171.94 744.287 9173.12 745.386C9174.3 746.485 9175.22 747.829 9175.82 749.323C9176.42 750.817 9176.69 752.425 9176.6 754.033C9176.51 755.642 9176.08 757.211 9175.32 758.631C9171.59 767.343 9166.08 775.176 9159.14 781.625C9133.06 805.965 9104.22 827.169 9073.22 844.806C8974.5 904.748 8868.96 952.631 8758.84 987.429C8731.26 997.174 8702.93 1004.68 8674.14 1009.87C8673.23 1010.02 8672.31 1010.09 8671.39 1010.08C8670.53 1009.95 8669.68 1009.75 8668.85 1009.49V1009.49ZM8933.35 933.014C8975.73 913.951 9017 892.504 9056.96 868.774C9088.82 850.641 9119.27 830.13 9148.04 807.414C9161.39 797.36 9172.69 784.84 9181.33 770.531C9184.84 765.878 9186.74 760.206 9186.74 754.375C9186.74 748.545 9184.84 742.873 9181.33 738.22C9177.36 732.955 9171.89 729.02 9165.63 726.94C9159.38 724.86 9152.64 724.733 9146.31 726.575C9121.92 733.689 9098.03 742.667 9073.73 750.12C8967.22 782.642 8861.65 818.509 8753.29 844.764C8667.93 866.618 8580.63 880.063 8492.65 884.909C8447.18 887.337 8401.59 885.224 8356.55 878.599C8343.19 876.482 8329.88 873.8 8316.61 870.553C8283.13 863.052 8251.22 849.768 8222.31 831.298C8207.75 823.225 8194.94 812.341 8184.61 799.278C8174.29 786.215 8166.67 771.233 8162.18 755.2C8157.69 739.168 8156.43 722.404 8158.48 705.881C8160.52 689.359 8165.82 673.406 8174.07 658.948C8184.09 637.205 8197.5 617.194 8213.8 599.662C8211.18 617.227 8209.61 634.93 8209.1 652.68C8206.94 682.01 8214.9 711.193 8231.64 735.371C8248.38 759.548 8272.9 777.262 8301.11 785.564C8350.82 803.042 8403.12 811.963 8455.81 811.946C8517.24 812.873 8578.59 806.821 8638.66 793.906C8733.53 774.041 8825.96 743.881 8914.29 703.962C9001.07 666.765 9082.22 617.634 9155.41 557.993C9207.47 516.028 9252.24 465.749 9287.92 409.188C9308.71 377.522 9320.27 340.684 9321.28 302.813C9321.44 285.039 9317.73 267.443 9310.42 251.242C9303.11 235.04 9292.37 220.619 9278.94 208.974C9252.44 185.814 9221.1 168.871 9187.21 159.386C9103.89 134.625 9016.7 125.452 8930.04 132.326C8821.56 139.726 8713.98 157.105 8608.68 184.243C8554.33 197.85 8500.69 213.97 8447.76 232.603C8357.77 265.017 8270.79 305.23 8187.79 352.782C8179.66 357.398 8171.24 361.59 8162.94 365.952C8181.25 348.604 8200.65 332.451 8221.04 317.592C8287.03 274.526 8356.28 236.667 8428.15 204.358C8573.62 138.773 8724.83 86.7759 8879.86 49.0307C8954.46 30.6471 9030.47 18.606 9107.1 13.0362C9145.06 10.2122 9183.17 9.90101 9221.18 12.1045C9285.91 15.2146 9350.18 24.7182 9413.05 40.4767C9449.34 49.8406 9484.58 62.9097 9518.2 79.4779C9554.15 96.408 9586.03 120.873 9611.7 151.213C9642.04 188.437 9657.63 235.526 9655.48 283.503C9651.67 346.057 9633.57 406.903 9602.55 461.359C9467.89 692.613 8994.83 933.141 8935.17 933.141L8933.35 933.014Z" fill="#6657ec"/>
<path d="M277.496 809.111C375.078 809.111 460.461 761.082 506.202 685.609L400.998 624.621C378.127 665.788 331.624 690.184 277.496 690.184C182.965 690.184 121.976 626.908 121.976 531.614C121.976 436.32 182.965 373.045 277.496 373.045C331.624 373.045 377.365 397.44 400.998 438.607L506.202 377.619C459.699 302.146 374.315 254.118 277.496 254.118C116.64 254.118 0 374.569 0 531.614C0 688.659 116.64 809.111 277.496 809.111Z" fill="#6657ec"/>
<path d="M810.548 809.111C963.781 809.111 1088.04 688.659 1088.04 531.614C1088.04 374.569 963.781 254.118 810.548 254.118C657.315 254.118 533.051 374.569 533.051 531.614C533.051 688.659 657.315 809.111 810.548 809.111ZM810.548 690.184C723.64 690.184 655.028 626.908 655.028 531.614C655.028 436.32 723.64 373.045 810.548 373.045C897.456 373.045 966.068 436.32 966.068 531.614C966.068 626.908 897.456 690.184 810.548 690.184Z" fill="#6657ec"/>
<path d="M1370.18 264.791H1156.72V798.438H1370.18C1517.31 798.438 1629.38 682.56 1629.38 531.614C1629.38 380.668 1517.31 264.791 1370.18 264.791ZM1370.18 681.035H1278.7V382.193H1370.18C1454.04 382.193 1511.98 440.132 1511.98 531.614C1511.98 623.096 1454.04 681.035 1370.18 681.035Z" fill="#6657ec"/>
<path d="M1819.94 681.035V586.504H2010.53V470.626H1819.94V382.193H2029.59V264.791H1697.96V798.438H2033.4V681.035H1819.94Z" fill="#6657ec"/>
<path d="M2580.81 20.7692H2160V1059.23H2580.81C2870.86 1059.23 3091.79 833.736 3091.79 540C3091.79 246.264 2870.86 20.7692 2580.81 20.7692ZM2580.81 830.769H2400.46V249.231H2580.81C2746.12 249.231 2860.34 361.978 2860.34 540C2860.34 718.022 2746.12 830.769 2580.81 830.769Z" fill="#6657ec"/>
<path d="M3226.99 20.7692V1059.23H3467.45V20.7692H3226.99Z" fill="#6657ec"/>
<path d="M4700.23 20.7692H4459.77L4174.22 482.143L3888.67 20.7692H3648.21V1059.23H3888.67V455.44L4160.69 896.044H4187.74L4459.77 455.44V1059.23H4700.23V20.7692Z" fill="#6657ec"/>
<path d="M5121.5 830.769V646.813H5497.22V421.319H5121.5V249.231H5534.8V20.7692H4881.04V1059.23H5542.31V830.769H5121.5Z" fill="#6657ec"/>
<path d="M6264.11 20.7692V584.505L5858.33 20.7692H5677.98V1059.23H5918.44V495.494L6324.22 1059.23H6504.57V20.7692H6264.11Z" fill="#6657ec"/>
<path d="M7038.33 1080C7266.77 1080 7429.08 961.319 7429.08 761.044C7429.08 541.484 7250.23 486.593 7090.93 439.121C6927.11 390.165 6901.56 357.527 6901.56 310.055C6901.56 268.516 6939.14 231.429 7014.28 231.429C7110.46 231.429 7160.06 277.418 7196.13 351.593L7399.02 234.396C7322.37 81.5934 7187.11 0 7014.28 0C6832.43 0 6661.1 115.714 6661.1 315.989C6661.1 514.78 6814.4 588.956 6970.7 631.978C7128.5 675 7188.62 700.22 7188.62 764.011C7188.62 804.066 7160.06 848.571 7045.84 848.571C6927.11 848.571 6862.49 790.714 6824.92 704.67L6617.52 823.352C6676.13 976.154 6817.4 1080 7038.33 1080Z" fill="#6657ec"/>
<path d="M7541.91 20.7692V1059.23H7782.37V20.7692H7541.91Z" fill="#6657ec"/>
<path d="M10369 20.7692V584.505L9963.17 20.7692H9782.83V1059.23H10023.3V495.494L10429.1 1059.23H10609.4V20.7692H10369Z" fill="#6657ec"/>
</svg>
